Mada-Black.ufo
<glyph name="comma-ar" format="2">
  <advance width="320"/>
  <unicode hex="060C"/>
  <outline>
    <contour>
      <point x="240" y="388" type="line"/>
      <point x="110" y="352"/>
      <point x="42" y="262"/>
      <point x="42" y="144" type="curve" smooth="yes"/>
      <point x="42" y="46"/>
      <point x="82" y="-12"/>
      <point x="156" y="-12" type="curve" smooth="yes"/>
      <point x="214" y="-12"/>
      <point x="260" y="26"/>
      <point x="260" y="82" type="curve" smooth="yes"/>
      <point x="260" y="142"/>
      <point x="212" y="176"/>
      <point x="160" y="176" type="curve" smooth="yes"/>
      <point x="138" y="176"/>
      <point x="118" y="169"/>
      <point x="102" y="157" type="curve"/>
      <point x="153" y="66" type="line"/>
      <point x="153" y="174" type="line" smooth="yes"/>
      <point x="152" y="224"/>
      <point x="193" y="272"/>
      <point x="274" y="298" type="curve"/>
    </contour>
  </outline>
</glyph>
<glyph name="tahabove-ar" format="2">
  <unicode hex="0615"/>
  <anchor x="0" y="0" name="_dotAbove"/>
  <anchor x="0" y="0" name="_markAboveDot"/>
  <anchor x="0" y="414" name="markAbove"/>
  <outline>
    <contour>
      <point x="-168" y="0" type="line"/>
      <point x="-168" y="86" type="line"/>
      <point x="-73" y="86" type="line"/>
      <point x="-73" y="0" type="line"/>
    </contour>
    <contour>
      <point x="-77" y="86" type="line"/>
      <point x="-35" y="144"/>
      <point x="28" y="252"/>
      <point x="127" y="216" type="curve"/>
      <point x="173" y="196"/>
      <point x="191" y="152"/>
      <point x="192" y="104" type="curve" smooth="yes"/>
      <point x="194" y="70" type="line" smooth="yes"/>
      <point x="196" y="31"/>
      <point x="162" y="0"/>
      <point x="124" y="0" type="curve" smooth="yes"/>
      <point x="-92" y="0" type="line"/>
      <point x="-92" y="86" type="line"/>
      <point x="117" y="86" type="line"/>
      <point x="113.5" y="82.5"/>
      <point x="110.5" y="79.5"/>
      <point x="107" y="76" type="curve"/>
      <point x="108" y="102" type="line"/>
      <point x="107" y="134"/>
      <point x="100" y="134"/>
      <point x="96" y="136" type="curve"/>
      <point x="74" y="143"/>
      <point x="27" y="87"/>
      <point x="-10" y="31" type="curve"/>
    </contour>
    <contour>
      <point x="-120" y="312" type="line"/>
      <point x="-34" y="312" type="line"/>
      <point x="-34" y="61" type="line"/>
      <point x="-120" y="61" type="line"/>
    </contour>
  </outline>
</glyph>
<glyph name="arSemicolon" format="2">
  <advance width="320"/>
  <unicode hex="061B"/>
  <outline>
    <contour>
      <point x="160" y="196" type="curve" smooth="yes"/>
      <point x="102" y="196"/>
      <point x="60" y="150"/>
      <point x="60" y="92" type="curve" smooth="yes"/>
      <point x="60" y="34"/>
      <point x="102" y="-12"/>
      <point x="160" y="-12" type="curve" smooth="yes"/>
      <point x="218" y="-12"/>
      <point x="260" y="34"/>
      <point x="260" y="92" type="curve" smooth="yes"/>
      <point x="260" y="150"/>
      <point x="218" y="196"/>
    </contour>
    <contour>
      <point x="240" y="698" type="line"/>
      <point x="110" y="662"/>
      <point x="42" y="572"/>
      <point x="42" y="454" type="curve" smooth="yes"/>
      <point x="42" y="356"/>
      <point x="82" y="298"/>
      <point x="156" y="298" type="curve" smooth="yes"/>
      <point x="214" y="298"/>
      <point x="260" y="336"/>
      <point x="260" y="392" type="curve" smooth="yes"/>
      <point x="260" y="452"/>
      <point x="212" y="486"/>
      <point x="160" y="486" type="curve" smooth="yes"/>
      <point x="138" y="486"/>
      <point x="118" y="479"/>
      <point x="102" y="467" type="curve"/>
      <point x="153" y="376" type="line"/>
      <point x="153" y="484" type="line" smooth="yes"/>
      <point x="152" y="534"/>
      <point x="193" y="582"/>
      <point x="274" y="608" type="curve"/>
    </contour>
  </outline>
</glyph>
<glyph name="arQuestion" format="2">
  <advance width="478"/>
  <unicode hex="061F"/>
  <outline>
    <contour>
      <point x="326" y="244" type="curve"/>
      <point x="176" y="244" type="line"/>
      <point x="186" y="354"/>
      <point x="40" y="386"/>
      <point x="40" y="506" type="curve" smooth="yes"/>
      <point x="40" y="632"/>
      <point x="128" y="682"/>
      <point x="238" y="682" type="curve" smooth="yes"/>
      <point x="318" y="682"/>
      <point x="387" y="644"/>
      <point x="436" y="588" type="curve"/>
      <point x="342" y="502" type="line"/>
      <point x="316" y="526"/>
      <point x="294" y="544"/>
      <point x="260" y="544" type="curve" smooth="yes"/>
      <point x="230" y="544"/>
      <point x="204" y="530"/>
      <point x="204" y="494" type="curve" smooth="yes"/>
      <point x="204" y="430"/>
      <point x="346" y="374"/>
    </contour>
    <contour>
      <point x="252" y="-12" type="curve" smooth="yes"/>
      <point x="194" y="-12"/>
      <point x="152" y="34"/>
      <point x="152" y="92" type="curve" smooth="yes"/>
      <point x="152" y="150"/>
      <point x="194" y="196"/>
      <point x="252" y="196" type="curve" smooth="yes"/>
      <point x="310" y="196"/>
      <point x="352" y="150"/>
      <point x="352" y="92" type="curve" smooth="yes"/>
      <point x="352" y="34"/>
      <point x="310" y="-12"/>
    </contour>
  </outline>
</glyph>
<glyph name="hamza-ar" format="2">
  <advance width="451"/>
  <unicode hex="0621"/>
  <anchor x="290" y="493" name="dotAbove"/>
  <anchor x="180" y="-120" name="dotBelow"/>
  <anchor x="290" y="541" name="markAbove"/>
  <anchor x="180" y="-155" name="markBelow"/>
  <outline>
    <contour>
      <point x="391" y="363" type="line"/>
      <point x="391" y="191" type="line"/>
      <point x="322" y="191" type="line"/>
      <point x="341" y="151" type="line" smooth="yes"/>
      <point x="348" y="136"/>
      <point x="372" y="94"/>
      <point x="343" y="49" type="curve" smooth="yes"/>
      <point x="318" y="9"/>
      <point x="261" y="-1"/>
      <point x="249" y="0" type="curve" smooth="yes"/>
      <point x="60" y="0" type="line"/>
      <point x="60" y="172" type="line"/>
      <point x="141" y="172" type="line"/>
      <point x="123" y="211" type="line"/>
      <point x="123" y="211"/>
      <point x="81" y="280"/>
      <point x="128" y="328" type="curve" smooth="yes"/>
      <point x="145" y="346"/>
      <point x="178" y="363"/>
      <point x="220" y="363" type="curve" smooth="yes"/>
    </contour>
  </outline>
</glyph>
<glyph name="uni0621" format="2">
  <advance width="571"/>
  <unicode hex="0621"/>
  <outline>
    <contour>
      <point x="451.248046875" y="362.716796875" type="line"/>
      <point x="451.248046875" y="190.716796875" type="line"/>
      <point x="382.4794921875" y="190.716796875" type="line"/>
      <point x="401.431640625" y="150.5302734375" type="line" smooth="yes"/>
      <point x="407.552734375" y="135.681640625"/>
      <point x="432.41015625" y="93.9697265625"/>
      <point x="403.169921875" y="48.5546875" type="curve" smooth="yes"/>
      <point x="377.654296875" y="8.9208984375"/>
      <point x="321.265625" y="-0.5419921875"/>
      <point x="309.25390625" y="-0.2451171875" type="curve" smooth="yes"/>
      <point x="120.0" y="-0.2451171875" type="line"/>
      <point x="120.0" y="171.7548828125" type="line"/>
      <point x="201.2529296875" y="171.7548828125" type="line"/>
      <point x="182.98046875" y="210.5048828125" type="line"/>
      <point x="182.98046875" y="210.5048828125"/>
      <point x="141.48828125" y="280.076171875"/>
      <point x="187.857421875" y="327.890625" type="curve" smooth="yes"/>
      <point x="205.103515625" y="345.6708984375"/>
      <point x="238.044921875" y="362.716796875"/>
      <point x="279.5" y="362.716796875" type="curve" smooth="yes"/>
    </contour>
    <component base="arTah.above" xOffset="350.0" yOffset="493.0" identifier="mark_arTah.above"/>
    <component base="ar3Dot.above" xOffset="350.0" yOffset="493.0" identifier="mark_ar3Dot.above"/>
    <component base="ar1Dot.above" xOffset="350.0" yOffset="493.0" identifier="mark_ar1Dot.above"/>
    <component base="uni0652" xOffset="350.0" yOffset="541.0" identifier="mark_uni0652"/>
    <component base="uni064F" xOffset="350.0" yOffset="536.0" identifier="mark_uni064F"/>
    <component base="uni064C" xOffset="350.0" yOffset="534.0" identifier="mark_uni064C"/>
    <component base="ar3IDot.below" xOffset="240.0" yOffset="-120.0" identifier="mark_ar3IDot.below"/>
    <component base="ar2Dot.below" xOffset="240.0" yOffset="-120.0" identifier="mark_ar2Dot.below"/>
    <component base="uni0656" xOffset="240.0" yOffset="-120.0" identifier="mark_uni0656"/>
    <component base="uni064D" xOffset="240.0" yOffset="-155.0" identifier="mark_uni064D"/>
    <component base="uni0650" xOffset="240.0" yOffset="-145.0" identifier="mark_uni0650"/>
    <component base="ar1Dot.below" xOffset="240.0" yOffset="-120.0" identifier="mark_ar1Dot.below"/>
    <component base="ar3Dot.below" xOffset="240.0" yOffset="-120.0" identifier="mark_ar3Dot.below"/>
    <component base="uni064B" xOffset="350.0" yOffset="538.0" identifier="mark_uni064B"/>
    <component base="uni064E" xOffset="350.0" yOffset="518.0" identifier="mark_uni064E"/>
    <component base="uni0651" xOffset="350.0" yOffset="537.0" identifier="mark_uni0651"/>
    <component base="uni0670" xOffset="350.0" yOffset="493.0" identifier="mark_uni0670"/>
    <component base="ar2Dot.above" xOffset="350.0" yOffset="493.0" identifier="mark_ar2Dot.above"/>
    <component base="ar3IDot.above" xOffset="350.0" yOffset="493.0" identifier="mark_ar3IDot.above"/>
  </outline>
</glyph>
<glyph name="hah-ar" format="2">
  <advance width="656"/>
  <unicode hex="062D"/>
  <anchor x="348" y="738" name="dotAbove"/>
  <anchor x="338" y="36" name="dotBelow"/>
  <anchor x="348" y="738" name="hamzaAbove"/>
  <anchor x="348" y="786" name="markAbove"/>
  <anchor x="338" y="-279" name="markBelow"/>
  <outline>
    <contour>
      <point x="471" y="-58" type="line"/>
      <point x="471" y="-230" type="line"/>
      <point x="231" y="-230" type="line" smooth="yes"/>
      <point x="137" y="-230"/>
      <point x="60" y="-156"/>
      <point x="60" y="-63" type="curve" smooth="yes"/>
      <point x="60" y="122" type="line" smooth="yes"/>
      <point x="60" y="211"/>
      <point x="129" y="304"/>
      <point x="238" y="304" type="curve" smooth="yes"/>
      <point x="332" y="304" type="line"/>
      <point x="326" y="311"/>
      <point x="320" y="318"/>
      <point x="314" y="325" type="curve" smooth="yes"/>
      <point x="278" y="369"/>
      <point x="249" y="409"/>
      <point x="179" y="435" type="curve"/>
      <point x="239" y="595" type="line"/>
      <point x="376" y="543"/>
      <point x="440" y="441"/>
      <point x="467" y="411" type="curve" smooth="yes"/>
      <point x="511" y="363"/>
      <point x="558" y="374"/>
      <point x="596" y="374" type="curve"/>
      <point x="596" y="288" type="line"/>
      <point x="596" y="288"/>
      <point x="612" y="132"/>
      <point x="463" y="132" type="curve" smooth="yes"/>
      <point x="212" y="132" type="line"/>
      <point x="219" y="139"/>
      <point x="225" y="145"/>
      <point x="232" y="152" type="curve"/>
      <point x="232" y="-78" type="line"/>
      <point x="225" y="-71"/>
      <point x="219" y="-65"/>
      <point x="212" y="-58" type="curve"/>
    </contour>
  </outline>
</glyph>
<glyph name="reh-ar" format="2">
  <advance width="387"/>
  <unicode hex="0631"/>
  <anchor x="240" y="40" name="dash"/>
  <anchor x="241" y="441" name="dotAbove"/>
  <anchor x="123" y="-380" name="dotBelow"/>
  <anchor x="60" y="60" name="dotMiddle"/>
  <anchor x="241" y="441" name="hamzaAbove"/>
  <anchor x="193" y="489" name="markAbove"/>
  <anchor x="123" y="-415" name="markBelow"/>
  <anchor x="123" y="-229" name="ringBelow"/>
  <outline>
    <contour>
      <point x="155" y="111" type="line" smooth="yes"/>
      <point x="155" y="211"/>
      <point x="227" y="221"/>
      <point x="327" y="221" type="curve"/>
      <point x="327" y="3" type="line" smooth="yes"/>
      <point x="327" y="-120"/>
      <point x="265" y="-230"/>
      <point x="102" y="-230" type="curve" smooth="yes"/>
      <point x="0" y="-230" type="line"/>
      <point x="0" y="-58" type="line"/>
      <point x="102" y="-58" type="line" smooth="yes"/>
      <point x="131" y="-58"/>
      <point x="155" y="-38"/>
      <point x="155" y="3" type="curve" smooth="yes"/>
    </contour>
  </outline>
</glyph>
<glyph name="ain-ar" format="2">
  <advance width="536"/>
  <unicode hex="0639"/>
  <anchor x="273" y="596" name="dotAbove"/>
  <anchor x="338" y="-52" name="dotBelow"/>
  <anchor x="273" y="640" name="markAbove"/>
  <anchor x="338" y="-277" name="markBelow"/>
  <outline>
    <contour>
      <point x="476" y="-57" type="line"/>
      <point x="476" y="-229" type="line"/>
      <point x="188" y="-229" type="line" smooth="yes"/>
      <point x="115" y="-229"/>
      <point x="60" y="-166"/>
      <point x="60" y="-96" type="curve" smooth="yes"/>
      <point x="60" y="83" type="line" smooth="yes"/>
      <point x="60" y="155"/>
      <point x="116" y="215"/>
      <point x="190" y="215" type="curve" smooth="yes"/>
      <point x="476" y="215" type="line"/>
      <point x="476" y="43" type="line"/>
      <point x="212" y="43" type="line"/>
      <point x="219" y="50"/>
      <point x="225" y="56"/>
      <point x="232" y="63" type="curve"/>
      <point x="232" y="-77" type="line"/>
      <point x="225" y="-70"/>
      <point x="219" y="-64"/>
      <point x="212" y="-57" type="curve"/>
    </contour>
    <contour>
      <point x="470" y="438" type="curve"/>
      <point x="404" y="278" type="line"/>
      <point x="388" y="285"/>
      <point x="376" y="289"/>
      <point x="366" y="292" type="curve" smooth="yes"/>
      <point x="342" y="299"/>
      <point x="325" y="300"/>
      <point x="314" y="299" type="curve"/>
      <point x="319" y="282"/>
      <point x="336" y="252"/>
      <point x="371" y="214" type="curve"/>
      <point x="245" y="98" type="line"/>
      <point x="157" y="194"/>
      <point x="93" y="321"/>
      <point x="180" y="416" type="curve" smooth="yes"/>
      <point x="238" y="479"/>
      <point x="331" y="481"/>
      <point x="412" y="458" type="curve" smooth="yes"/>
      <point x="432" y="453"/>
      <point x="452" y="446"/>
    </contour>
  </outline>
</glyph>
<glyph name="kashida-ar" format="2">
  <advance width="280"/>
  <unicode hex="0640"/>
  <anchor x="122" y="364" name="dotAbove"/>
  <anchor x="122" y="-109" name="dotBelow"/>
  <anchor x="122" y="364" name="hamzaAbove"/>
  <anchor x="122" y="-109" name="hamzaBelow"/>
  <anchor x="122" y="402" name="markAbove"/>
  <anchor x="122" y="-139" name="markBelow"/>
  <anchor x="122" y="0" name="ringBelow"/>
  <outline>
    <contour>
      <point x="300" y="0" type="line"/>
      <point x="0" y="0" type="line"/>
      <point x="0" y="172" type="line"/>
      <point x="300" y="172" type="line"/>
    </contour>
  </outline>
</glyph>
<glyph name="uni0640" format="2">
  <advance width="280"/>
  <unicode hex="0640"/>
  <outline>
    <contour>
      <point x="285.0" y="0.0" type="line"/>
      <point x="-5.0" y="0.0" type="line"/>
      <point x="-5.0" y="172.0" type="line"/>
      <point x="285.0" y="172.0" type="line"/>
    </contour>
  </outline>
</glyph>
<glyph name="heh-ar" format="2">
  <advance width="569"/>
  <unicode hex="0647"/>
  <anchor x="340" y="604" name="dotAbove"/>
  <anchor x="314" y="-161" name="dotBelow"/>
  <anchor x="340" y="499" name="hamzaAbove"/>
  <anchor x="340" y="499" name="kafAbove"/>
  <anchor x="340" y="652" name="markAbove"/>
  <anchor x="314" y="-196" name="markBelow"/>
  <outline>
    <contour>
      <point x="420" y="397" type="line"/>
      <point x="374" y="284"/>
      <point x="329" y="250"/>
      <point x="224" y="154" type="curve"/>
      <point x="220.481" y="155.207"/>
      <point x="218.612" y="158.166"/>
      <point x="218.241" y="163.9" type="curve" smooth="yes"/>
      <point x="218.016" y="167.371"/>
      <point x="219.702" y="171.717"/>
      <point x="224" y="172" type="curve"/>
      <point x="357" y="172" type="line"/>
      <point x="350" y="165"/>
      <point x="344" y="159"/>
      <point x="337" y="152" type="curve"/>
      <point x="337" y="397" type="line"/>
      <point x="509" y="397" type="line"/>
      <point x="509" y="138" type="line" smooth="yes"/>
      <point x="509" y="62"/>
      <point x="447" y="0"/>
      <point x="371" y="0" type="curve" smooth="yes"/>
      <point x="231" y="0" type="line" smooth="yes"/>
      <point x="186" y="0"/>
      <point x="144" y="17"/>
      <point x="113" y="45" type="curve" smooth="yes"/>
      <point x="52" y="100"/>
      <point x="34" y="209"/>
      <point x="109" y="282" type="curve" smooth="yes"/>
      <point x="185" y="356"/>
      <point x="224" y="376"/>
      <point x="260" y="461" type="curve"/>
    </contour>
  </outline>
</glyph>
<glyph name="waw-ar" format="2">
  <advance width="556"/>
  <unicode hex="0648"/>
  <anchor x="390" y="-40" name="dash"/>
  <anchor x="323" y="554" name="dotAbove"/>
  <anchor x="259" y="-359" name="dotBelow"/>
  <anchor x="323" y="554" name="hamzaAbove"/>
  <anchor x="323" y="554" name="kafAbove"/>
  <anchor x="278" y="602" name="markAbove"/>
  <anchor x="259" y="-394" name="markBelow"/>
  <anchor x="259" y="-229" name="ringBelow"/>
  <outline>
    <contour>
      <point x="378" y="0" type="line"/>
      <point x="250" y="0" type="line" smooth="yes"/>
      <point x="141" y="0"/>
      <point x="54" y="88"/>
      <point x="60" y="195" type="curve" smooth="yes"/>
      <point x="74" y="353"/>
      <point x="204" y="444"/>
      <point x="319" y="444" type="curve" smooth="yes"/>
      <point x="417" y="444"/>
      <point x="496" y="368"/>
      <point x="496" y="267" type="curve" smooth="yes"/>
      <point x="496" y="3" type="line" smooth="yes"/>
      <point x="496" y="-110"/>
      <point x="411" y="-229"/>
      <point x="272" y="-229" type="curve" smooth="yes"/>
      <point x="79" y="-229" type="line"/>
      <point x="79" y="-57" type="line"/>
      <point x="272" y="-57" type="line" smooth="yes"/>
      <point x="298" y="-57"/>
      <point x="324" y="-34"/>
      <point x="324" y="0" type="curve" smooth="yes"/>
      <point x="324" y="267" type="line" smooth="yes"/>
      <point x="324" y="274"/>
      <point x="321" y="273"/>
      <point x="315" y="272" type="curve"/>
      <point x="289" y="269"/>
      <point x="245" y="244"/>
      <point x="234" y="195" type="curve" smooth="yes"/>
      <point x="231" y="184"/>
      <point x="233" y="172"/>
      <point x="250" y="172" type="curve" smooth="yes"/>
      <point x="378" y="172" type="line"/>
    </contour>
  </outline>
</glyph>
<glyph name="alefMaksura-ar" format="2">
  <advance width="714"/>
  <unicode hex="0649"/>
  <anchor x="277" y="400" name="dotAbove"/>
  <anchor x="399" y="-296" name="dotBelow"/>
  <anchor x="277" y="400" name="hamzaAbove"/>
  <anchor x="399" y="-296" name="hamzaBelow"/>
  <anchor x="277" y="400" name="kafAbove"/>
  <anchor x="277" y="444" name="markAbove"/>
  <anchor x="399" y="-331" name="markBelow"/>
  <anchor x="399" y="-144" name="ringBelow"/>
  <anchor x="104" y="131" name="tailAbove"/>
  <outline>
    <contour>
      <point x="654" y="302" type="line"/>
      <point x="654" y="130" type="line"/>
      <point x="546" y="130" type="line"/>
      <point x="548.45" y="135.95"/>
      <point x="550.55" y="141.05"/>
      <point x="553" y="147" type="curve"/>
      <point x="624" y="61" type="line" smooth="yes"/>
      <point x="699.076" y="-29.937"/>
      <point x="626.896" y="-139.222"/>
      <point x="517" y="-144" type="curve" smooth="yes"/>
      <point x="287" y="-144" type="line" smooth="yes"/>
      <point x="200" y="-144"/>
      <point x="60" y="-89"/>
      <point x="60" y="67" type="curve" smooth="yes"/>
      <point x="60" y="293" type="line"/>
      <point x="232" y="293" type="line"/>
      <point x="232" y="67" type="line" smooth="yes"/>
      <point x="232" y="41"/>
      <point x="246.075" y="30.48"/>
      <point x="287" y="28" type="curve" smooth="yes"/>
      <point x="452" y="28" type="line"/>
      <point x="447.1" y="23.8"/>
      <point x="442.9" y="20.2"/>
      <point x="438" y="16" type="curve"/>
      <point x="383" y="83" type="line" smooth="yes"/>
      <point x="301.839" y="181.868"/>
      <point x="371.203" y="308.833"/>
      <point x="486" y="302" type="curve" smooth="yes"/>
    </contour>
  </outline>
</glyph>
<glyph name="dammatan-ar" format="2">
  <unicode hex="064C"/>
  <anchor x="0" y="0" name="_markAbove"/>
  <anchor x="0" y="0" name="_markAboveDot"/>
  <outline>
    <contour>
      <point x="-15" y="49" type="line"/>
      <point x="-30" y="88" type="line" smooth="yes"/>
      <point x="-46" y="136"/>
      <point x="-22" y="185"/>
      <point x="26" y="200" type="curve" smooth="yes"/>
      <point x="98" y="220"/>
      <point x="156.761" y="176.904"/>
      <point x="177" y="127" type="curve" smooth="yes"/>
      <point x="194.441" y="83.998"/>
      <point x="183.264" y="41.861"/>
      <point x="129" y="22" type="curve" smooth="yes"/>
      <point x="-24" y="-34" type="line" smooth="yes"/>
      <point x="-74" y="-52"/>
      <point x="-140" y="-34"/>
      <point x="-162" y="28" type="curve" smooth="yes"/>
      <point x="-181" y="79" type="line" smooth="yes"/>
      <point x="-189" y="99"/>
      <point x="-179" y="119"/>
      <point x="-159" y="127" type="curve" smooth="yes"/>
      <point x="-139" y="135"/>
      <point x="-119" y="124"/>
      <point x="-111" y="104" type="curve" smooth="yes"/>
      <point x="-91" y="53" type="line" smooth="yes"/>
      <point x="-85" y="38"/>
      <point x="-67" y="31"/>
      <point x="-49" y="37" type="curve" smooth="yes"/>
    </contour>
    <contour>
      <point x="56" y="74" type="line"/>
      <point x="102" y="92" type="line" smooth="yes"/>
      <point x="104.186" y="92.856"/>
      <point x="107.515" y="95.613"/>
      <point x="106.156" y="100.074" type="curve" smooth="yes"/>
      <point x="104.421" y="105.774"/>
      <point x="90.851" y="127.657"/>
      <point x="65" y="130" type="curve" smooth="yes"/>
      <point x="53.008" y="131.087"/>
      <point x="36" y="130"/>
      <point x="42" y="112" type="curve" smooth="yes"/>
    </contour>
  </outline>
</glyph>
<glyph name="uni064C" format="2">
  <unicode hex="064C"/>
  <anchor x="0" y="0" name="_markAbove"/>
  <outline>
    <contour>
      <point x="-15.0" y="49.0" type="line"/>
      <point x="-30.0" y="88.0" type="line" smooth="yes"/>
      <point x="-46.0" y="136.0"/>
      <point x="-22.0" y="185.0"/>
      <point x="26.0" y="200.0" type="curve" smooth="yes"/>
      <point x="98.0" y="220.0"/>
      <point x="156.76062002615032" y="176.90358201846703"/>
      <point x="177.0" y="127.0" type="curve" smooth="yes"/>
      <point x="194.44050620356597" y="83.99751015605648"/>
      <point x="183.263968148882" y="41.86132167540779"/>
      <point x="129.0" y="22.0" type="curve" smooth="yes"/>
      <point x="-24.0" y="-34.0" type="line" smooth="yes"/>
      <point x="-74.0" y="-52.0"/>
      <point x="-140.0" y="-34.0"/>
      <point x="-162.0" y="28.0" type="curve" smooth="yes"/>
      <point x="-181.0" y="79.0" type="line" smooth="yes"/>
      <point x="-189.0" y="99.0"/>
      <point x="-179.0" y="119.0"/>
      <point x="-159.0" y="127.0" type="curve" smooth="yes"/>
      <point x="-139.0" y="135.0"/>
      <point x="-119.0" y="124.0"/>
      <point x="-111.0" y="104.0" type="curve" smooth="yes"/>
      <point x="-91.0" y="53.0" type="line" smooth="yes"/>
      <point x="-85.0" y="38.0"/>
      <point x="-67.0" y="31.0"/>
      <point x="-49.0" y="37.0" type="curve" smooth="yes"/>
    </contour>
    <contour>
      <point x="56.0" y="74.0" type="line"/>
      <point x="102.0" y="92.0" type="line" smooth="yes"/>
      <point x="104.18643826692681" y="92.8555628001018"/>
      <point x="107.5150381762979" y="95.61258431962287"/>
      <point x="106.15627250628427" y="100.07419590597192" type="curve" smooth="yes"/>
      <point x="104.42051372704518" y="105.77369336272028"/>
      <point x="90.85138869937055" y="127.65662386568465"/>
      <point x="65.0" y="130.0" type="curve" smooth="yes"/>
      <point x="53.007575829694964" y="131.08708901173873"/>
      <point x="36.0" y="130.0"/>
      <point x="42.0" y="112.0" type="curve" smooth="yes"/>
    </contour>
  </outline>
</glyph>
<glyph name="fatha-ar" format="2">
  <unicode hex="064E"/>
  <anchor x="0" y="0" name="_markAbove"/>
  <anchor x="0" y="0" name="_markAboveDot"/>
  <outline>
    <contour>
      <point x="-135" y="1" type="curve" smooth="yes"/>
      <point x="-143" y="21"/>
      <point x="-132" y="41"/>
      <point x="-112" y="49" type="curve" smooth="yes"/>
      <point x="87" y="121" type="line" smooth="yes"/>
      <point x="107" y="129"/>
      <point x="127" y="120"/>
      <point x="135" y="100" type="curve" smooth="yes"/>
      <point x="143" y="80"/>
      <point x="132" y="60"/>
      <point x="112" y="52" type="curve" smooth="yes"/>
      <point x="-87" y="-22" type="line" smooth="yes"/>
      <point x="-107" y="-30"/>
      <point x="-127" y="-19"/>
    </contour>
  </outline>
</glyph>
<glyph name="uni064E" format="2">
  <unicode hex="064E"/>
  <anchor x="0" y="0" name="_markAbove"/>
  <outline>
    <contour>
      <point x="-135.0" y="1.0" type="curve" smooth="yes"/>
      <point x="-143.0" y="21.0"/>
      <point x="-132.0" y="41.0"/>
      <point x="-112.0" y="49.0" type="curve" smooth="yes"/>
      <point x="87.0" y="121.0" type="line" smooth="yes"/>
      <point x="107.0" y="129.0"/>
      <point x="127.0" y="120.0"/>
      <point x="135.0" y="100.0" type="curve" smooth="yes"/>
      <point x="143.0" y="80.0"/>
      <point x="132.0" y="60.0"/>
      <point x="112.0" y="52.0" type="curve" smooth="yes"/>
      <point x="-87.0" y="-22.0" type="line" smooth="yes"/>
      <point x="-107.0" y="-30.0"/>
      <point x="-127.0" y="-19.0"/>
    </contour>
  </outline>
</glyph>
<glyph name="damma-ar" format="2">
  <unicode hex="064F"/>
  <anchor x="0" y="0" name="_markAbove"/>
  <anchor x="0" y="0" name="_markAboveDot"/>
  <outline>
    <contour>
      <point x="-51" y="56" type="line"/>
      <point x="-64" y="95" type="line" smooth="yes"/>
      <point x="-80" y="143"/>
      <point x="-58" y="193"/>
      <point x="-10" y="208" type="curve" smooth="yes"/>
      <point x="62" y="228"/>
      <point x="121" y="184"/>
      <point x="141" y="134" type="curve" smooth="yes"/>
      <point x="156.26" y="95.849"/>
      <point x="143.576" y="47.367"/>
      <point x="93" y="29" type="curve" smooth="yes"/>
      <point x="-97" y="-40" type="line"/>
      <point x="-116" y="-48"/>
      <point x="-137" y="-37"/>
      <point x="-145" y="-17" type="curve" smooth="yes"/>
      <point x="-153" y="3"/>
      <point x="-143" y="23"/>
      <point x="-123" y="31" type="curve" smooth="yes"/>
    </contour>
    <contour>
      <point x="20" y="82" type="line"/>
      <point x="68" y="100" type="line"/>
      <point x="71" y="102"/>
      <point x="72" y="103"/>
      <point x="72" y="103" type="curve"/>
      <point x="72" y="107"/>
      <point x="59" y="134"/>
      <point x="29" y="137" type="curve"/>
      <point x="17" y="137"/>
      <point x="0" y="137"/>
      <point x="6" y="119" type="curve" smooth="yes"/>
    </contour>
  </outline>
</glyph>
<glyph name="uni064F" format="2">
  <unicode hex="064F"/>
  <anchor x="0" y="0" name="_markAbove"/>
  <anchor x="0" y="0" name="_markAboveDot"/>
  <outline>
    <contour>
      <point x="-51.0" y="56.0" type="line"/>
      <point x="-64.0" y="95.0" type="line" smooth="yes"/>
      <point x="-80.0" y="143.0"/>
      <point x="-58.0" y="193.0"/>
      <point x="-10.0" y="208.0" type="curve" smooth="yes"/>
      <point x="62.0" y="228.0"/>
      <point x="121.0" y="184.0"/>
      <point x="141.0" y="134.0" type="curve" smooth="yes"/>
      <point x="156.26032566536264" y="95.84918583659342"/>
      <point x="143.5758423386048" y="47.36701642823016"/>
      <point x="93.0" y="29.0" type="curve" smooth="yes"/>
      <point x="-97.0" y="-40.0" type="line"/>
      <point x="-116.0" y="-48.0"/>
      <point x="-137.0" y="-37.0"/>
      <point x="-145.0" y="-17.0" type="curve" smooth="yes"/>
      <point x="-153.0" y="3.0"/>
      <point x="-143.0" y="23.0"/>
      <point x="-123.0" y="31.0" type="curve" smooth="yes"/>
    </contour>
    <contour>
      <point x="20.0" y="82.0" type="line"/>
      <point x="68.0" y="100.0" type="line"/>
      <point x="71.0" y="102.0"/>
      <point x="72.0" y="103.0"/>
      <point x="72.0" y="103.0" type="curve"/>
      <point x="72.0" y="107.0"/>
      <point x="59.0" y="134.0"/>
      <point x="29.0" y="137.0" type="curve"/>
      <point x="17.0" y="137.0"/>
      <point x="0.0" y="137.0"/>
      <point x="6.0" y="119.0" type="curve" smooth="yes"/>
    </contour>
  </outline>
</glyph>
<glyph name="shadda-ar" format="2">
  <unicode hex="0651"/>
  <anchor x="0" y="0" name="_markAbove"/>
  <anchor x="0" y="0" name="_markAboveDot"/>
  <anchor x="0" y="251" name="markAbove"/>
  <outline>
    <contour>
      <point x="-152" y="120" type="line" smooth="yes"/>
      <point x="-152" y="141"/>
      <point x="-135" y="157"/>
      <point x="-114" y="157" type="curve" smooth="yes"/>
      <point x="-93" y="157"/>
      <point x="-76" y="141"/>
      <point x="-76" y="120" type="curve" smooth="yes"/>
      <point x="-76" y="31" type="line"/>
      <point x="-67" y="28"/>
      <point x="-55" y="18"/>
      <point x="-52" y="6" type="curve" smooth="yes"/>
      <point x="-46" y="-14"/>
      <point x="-58" y="-35"/>
      <point x="-78" y="-41" type="curve" smooth="yes"/>
      <point x="-98" y="-47"/>
      <point x="-123" y="-44"/>
      <point x="-138" y="-26" type="curve" smooth="yes"/>
      <point x="-152" y="-11"/>
      <point x="-152" y="6"/>
      <point x="-152" y="16" type="curve" smooth="yes"/>
    </contour>
    <contour>
      <point x="-39" y="139" type="line" smooth="yes"/>
      <point x="-39" y="160"/>
      <point x="-23" y="177"/>
      <point x="-2" y="177" type="curve" smooth="yes"/>
      <point x="19" y="177"/>
      <point x="36" y="160"/>
      <point x="36" y="139" type="curve" smooth="yes"/>
      <point x="36" y="40" type="line" smooth="yes"/>
      <point x="36" y="6"/>
      <point x="9" y="-12"/>
      <point x="-9" y="-18" type="curve" smooth="yes"/>
      <point x="-75" y="-41" type="line" smooth="yes"/>
      <point x="-95" y="-47"/>
      <point x="-117" y="-37"/>
      <point x="-123" y="-17" type="curve" smooth="yes"/>
      <point x="-129" y="3"/>
      <point x="-119" y="25"/>
      <point x="-99" y="31" type="curve" smooth="yes"/>
      <point x="-39" y="51" type="line"/>
    </contour>
    <contour>
      <point x="76" y="181" type="line" smooth="yes"/>
      <point x="76" y="202"/>
      <point x="93" y="219"/>
      <point x="114" y="219" type="curve" smooth="yes"/>
      <point x="135" y="219"/>
      <point x="152" y="202"/>
      <point x="152" y="181" type="curve" smooth="yes"/>
      <point x="152" y="82" type="line" smooth="yes"/>
      <point x="152" y="49"/>
      <point x="124" y="30"/>
      <point x="106" y="24" type="curve" smooth="yes"/>
      <point x="52" y="4" type="line" smooth="yes"/>
      <point x="32" y="-4"/>
      <point x="12" y="8"/>
      <point x="4" y="28" type="curve" smooth="yes"/>
      <point x="-4" y="48"/>
      <point x="8" y="68"/>
      <point x="28" y="76" type="curve" smooth="yes"/>
      <point x="76" y="93" type="line"/>
    </contour>
  </outline>
</glyph>
<glyph name="uni0651" format="2">
  <unicode hex="0651"/>
  <anchor x="0" y="0" name="_markAbove"/>
  <anchor x="0" y="251.0" name="markAbove"/>
  <anchor x="0" y="0" name="_markAboveDot"/>
  <outline>
    <contour>
      <point x="-152.0" y="120.0" type="line" smooth="yes"/>
      <point x="-152.0" y="141.0"/>
      <point x="-135.0" y="157.0"/>
      <point x="-114.0" y="157.0" type="curve" smooth="yes"/>
      <point x="-93.0" y="157.0"/>
      <point x="-76.0" y="141.0"/>
      <point x="-76.0" y="120.0" type="curve" smooth="yes"/>
      <point x="-76.0" y="31.0" type="line"/>
      <point x="-67.0" y="28.0"/>
      <point x="-55.0" y="18.0"/>
      <point x="-52.0" y="6.0" type="curve" smooth="yes"/>
      <point x="-46.0" y="-14.0"/>
      <point x="-58.0" y="-35.0"/>
      <point x="-78.0" y="-41.0" type="curve" smooth="yes"/>
      <point x="-98.0" y="-47.0"/>
      <point x="-123.0" y="-44.0"/>
      <point x="-138.0" y="-26.0" type="curve" smooth="yes"/>
      <point x="-152.0" y="-11.0"/>
      <point x="-152.0" y="6.0"/>
      <point x="-152.0" y="16.0" type="curve" smooth="yes"/>
    </contour>
    <contour>
      <point x="-39.0" y="139.0" type="line" smooth="yes"/>
      <point x="-39.0" y="160.0"/>
      <point x="-23.0" y="177.0"/>
      <point x="-2.0" y="177.0" type="curve" smooth="yes"/>
      <point x="19.0" y="177.0"/>
      <point x="36.0" y="160.0"/>
      <point x="36.0" y="139.0" type="curve" smooth="yes"/>
      <point x="36.0" y="40.0" type="line" smooth="yes"/>
      <point x="36.0" y="6.0"/>
      <point x="9.0" y="-12.0"/>
      <point x="-9.0" y="-18.0" type="curve" smooth="yes"/>
      <point x="-75.0" y="-41.0" type="line" smooth="yes"/>
      <point x="-95.0" y="-47.0"/>
      <point x="-117.0" y="-37.0"/>
      <point x="-123.0" y="-17.0" type="curve" smooth="yes"/>
      <point x="-129.0" y="3.0"/>
      <point x="-119.0" y="25.0"/>
      <point x="-99.0" y="31.0" type="curve" smooth="yes"/>
      <point x="-39.0" y="51.0" type="line"/>
    </contour>
    <contour>
      <point x="76.0" y="181.0" type="line" smooth="yes"/>
      <point x="76.0" y="202.0"/>
      <point x="93.0" y="219.0"/>
      <point x="114.0" y="219.0" type="curve" smooth="yes"/>
      <point x="135.0" y="219.0"/>
      <point x="152.0" y="202.0"/>
      <point x="152.0" y="181.0" type="curve" smooth="yes"/>
      <point x="152.0" y="82.0" type="line" smooth="yes"/>
      <point x="152.0" y="49.0"/>
      <point x="124.0" y="30.0"/>
      <point x="106.0" y="24.0" type="curve" smooth="yes"/>
      <point x="52.0" y="4.0" type="line" smooth="yes"/>
      <point x="32.0" y="-4.0"/>
      <point x="12.0" y="8.0"/>
      <point x="4.0" y="28.0" type="curve" smooth="yes"/>
      <point x="-4.0" y="48.0"/>
      <point x="8.0" y="68.0"/>
      <point x="28.0" y="76.0" type="curve" smooth="yes"/>
      <point x="76.0" y="93.0" type="line"/>
    </contour>
  </outline>
</glyph>
<glyph name="sukun-ar" format="2">
  <unicode hex="0652"/>
  <anchor x="0" y="0" name="_markAbove"/>
  <anchor x="0" y="0" name="_markAboveDot"/>
  <outline>
    <contour>
      <point x="-144" y="97" type="curve" smooth="yes"/>
      <point x="-144" y="177"/>
      <point x="-80" y="241"/>
      <point x="0" y="241" type="curve" smooth="yes"/>
      <point x="80" y="241"/>
      <point x="144" y="177"/>
      <point x="144" y="97" type="curve" smooth="yes"/>
      <point x="144" y="17"/>
      <point x="80" y="-48"/>
      <point x="0" y="-48" type="curve" smooth="yes"/>
      <point x="-80" y="-48"/>
      <point x="-144" y="17"/>
    </contour>
    <contour>
      <point x="-69" y="97" type="curve" smooth="yes"/>
      <point x="-69" y="58"/>
      <point x="-39" y="27"/>
      <point x="0" y="27" type="curve" smooth="yes"/>
      <point x="39" y="27"/>
      <point x="69" y="58"/>
      <point x="69" y="97" type="curve" smooth="yes"/>
      <point x="69" y="136"/>
      <point x="39" y="166"/>
      <point x="0" y="166" type="curve" smooth="yes"/>
      <point x="-39" y="166"/>
      <point x="-69" y="136"/>
    </contour>
  </outline>
</glyph>
<glyph name="uni0652" format="2">
  <unicode hex="0652"/>
  <anchor x="0" y="0" name="_markAbove"/>
  <anchor x="0" y="0" name="_markAboveDot"/>
  <outline>
    <contour>
      <point x="-144.0" y="97.0" type="curve" smooth="yes"/>
      <point x="-144.0" y="177.0"/>
      <point x="-80.0" y="241.0"/>
      <point x="0.0" y="241.0" type="curve" smooth="yes"/>
      <point x="80.0" y="241.0"/>
      <point x="144.0" y="177.0"/>
      <point x="144.0" y="97.0" type="curve" smooth="yes"/>
      <point x="144.0" y="17.0"/>
      <point x="80.0" y="-48.0"/>
      <point x="0.0" y="-48.0" type="curve" smooth="yes"/>
      <point x="-80.0" y="-48.0"/>
      <point x="-144.0" y="17.0"/>
    </contour>
    <contour>
      <point x="-69.0" y="97.0" type="curve" smooth="yes"/>
      <point x="-69.0" y="58.0"/>
      <point x="-39.0" y="27.0"/>
      <point x="0.0" y="27.0" type="curve" smooth="yes"/>
      <point x="39.0" y="27.0"/>
      <point x="69.0" y="58.0"/>
      <point x="69.0" y="97.0" type="curve" smooth="yes"/>
      <point x="69.0" y="136.0"/>
      <point x="39.0" y="166.0"/>
      <point x="0.0" y="166.0" type="curve" smooth="yes"/>
      <point x="-39.0" y="166.0"/>
      <point x="-69.0" y="136.0"/>
    </contour>
  </outline>
</glyph>
<glyph name="madda-ar" format="2">
  <unicode hex="0653"/>
  <anchor x="0" y="0" name="_hamzaAbove"/>
  <outline>
    <contour>
      <point x="-89" y="0" type="line"/>
      <point x="-189" y="0" type="line"/>
      <point x="-189" y="53" type="line" smooth="yes"/>
      <point x="-189" y="102"/>
      <point x="-148" y="140"/>
      <point x="-100" y="140" type="curve" smooth="yes"/>
      <point x="139" y="140" type="line"/>
      <point x="139" y="40" type="line"/>
      <point x="-109" y="40" type="line"/>
      <point x="-102" y="47"/>
      <point x="-96" y="53"/>
      <point x="-89" y="60" type="curve"/>
    </contour>
  </outline>
</glyph>
<glyph name="uni0653" format="2">
  <unicode hex="0653"/>
  <anchor x="0" y="0" name="_hamzaAbove"/>
  <outline>
    <contour>
      <point x="-89.0" y="0.0" type="line"/>
      <point x="-189.0" y="0.0" type="line"/>
      <point x="-189.0" y="53.0" type="line" smooth="yes"/>
      <point x="-189.0" y="102.0"/>
      <point x="-148.0" y="140.0"/>
      <point x="-100.0" y="140.0" type="curve" smooth="yes"/>
      <point x="139.0" y="140.0" type="line"/>
      <point x="139.0" y="40.0" type="line"/>
      <point x="-109.0" y="40.0" type="line"/>
      <point x="-102.0" y="47.0"/>
      <point x="-96.0" y="53.0"/>
      <point x="-89.0" y="60.0" type="curve"/>
    </contour>
  </outline>
</glyph>
<glyph name="noonghunnaabove-ar" format="2">
  <unicode hex="0658"/>
  <anchor x="0" y="0" name="_markAbove"/>
  <anchor x="0" y="0" name="_markAboveDot"/>
  <outline>
    <contour>
      <point x="-144" y="97" type="curve"/>
      <point x="-144" y="146" type="line"/>
      <point x="-69" y="147" type="line"/>
      <point x="-69" y="97" type="line"/>
      <point x="-69" y="58"/>
      <point x="-39" y="27"/>
      <point x="0" y="27" type="curve" smooth="yes"/>
      <point x="39" y="27"/>
      <point x="69" y="58"/>
      <point x="69" y="97" type="curve"/>
      <point x="144" y="97" type="line"/>
      <point x="144" y="17"/>
      <point x="80" y="-48"/>
      <point x="0" y="-48" type="curve" smooth="yes"/>
      <point x="-80" y="-48"/>
      <point x="-144" y="17"/>
    </contour>
  </outline>
</glyph>
<glyph name="uni0658" format="2">
  <unicode hex="0658"/>
  <anchor x="0" y="0" name="_markAbove"/>
  <anchor x="0" y="0" name="_markAboveDot"/>
  <outline>
    <contour>
      <point x="-144.0" y="97.0" type="curve"/>
      <point x="-144.0" y="146.0" type="line"/>
      <point x="-69.0" y="147.0" type="line"/>
      <point x="-69.0" y="97.0" type="line"/>
      <point x="-69.0" y="58.0"/>
      <point x="-39.0" y="27.0"/>
      <point x="0.0" y="27.0" type="curve" smooth="yes"/>
      <point x="39.0" y="27.0"/>
      <point x="69.0" y="58.0"/>
      <point x="69.0" y="97.0" type="curve"/>
      <point x="144.0" y="97.0" type="line"/>
      <point x="144.0" y="17.0"/>
      <point x="80.0" y="-48.0"/>
      <point x="0.0" y="-48.0" type="curve" smooth="yes"/>
      <point x="-80.0" y="-48.0"/>
      <point x="-144.0" y="17.0"/>
    </contour>
  </outline>
</glyph>
<glyph name="fathaHorizont-ar" format="2">
  <unicode hex="0659"/>
  <anchor x="0" y="0" name="_markAbove"/>
  <anchor x="0" y="0" name="_markAboveDot"/>
  <outline>
    <contour>
      <point x="-142.804" y="49.863" type="curve" smooth="yes"/>
      <point x="-142.481" y="71.393"/>
      <point x="-126.304" y="86.425"/>
      <point x="-104.774" y="87.102" type="curve" smooth="yes"/>
      <point x="106.851" y="86.698" type="line" smooth="yes"/>
      <point x="128.381" y="87.375"/>
      <point x="145.096" y="72.086"/>
      <point x="144.773" y="50.548" type="curve" smooth="yes"/>
      <point x="144.451" y="29.018"/>
      <point x="128.284" y="13.459"/>
      <point x="106.744" y="13.309" type="curve" smooth="yes"/>
      <point x="-104.565" y="11.833" type="line" smooth="yes"/>
      <point x="-126.092" y="11.683"/>
      <point x="-143.127" y="28.325"/>
    </contour>
  </outline>
</glyph>
<glyph name="uni0659" format="2">
  <unicode hex="0659"/>
  <anchor x="0" y="0" name="_markAbove"/>
  <anchor x="0" y="0" name="_markAboveDot"/>
  <outline>
    <contour>
      <point x="-142.80359147077476" y="49.86338455717127" type="curve" smooth="yes"/>
      <point x="-142.48072957054865" y="71.39339811949475"/>
      <point x="-126.30370787539027" y="86.4250289586306"/>
      <point x="-104.77369431306676" y="87.10216705840448" type="curve" smooth="yes"/>
      <point x="106.85058754277715" y="86.69802723318183" type="line" smooth="yes"/>
      <point x="128.3806011051007" y="87.3751653329557"/>
      <point x="145.09639555828977" y="72.08575295485464"/>
      <point x="144.77341033066176" y="50.547515317045644" type="curve" smooth="yes"/>
      <point x="144.45054843043567" y="29.01750175472214"/>
      <point x="128.28364746294778" y="13.459114892848978"/>
      <point x="106.74351317295373" y="13.308732815812439" type="curve" smooth="yes"/>
      <point x="-104.56480896954153" y="11.833487399463273" type="line" smooth="yes"/>
      <point x="-126.09153478801875" y="11.683198933439991"/>
      <point x="-143.12657669840274" y="28.325146919362425"/>
    </contour>
  </outline>
</glyph>
<glyph name="uni065A" format="2">
  <unicode hex="065A"/>
  <anchor x="0" y="85" name="_dotAbove"/>
  <anchor x="0" y="85" name="_markAbove"/>
  <anchor x="0" y="304.0" name="markAbove"/>
  <outline>
    <contour>
      <point x="-88" y="0" type="line"/>
      <point x="88" y="0" type="line"/>
      <point x="194" y="128" type="line"/>
      <point x="130" y="188" type="line"/>
      <point x="2" y="104" type="line"/>
      <point x="-2" y="104" type="line"/>
      <point x="-130" y="188" type="line"/>
      <point x="-194" y="128" type="line"/>
    </contour>
  </outline>
</glyph>
<glyph name="vabove-ar" format="2">
  <unicode hex="065A"/>
  <anchor x="0" y="85" name="_dotAbove"/>
  <anchor x="0" y="85" name="_markAbove"/>
  <anchor x="0" y="85" name="_markAboveDot"/>
  <anchor x="0" y="304" name="markAbove"/>
  <outline>
    <contour>
      <point x="-88" y="0" type="line"/>
      <point x="88" y="0" type="line"/>
      <point x="194" y="128" type="line"/>
      <point x="130" y="188" type="line"/>
      <point x="2" y="104" type="line"/>
      <point x="-2" y="104" type="line"/>
      <point x="-130" y="188" type="line"/>
      <point x="-194" y="128" type="line"/>
    </contour>
  </outline>
</glyph>
<glyph name="uni065B" format="2">
  <unicode hex="065B"/>
  <anchor x="0" y="0" name="_dotAbove"/>
  <anchor x="0" y="0" name="_markAbove"/>
  <anchor x="0" y="304.0" name="markAbove"/>
  <outline>
    <contour>
      <point x="-194" y="60" type="line"/>
      <point x="-130" y="0" type="line"/>
      <point x="-2" y="84" type="line"/>
      <point x="2" y="84" type="line"/>
      <point x="130" y="0" type="line"/>
      <point x="194" y="60" type="line"/>
      <point x="88" y="188" type="line"/>
      <point x="-88" y="188" type="line"/>
    </contour>
  </outline>
</glyph>
<glyph name="vinvertedabove-ar" format="2">
  <unicode hex="065B"/>
  <anchor x="0" y="85" name="_dotAbove"/>
  <anchor x="0" y="85" name="_markAbove"/>
  <anchor x="0" y="85" name="_markAboveDot"/>
  <anchor x="0" y="304" name="markAbove"/>
  <outline>
    <contour>
      <point x="-194" y="60" type="line"/>
      <point x="-130" y="0" type="line"/>
      <point x="-2" y="84" type="line"/>
      <point x="2" y="84" type="line"/>
      <point x="130" y="0" type="line"/>
      <point x="194" y="60" type="line"/>
      <point x="88" y="188" type="line"/>
      <point x="-88" y="188" type="line"/>
    </contour>
  </outline>
</glyph>
<glyph name="uni0660" format="2">
  <advance width="500"/>
  <unicode hex="0660"/>
  <outline>
    <contour>
      <point x="150.0" y="329.0" type="curve" smooth="yes"/>
      <point x="150.0" y="384.0"/>
      <point x="195.0" y="429.0"/>
      <point x="250.0" y="429.0" type="curve" smooth="yes"/>
      <point x="305.0" y="429.0"/>
      <point x="350.0" y="384.0"/>
      <point x="350.0" y="329.0" type="curve" smooth="yes"/>
      <point x="350.0" y="274.0"/>
      <point x="305.0" y="229.0"/>
      <point x="250.0" y="229.0" type="curve" smooth="yes"/>
      <point x="195.0" y="229.0"/>
      <point x="150.0" y="274.0"/>
    </contour>
  </outline>
</glyph>
<glyph name="zero-ar" format="2">
  <advance width="500"/>
  <unicode hex="0660"/>
  <outline>
    <contour>
      <point x="150" y="329" type="curve" smooth="yes"/>
      <point x="150" y="384"/>
      <point x="195" y="429"/>
      <point x="250" y="429" type="curve" smooth="yes"/>
      <point x="305" y="429"/>
      <point x="350" y="384"/>
      <point x="350" y="329" type="curve" smooth="yes"/>
      <point x="350" y="274"/>
      <point x="305" y="229"/>
      <point x="250" y="229" type="curve" smooth="yes"/>
      <point x="195" y="229"/>
      <point x="150" y="274"/>
    </contour>
  </outline>
</glyph>
<glyph name="one-ar" format="2">
  <advance width="472"/>
  <unicode hex="0661"/>
  <outline>
    <contour>
      <point x="150" y="624" type="line"/>
      <point x="322" y="624" type="line"/>
      <point x="322" y="0" type="line"/>
      <point x="150" y="0" type="line"/>
    </contour>
  </outline>
</glyph>
<glyph name="uni0661" format="2">
  <advance width="472"/>
  <unicode hex="0661"/>
  <outline>
    <contour>
      <point x="150.0" y="624.0" type="line"/>
      <point x="322.0" y="624.0" type="line"/>
      <point x="322.0" y="0.0" type="line"/>
      <point x="150.0" y="0.0" type="line"/>
    </contour>
  </outline>
</glyph>
<glyph name="two-ar" format="2">
  <advance width="542"/>
  <unicode hex="0662"/>
  <outline>
    <contour>
      <point x="262" y="0" type="line"/>
      <point x="90" y="0" type="line"/>
      <point x="90" y="486" type="line" smooth="yes"/>
      <point x="90" y="562"/>
      <point x="153" y="624"/>
      <point x="229" y="624" type="curve" smooth="yes"/>
      <point x="452" y="624" type="line"/>
      <point x="452" y="452" type="line"/>
      <point x="242" y="452" type="line"/>
      <point x="249" y="459"/>
      <point x="255" y="465"/>
      <point x="262" y="472" type="curve"/>
    </contour>
  </outline>
</glyph>
<glyph name="uni0662" format="2">
  <advance width="492"/>
  <unicode hex="0662"/>
  <outline>
    <contour>
      <point x="262.0" y="0.0" type="line"/>
      <point x="90.0" y="0.0" type="line"/>
      <point x="90.0" y="486.0" type="line" smooth="yes"/>
      <point x="90.0" y="562.0"/>
      <point x="153.0" y="624.0"/>
      <point x="229.0" y="624.0" type="curve" smooth="yes"/>
      <point x="402.0" y="624.0" type="line"/>
      <point x="402.0" y="452.0" type="line"/>
      <point x="242.0" y="452.0" type="line"/>
      <point x="262.0" y="472.0" type="line"/>
    </contour>
  </outline>
</glyph>
<glyph name="three-ar" format="2">
  <advance width="780"/>
  <unicode hex="0663"/>
  <outline>
    <contour>
      <point x="90" y="624" type="line"/>
      <point x="262" y="624" type="line"/>
      <point x="262" y="0" type="line"/>
      <point x="90" y="0" type="line"/>
    </contour>
    <contour>
      <point x="304" y="624" type="line"/>
      <point x="476" y="624" type="line"/>
      <point x="476" y="441" type="line" smooth="yes"/>
      <point x="476" y="365"/>
      <point x="413" y="303"/>
      <point x="337" y="303" type="curve" smooth="yes"/>
      <point x="225" y="303" type="line"/>
      <point x="225" y="475" type="line"/>
      <point x="324" y="475" type="line"/>
      <point x="317" y="468"/>
      <point x="311" y="462"/>
      <point x="304" y="455" type="curve"/>
    </contour>
    <contour>
      <point x="518" y="624" type="line"/>
      <point x="690" y="624" type="line"/>
      <point x="690" y="441" type="line" smooth="yes"/>
      <point x="690" y="365"/>
      <point x="627" y="303"/>
      <point x="551" y="303" type="curve" smooth="yes"/>
      <point x="459" y="303" type="line"/>
      <point x="459" y="475" type="line"/>
      <point x="538" y="475" type="line"/>
      <point x="531" y="468"/>
      <point x="525" y="462"/>
      <point x="518" y="455" type="curve"/>
    </contour>
  </outline>
</glyph>
<glyph name="uni0663" format="2">
  <advance width="780"/>
  <unicode hex="0663"/>
  <outline>
    <contour>
      <point x="304.0" y="624.0" type="line"/>
      <point x="476.0" y="624.0" type="line"/>
      <point x="476.0" y="441.0" type="line" smooth="yes"/>
      <point x="476.0" y="365.0"/>
      <point x="413.0" y="303.0"/>
      <point x="337.0" y="303.0" type="curve" smooth="yes"/>
      <point x="225.0" y="303.0" type="line"/>
      <point x="225.0" y="475.0" type="line"/>
      <point x="324.0" y="475.0" type="line"/>
      <point x="304.0" y="455.0" type="line"/>
    </contour>
    <contour>
      <point x="518.0" y="624.0" type="line"/>
      <point x="690.0" y="624.0" type="line"/>
      <point x="690.0" y="441.0" type="line" smooth="yes"/>
      <point x="690.0" y="365.0"/>
      <point x="627.0" y="303.0"/>
      <point x="551.0" y="303.0" type="curve" smooth="yes"/>
      <point x="459.0" y="303.0" type="line"/>
      <point x="459.0" y="475.0" type="line"/>
      <point x="538.0" y="475.0" type="line"/>
      <point x="518.0" y="455.0" type="line"/>
    </contour>
    <contour>
      <point x="90.0" y="624.0" type="line"/>
      <point x="262.0" y="624.0" type="line"/>
      <point x="262.0" y="0.0" type="line"/>
      <point x="90.0" y="0.0" type="line"/>
    </contour>
  </outline>
</glyph>
<glyph name="four-ar" format="2">
  <advance width="578"/>
  <unicode hex="0664"/>
  <outline>
    <contour>
      <point x="327" y="711" type="line"/>
      <point x="429" y="573" type="line"/>
      <point x="301" y="479" type="line"/>
      <point x="302.4" y="486"/>
      <point x="303.6" y="492"/>
      <point x="305" y="499" type="curve"/>
      <point x="390" y="441" type="line" smooth="yes"/>
      <point x="428" y="415"/>
      <point x="439" y="360"/>
      <point x="412" y="321" type="curve" smooth="yes"/>
      <point x="294" y="152" type="line"/>
      <point x="292.25" y="159"/>
      <point x="290.75" y="165"/>
      <point x="289" y="172" type="curve"/>
      <point x="488" y="172" type="line"/>
      <point x="488" y="0" type="line"/>
      <point x="205" y="0" type="line" smooth="yes"/>
      <point x="152" y="0"/>
      <point x="90" y="47"/>
      <point x="90" y="110" type="curve" smooth="yes"/>
      <point x="90" y="172"/>
      <point x="123" y="206"/>
      <point x="137" y="226" type="curve" smooth="yes"/>
      <point x="221" y="348" type="line"/>
      <point x="164" y="387" type="line" smooth="yes"/>
      <point x="93" y="436"/>
      <point x="91" y="536"/>
      <point x="170" y="595" type="curve" smooth="yes"/>
    </contour>
  </outline>
</glyph>
<glyph name="uni0664" format="2">
  <advance width="578"/>
  <unicode hex="0664"/>
  <outline>
    <contour>
      <point x="327.0" y="711.0" type="line"/>
      <point x="429.0" y="573.0" type="line"/>
      <point x="301.0" y="479.0" type="line"/>
      <point x="302.4" y="486.0"/>
      <point x="303.6" y="492.0"/>
      <point x="305.0" y="499.0" type="curve"/>
      <point x="390.0" y="441.0" type="line" smooth="yes"/>
      <point x="428.0" y="415.0"/>
      <point x="439.0" y="360.0"/>
      <point x="412.0" y="321.0" type="curve" smooth="yes"/>
      <point x="294.0" y="152.0" type="line"/>
      <point x="292.25" y="159.0"/>
      <point x="290.75" y="165.0"/>
      <point x="289.0" y="172.0" type="curve"/>
      <point x="488.0" y="172.0" type="line"/>
      <point x="488.0" y="0.0" type="line"/>
      <point x="205.0" y="0.0" type="line" smooth="yes"/>
      <point x="152.0" y="0.0"/>
      <point x="90.0" y="47.0"/>
      <point x="90.0" y="110.0" type="curve" smooth="yes"/>
      <point x="90.0" y="172.0"/>
      <point x="123.0" y="206.0"/>
      <point x="137.0" y="226.0" type="curve" smooth="yes"/>
      <point x="221.0" y="348.0" type="line"/>
      <point x="164.0" y="387.0" type="line" smooth="yes"/>
      <point x="93.0" y="436.0"/>
      <point x="91.0" y="536.0"/>
      <point x="170.0" y="595.0" type="curve" smooth="yes"/>
    </contour>
  </outline>
</glyph>
<glyph name="five-ar" format="2">
  <advance width="725"/>
  <unicode hex="0665"/>
  <outline>
    <contour>
      <point x="466" y="654" type="curve" smooth="yes"/>
      <point x="576" y="586"/>
      <point x="635" y="417"/>
      <point x="636" y="271" type="curve" smooth="yes"/>
      <point x="637" y="135"/>
      <point x="565" y="-31"/>
      <point x="366" y="-32" type="curve" smooth="yes"/>
      <point x="193" y="-33"/>
      <point x="93" y="96"/>
      <point x="90" y="267" type="curve" smooth="yes"/>
      <point x="87" y="422"/>
      <point x="162" y="588"/>
      <point x="256" y="650" type="curve" smooth="yes"/>
      <point x="319" y="692"/>
      <point x="401" y="694"/>
    </contour>
    <contour>
      <point x="377" y="508" type="curve" smooth="yes"/>
      <point x="367" y="514"/>
      <point x="364" y="514"/>
      <point x="351" y="506" type="curve" smooth="yes"/>
      <point x="318" y="484"/>
      <point x="274" y="366"/>
      <point x="269" y="271" type="curve" smooth="yes"/>
      <point x="265" y="192"/>
      <point x="279" y="139"/>
      <point x="365" y="140" type="curve" smooth="yes"/>
      <point x="441" y="141"/>
      <point x="465" y="177"/>
      <point x="464" y="269" type="curve" smooth="yes"/>
      <point x="463" y="375"/>
      <point x="401" y="493"/>
    </contour>
  </outline>
</glyph>
<glyph name="uni0665" format="2">
  <advance width="725"/>
  <unicode hex="0665"/>
  <outline>
    <contour>
      <point x="466.0" y="654.0" type="curve" smooth="yes"/>
      <point x="576.0" y="586.0"/>
      <point x="635.0" y="417.0"/>
      <point x="636.0" y="271.0" type="curve" smooth="yes"/>
      <point x="637.0" y="135.0"/>
      <point x="565.0" y="-31.0"/>
      <point x="366.0" y="-32.0" type="curve" smooth="yes"/>
      <point x="193.0" y="-33.0"/>
      <point x="93.0" y="96.0"/>
      <point x="90.0" y="267.0" type="curve" smooth="yes"/>
      <point x="87.0" y="422.0"/>
      <point x="162.0" y="588.0"/>
      <point x="256.0" y="650.0" type="curve" smooth="yes"/>
      <point x="319.0" y="692.0"/>
      <point x="401.0" y="694.0"/>
    </contour>
    <contour>
      <point x="377.0" y="508.0" type="curve" smooth="yes"/>
      <point x="367.0" y="514.0"/>
      <point x="364.0" y="514.0"/>
      <point x="351.0" y="506.0" type="curve" smooth="yes"/>
      <point x="318.0" y="484.0"/>
      <point x="274.0" y="366.0"/>
      <point x="269.0" y="271.0" type="curve" smooth="yes"/>
      <point x="265.0" y="192.0"/>
      <point x="279.0" y="139.0"/>
      <point x="365.0" y="140.0" type="curve" smooth="yes"/>
      <point x="441.0" y="141.0"/>
      <point x="465.0" y="177.0"/>
      <point x="464.0" y="269.0" type="curve" smooth="yes"/>
      <point x="463.0" y="375.0"/>
      <point x="401.0" y="493.0"/>
    </contour>
  </outline>
</glyph>
<glyph name="six-ar" format="2">
  <advance width="586"/>
  <unicode hex="0666"/>
  <outline>
    <contour>
      <point x="90" y="451" type="line"/>
      <point x="90" y="623" type="line"/>
      <point x="357" y="623" type="line" smooth="yes"/>
      <point x="433" y="623"/>
      <point x="496" y="561"/>
      <point x="496" y="485" type="curve" smooth="yes"/>
      <point x="496" y="0" type="line"/>
      <point x="324" y="0" type="line"/>
      <point x="324" y="471" type="line"/>
      <point x="331" y="464"/>
      <point x="337" y="458"/>
      <point x="344" y="451" type="curve"/>
    </contour>
  </outline>
</glyph>
<glyph name="uni0666" format="2">
  <advance width="586"/>
  <unicode hex="0666"/>
  <outline>
    <contour>
      <point x="90.0" y="451.0" type="line"/>
      <point x="344.0" y="451.0" type="line"/>
      <point x="337.0" y="458.0"/>
      <point x="331.0" y="464.0"/>
      <point x="324.0" y="471.0" type="curve"/>
      <point x="324.0" y="0.0" type="line"/>
      <point x="496.0" y="0.0" type="line"/>
      <point x="496.0" y="485.0" type="line" smooth="yes"/>
      <point x="496.0" y="561.0"/>
      <point x="433.0" y="623.0"/>
      <point x="357.0" y="623.0" type="curve" smooth="yes"/>
      <point x="90.0" y="623.0" type="line"/>
    </contour>
  </outline>
</glyph>
<glyph name="seven-ar" format="2">
  <advance width="733"/>
  <unicode hex="0667"/>
  <outline>
    <contour>
      <point x="477" y="674" type="line"/>
      <point x="643" y="630" type="line"/>
      <point x="491" y="49" type="line" smooth="yes"/>
      <point x="479" y="3"/>
      <point x="437" y="-27"/>
      <point x="387" y="-28" type="curve" smooth="yes"/>
      <point x="338" y="-29"/>
      <point x="293" y="-9"/>
      <point x="276" y="45" type="curve" smooth="yes"/>
      <point x="90" y="626" type="line"/>
      <point x="254" y="678" type="line"/>
      <point x="392" y="247" type="line"/>
      <point x="382.55" y="247"/>
      <point x="374.45" y="247"/>
      <point x="365" y="247" type="curve"/>
    </contour>
  </outline>
</glyph>
<glyph name="uni0667" format="2">
  <advance width="733"/>
  <unicode hex="0667"/>
  <outline>
    <contour>
      <point x="477.0" y="674.0" type="line"/>
      <point x="643.0" y="630.0" type="line"/>
      <point x="491.0" y="49.0" type="line" smooth="yes"/>
      <point x="479.0" y="3.0"/>
      <point x="437.0" y="-27.0"/>
      <point x="387.0" y="-28.0" type="curve" smooth="yes"/>
      <point x="338.0" y="-29.0"/>
      <point x="293.0" y="-9.0"/>
      <point x="276.0" y="45.0" type="curve" smooth="yes"/>
      <point x="90.0" y="626.0" type="line"/>
      <point x="254.0" y="678.0" type="line"/>
      <point x="392.0" y="247.0" type="line"/>
      <point x="382.55" y="247.0"/>
      <point x="374.45" y="247.0"/>
      <point x="365.0" y="247.0" type="curve"/>
    </contour>
  </outline>
</glyph>
<glyph name="nine-ar" format="2">
  <advance width="633"/>
  <unicode hex="0669"/>
  <outline>
    <contour>
      <point x="441" y="236" type="line"/>
      <point x="338" y="226"/>
      <point x="201" y="210"/>
      <point x="126" y="328" type="curve" smooth="yes"/>
      <point x="51" y="445"/>
      <point x="103" y="583"/>
      <point x="197" y="637" type="curve"/>
      <point x="282" y="692"/>
      <point x="435" y="690"/>
      <point x="510" y="573" type="curve" smooth="yes"/>
      <point x="531" y="539"/>
      <point x="543" y="499"/>
      <point x="543" y="455" type="curve" smooth="yes"/>
      <point x="543" y="0" type="line"/>
      <point x="371" y="0" type="line"/>
      <point x="371" y="455" type="line" smooth="yes"/>
      <point x="371" y="471"/>
      <point x="356.815" y="488.781"/>
      <point x="345.235" y="494.088" type="curve" smooth="yes"/>
      <point x="326.256" y="502.787"/>
      <point x="298.431" y="506.634"/>
      <point x="278.166" y="486.368" type="curve" smooth="yes"/>
      <point x="266" y="474.203"/>
      <point x="252.593" y="445.838"/>
      <point x="271" y="420" type="curve" smooth="yes"/>
      <point x="285.602" y="399.503"/>
      <point x="311.459" y="397.587"/>
      <point x="441" y="408" type="curve"/>
    </contour>
  </outline>
</glyph>
<glyph name="uni0669" format="2">
  <advance width="633"/>
  <unicode hex="0669"/>
  <outline>
    <contour>
      <point x="441.0" y="236.0" type="line"/>
      <point x="338.0" y="226.0"/>
      <point x="201.0" y="210.0"/>
      <point x="126.0" y="328.0" type="curve" smooth="yes"/>
      <point x="51.0" y="445.0"/>
      <point x="103.0" y="583.0"/>
      <point x="197.0" y="637.0" type="curve"/>
      <point x="282.0" y="692.0"/>
      <point x="435.0" y="690.0"/>
      <point x="510.0" y="573.0" type="curve" smooth="yes"/>
      <point x="531.0" y="539.0"/>
      <point x="543.0" y="499.0"/>
      <point x="543.0" y="455.0" type="curve" smooth="yes"/>
      <point x="543.0" y="0.0" type="line"/>
      <point x="371.0" y="0.0" type="line"/>
      <point x="371.0" y="455.0" type="line" smooth="yes"/>
      <point x="371.0" y="471.0"/>
      <point x="356.81480697039365" y="488.7808763856249"/>
      <point x="345.23459524660643" y="494.088473425694" type="curve" smooth="yes"/>
      <point x="326.2564820398693" y="502.7867753121157"/>
      <point x="298.43123952963356" y="506.63370279312994"/>
      <point x="278.16586901300593" y="486.36833227650254" type="curve" smooth="yes"/>
      <point x="266.00034395240925" y="474.20280721590564"/>
      <point x="252.5929014563094" y="445.8375912432475"/>
      <point x="271.0" y="420.0" type="curve" smooth="yes"/>
      <point x="285.602388558089" y="399.50298653296863"/>
      <point x="311.45897771889395" y="397.586709060801"/>
      <point x="441.0" y="408.0" type="curve"/>
    </contour>
  </outline>
</glyph>
<glyph name="percent-ar" format="2">
  <advance width="598"/>
  <unicode hex="066A"/>
  <outline>
    <contour>
      <point x="58" y="-12" type="line"/>
      <point x="406" y="662" type="line"/>
      <point x="542" y="662" type="line"/>
      <point x="194" y="-12" type="line"/>
    </contour>
    <component base="zero-ar" xOffset="-128" yOffset="233"/>
    <component base="zero-ar" xOffset="226" yOffset="-240"/>
  </outline>
</glyph>
<glyph name="uni066A" format="2">
  <advance width="598"/>
  <unicode hex="066A"/>
  <outline>
    <contour>
      <point x="58.0" y="-12.0" type="line"/>
      <point x="406.0" y="662.0" type="line"/>
      <point x="542.0" y="662.0" type="line"/>
      <point x="194.0" y="-12.0" type="line"/>
    </contour>
    <component base="uni0660" xOffset="-128.0" yOffset="233.0"/>
    <component base="uni0660" xOffset="226.0" yOffset="-240.0"/>
  </outline>
</glyph>
<glyph name="decimalseparator-ar" format="2">
  <advance width="365"/>
  <unicode hex="066B"/>
  <outline>
    <contour>
      <point x="176" y="132" type="line"/>
      <point x="305" y="132" type="line"/>
      <point x="305" y="-37" type="line" smooth="yes"/>
      <point x="305" y="-130"/>
      <point x="236" y="-211"/>
      <point x="137" y="-211" type="curve" smooth="yes"/>
      <point x="60" y="-211" type="line"/>
      <point x="60" y="-82" type="line"/>
      <point x="137" y="-82" type="line" smooth="yes"/>
      <point x="158" y="-82"/>
      <point x="176" y="-67"/>
      <point x="176" y="-37" type="curve" smooth="yes"/>
    </contour>
  </outline>
</glyph>
<glyph name="uni066B" format="2">
  <advance width="365.0"/>
  <unicode hex="066B"/>
  <outline>
    <contour>
      <point x="176.0" y="132.0" type="line"/>
      <point x="305.0" y="132.0" type="line"/>
      <point x="305.0" y="-37.0" type="line" smooth="yes"/>
      <point x="305.0" y="-130.0"/>
      <point x="236.0" y="-211.0"/>
      <point x="137.0" y="-211.0" type="curve" smooth="yes"/>
      <point x="60.0" y="-211.0" type="line"/>
      <point x="60.0" y="-82.0" type="line"/>
      <point x="137.0" y="-82.0" type="line" smooth="yes"/>
      <point x="158.0" y="-82.0"/>
      <point x="176.0" y="-67.0"/>
      <point x="176.0" y="-37.0" type="curve" smooth="yes"/>
    </contour>
  </outline>
</glyph>
<glyph name="behDotless-ar" format="2">
  <advance width="854"/>
  <unicode hex="066E"/>
  <anchor x="427" y="453" name="dotAbove"/>
  <anchor x="447" y="-160" name="dotBelow"/>
  <anchor x="427" y="453" name="hamzaAbove"/>
  <anchor x="447" y="-160" name="hamzaBelow"/>
  <anchor x="427" y="497" name="markAbove"/>
  <anchor x="447" y="-195" name="markBelow"/>
  <anchor x="447" y="0" name="ringBelow"/>
  <outline>
    <contour>
      <point x="622" y="333" type="line"/>
      <point x="794" y="333" type="line"/>
      <point x="794" y="138" type="line" smooth="yes"/>
      <point x="794" y="61"/>
      <point x="733" y="0"/>
      <point x="656" y="0" type="curve" smooth="yes"/>
      <point x="264" y="0" type="line" smooth="yes"/>
      <point x="162" y="0"/>
      <point x="60" y="77"/>
      <point x="60" y="193" type="curve" smooth="yes"/>
      <point x="60" y="333" type="line"/>
      <point x="232" y="333" type="line"/>
      <point x="232" y="193" type="line" smooth="yes"/>
      <point x="232" y="189"/>
      <point x="240" y="172"/>
      <point x="264" y="172" type="curve" smooth="yes"/>
      <point x="642" y="172" type="line"/>
      <point x="635" y="165"/>
      <point x="629" y="159"/>
      <point x="622" y="152" type="curve"/>
    </contour>
  </outline>
</glyph>
<glyph name="qafDotless-ar" format="2">
  <advance width="868"/>
  <unicode hex="066F"/>
  <anchor x="579" y="560" name="dotAbove"/>
  <anchor x="429" y="-338" name="dotBelow"/>
  <anchor x="579" y="608" name="markAbove"/>
  <anchor x="429" y="-373" name="markBelow"/>
  <outline>
    <contour>
      <point x="676" y="21" type="line"/>
      <point x="576" y="16"/>
      <point x="454" y="1"/>
      <point x="390" y="107" type="curve" smooth="yes"/>
      <point x="320" y="222"/>
      <point x="379" y="350"/>
      <point x="461" y="404" type="curve" smooth="yes"/>
      <point x="551" y="462"/>
      <point x="703" y="458"/>
      <point x="776" y="342" type="curve" smooth="yes"/>
      <point x="797" y="309"/>
      <point x="808" y="268"/>
      <point x="808" y="225" type="curve" smooth="yes"/>
      <point x="808" y="-59" type="line" smooth="yes"/>
      <point x="808" y="-136"/>
      <point x="745" y="-199"/>
      <point x="667" y="-199" type="curve" smooth="yes"/>
      <point x="245" y="-199" type="line" smooth="yes"/>
      <point x="148" y="-199"/>
      <point x="60" y="-126"/>
      <point x="60" y="-19" type="curve" smooth="yes"/>
      <point x="60" y="223" type="line"/>
      <point x="232" y="223" type="line"/>
      <point x="232" y="-47" type="line"/>
      <point x="225" y="-40"/>
      <point x="219" y="-34"/>
      <point x="212" y="-27" type="curve"/>
      <point x="656" y="-27" type="line"/>
      <point x="649" y="-34"/>
      <point x="643" y="-40"/>
      <point x="636" y="-47" type="curve"/>
      <point x="636" y="215" type="line" smooth="yes"/>
      <point x="636" y="247"/>
      <point x="621" y="261"/>
      <point x="602" y="267" type="curve" smooth="yes"/>
      <point x="582" y="274"/>
      <point x="560" y="267"/>
      <point x="547" y="253" type="curve" smooth="yes"/>
      <point x="530" y="234"/>
      <point x="529" y="210"/>
      <point x="538" y="195" type="curve" smooth="yes"/>
      <point x="552" y="171"/>
      <point x="569" y="147"/>
      <point x="676" y="158" type="curve"/>
    </contour>
  </outline>
</glyph>
<glyph name="alefabove-ar" format="2">
  <unicode hex="0670"/>
  <anchor x="0" y="0" name="_markAbove"/>
  <anchor x="0" y="0" name="_markAboveDot"/>
  <outline>
    <contour>
      <point x="-64" y="-10" type="curve"/>
      <point x="-64" y="244" type="line"/>
      <point x="65" y="244" type="line"/>
      <point x="65" y="98" type="line" smooth="yes"/>
      <point x="65" y="21"/>
      <point x="-12" y="-10"/>
    </contour>
  </outline>
</glyph>
<glyph name="uni0670" format="2">
  <unicode hex="0670"/>
  <anchor x="0" y="0" name="_markAbove"/>
  <anchor x="0" y="0" name="_markAboveDot"/>
  <outline>
    <contour>
      <point x="-47.0" y="-10.0" type="curve"/>
      <point x="-47.0" y="194.0" type="line"/>
      <point x="47.0" y="194.0" type="line"/>
      <point x="47.0" y="78.0" type="line" smooth="yes"/>
      <point x="47.0" y="23.0"/>
      <point x="5.0" y="-10.0"/>
    </contour>
  </outline>
</glyph>
<glyph name="dalFourdots-ar" format="2">
  <advance width="1000"/>
  <unicode hex="0690"/>
  <outline>
    <contour>
      <point x="0" y="-200" type="line"/>
      <point x="0" y="800" type="line"/>
      <point x="1000" y="800" type="line"/>
      <point x="1000" y="-200" type="line"/>
    </contour>
  </outline>
</glyph>
<glyph name="fehDotless-ar" format="2">
  <advance width="938"/>
  <unicode hex="06A1"/>
  <anchor x="499" y="-140" name="center"/>
  <anchor x="649" y="758" name="dotAbove"/>
  <anchor x="658" y="-140" name="dotBelow"/>
  <anchor x="649" y="806" name="markAbove"/>
  <anchor x="499" y="-175" name="markBelow"/>
  <outline>
    <contour>
      <point x="746" y="220" type="line"/>
      <point x="646" y="215"/>
      <point x="524" y="200"/>
      <point x="460" y="306" type="curve" smooth="yes"/>
      <point x="390" y="421"/>
      <point x="449" y="549"/>
      <point x="531" y="603" type="curve" smooth="yes"/>
      <point x="621" y="661"/>
      <point x="773" y="657"/>
      <point x="846" y="541" type="curve" smooth="yes"/>
      <point x="867" y="508"/>
      <point x="878" y="467"/>
      <point x="878" y="424" type="curve" smooth="yes"/>
      <point x="878" y="140" type="line" smooth="yes"/>
      <point x="878" y="63"/>
      <point x="815" y="0"/>
      <point x="737" y="0" type="curve" smooth="yes"/>
      <point x="245" y="0" type="line" smooth="yes"/>
      <point x="148" y="0"/>
      <point x="60" y="73"/>
      <point x="60" y="180" type="curve" smooth="yes"/>
      <point x="60" y="332" type="line"/>
      <point x="232" y="332" type="line"/>
      <point x="232" y="152" type="line"/>
      <point x="225" y="159"/>
      <point x="219" y="165"/>
      <point x="212" y="172" type="curve"/>
      <point x="726" y="172" type="line"/>
      <point x="719" y="165"/>
      <point x="713" y="159"/>
      <point x="706" y="152" type="curve"/>
      <point x="706" y="414" type="line" smooth="yes"/>
      <point x="706" y="446"/>
      <point x="691" y="460"/>
      <point x="672" y="466" type="curve" smooth="yes"/>
      <point x="652" y="473"/>
      <point x="630" y="466"/>
      <point x="617" y="452" type="curve" smooth="yes"/>
      <point x="600" y="433"/>
      <point x="599" y="409"/>
      <point x="608" y="394" type="curve" smooth="yes"/>
      <point x="622" y="370"/>
      <point x="639" y="346"/>
      <point x="746" y="357" type="curve"/>
    </contour>
  </outline>
</glyph>
<glyph name="keheh-ar" format="2">
  <advance width="861"/>
  <unicode hex="06A9"/>
  <anchor x="293" y="750" name="dotAbove"/>
  <anchor x="423" y="-149" name="dotBelow"/>
  <anchor x="575" y="768" name="gafAbove"/>
  <anchor x="293" y="798" name="markAbove"/>
  <anchor x="423" y="-174" name="markBelow"/>
  <anchor x="645" y="538" name="ringBelow"/>
  <outline>
    <contour>
      <point x="222" y="172" type="line"/>
      <point x="366" y="0" type="line"/>
      <point x="204" y="0" type="line"/>
      <point x="60" y="172" type="line"/>
    </contour>
    <component base="kaf-ar.medi" xOffset="204"/>
  </outline>
</glyph>
<glyph name="kafswash-ar" format="2">
  <advance width="1178.43372"/>
  <unicode hex="06AA"/>
  <outline>
    <contour>
      <point x="222" y="172" type="line"/>
      <point x="366" y="0" type="line"/>
      <point x="204" y="0" type="line"/>
      <point x="60" y="172" type="line"/>
    </contour>
    <component base="kafswash-ar.init" xOffset="204"/>
  </outline>
</glyph>
<glyph name="noonghunna-ar" format="2">
  <advance width="656"/>
  <unicode hex="06BA"/>
  <anchor x="328" y="382" name="dotAbove"/>
  <anchor x="328" y="-297" name="dotBelow"/>
  <anchor x="328" y="426" name="markAbove"/>
  <anchor x="328" y="-332" name="markBelow"/>
  <anchor x="328" y="-187" name="ringBelow"/>
  <outline>
    <contour>
      <point x="424" y="222" type="line"/>
      <point x="596" y="222" type="line"/>
      <point x="596" y="-49" type="line" smooth="yes"/>
      <point x="596" y="-125"/>
      <point x="536" y="-187"/>
      <point x="459" y="-187" type="curve" smooth="yes"/>
      <point x="320" y="-187" type="line" smooth="yes"/>
      <point x="192" y="-187"/>
      <point x="60" y="-114"/>
      <point x="60" y="31" type="curve" smooth="yes"/>
      <point x="60" y="221" type="line"/>
      <point x="232" y="221" type="line"/>
      <point x="232" y="32" type="line" smooth="yes"/>
      <point x="232" y="5"/>
      <point x="259" y="-15"/>
      <point x="320" y="-15" type="curve" smooth="yes"/>
      <point x="464" y="-15" type="line"/>
      <point x="450" y="-25.5"/>
      <point x="438" y="-34.5"/>
      <point x="424" y="-45" type="curve"/>
    </contour>
  </outline>
</glyph>
<glyph name="fullstop-ar" format="2">
  <advance width="496"/>
  <unicode hex="06D4"/>
  <outline>
    <contour>
      <point x="204" y="172" type="line"/>
      <point x="436" y="172" type="line"/>
      <point x="292" y="0" type="line"/>
      <point x="60" y="0" type="line"/>
    </contour>
  </outline>
</glyph>
<glyph name="uni06D4" format="2">
  <advance width="496"/>
  <unicode hex="06D4"/>
  <outline>
    <contour>
      <point x="204.0" y="172.0" type="line"/>
      <point x="436.0" y="172.0" type="line"/>
      <point x="292.0" y="0.0" type="line"/>
      <point x="60.0" y="0.0" type="line"/>
    </contour>
  </outline>
</glyph>
<glyph name="four-persian" format="2">
  <advance width="780"/>
  <unicode hex="06F4"/>
  <outline>
    <contour>
      <point x="541" y="393" type="line"/>
      <point x="369" y="393" type="line"/>
      <point x="369" y="576" type="line" smooth="yes"/>
      <point x="369" y="652"/>
      <point x="432" y="714"/>
      <point x="508" y="714" type="curve" smooth="yes"/>
      <point x="640" y="714" type="line"/>
      <point x="640" y="542" type="line"/>
      <point x="521" y="542" type="line"/>
      <point x="528" y="549"/>
      <point x="534" y="555"/>
      <point x="541" y="562" type="curve"/>
    </contour>
    <contour>
      <point x="90" y="624" type="line"/>
      <point x="262" y="624" type="line"/>
      <point x="262" y="0" type="line"/>
      <point x="90" y="0" type="line"/>
    </contour>
    <contour>
      <point x="690" y="303" type="line"/>
      <point x="225" y="303" type="line"/>
      <point x="225" y="475" type="line"/>
      <point x="690" y="475" type="line"/>
    </contour>
  </outline>
</glyph>
<glyph name="uni06F4" format="2">
  <advance width="780"/>
  <unicode hex="06F4"/>
  <outline>
    <contour>
      <point x="541.0" y="393.0" type="line"/>
      <point x="369.0" y="393.0" type="line"/>
      <point x="369.0" y="576.0" type="line" smooth="yes"/>
      <point x="369.0" y="652.0"/>
      <point x="432.0" y="714.0"/>
      <point x="508.0" y="714.0" type="curve" smooth="yes"/>
      <point x="640.0" y="714.0" type="line"/>
      <point x="640.0" y="542.0" type="line"/>
      <point x="521.0" y="542.0" type="line"/>
      <point x="528.0" y="549.0"/>
      <point x="534.0" y="555.0"/>
      <point x="541.0" y="562.0" type="curve"/>
    </contour>
    <contour>
      <point x="90.0" y="624.0" type="line"/>
      <point x="262.0" y="624.0" type="line"/>
      <point x="262.0" y="0.0" type="line"/>
      <point x="90.0" y="0.0" type="line"/>
    </contour>
    <contour>
      <point x="690.0" y="303.0" type="line"/>
      <point x="225.0" y="303.0" type="line"/>
      <point x="225.0" y="475.0" type="line"/>
      <point x="690.0" y="475.0" type="line"/>
    </contour>
  </outline>
</glyph>
<glyph name="five-persian" format="2">
  <advance width="725"/>
  <unicode hex="06F5"/>
  <outline>
    <contour>
      <point x="466" y="654" type="curve" smooth="yes"/>
      <point x="576" y="586"/>
      <point x="635" y="417"/>
      <point x="636" y="271" type="curve" smooth="yes"/>
      <point x="636.807" y="161.183"/>
      <point x="590.019" y="-6.043"/>
      <point x="467.2" y="-5.472" type="curve" smooth="yes"/>
      <point x="423.915" y="-5.272"/>
      <point x="402.312" y="5.09"/>
      <point x="366" y="28" type="curve"/>
      <point x="325.947" y="2.302"/>
      <point x="296.852" y="-6.045"/>
      <point x="257.879" y="-6.161" type="curve" smooth="yes"/>
      <point x="151.895" y="-6.476"/>
      <point x="92.305" y="135.59"/>
      <point x="90" y="267" type="curve" smooth="yes"/>
      <point x="87" y="422"/>
      <point x="162" y="588"/>
      <point x="256" y="650" type="curve" smooth="yes"/>
      <point x="319" y="692"/>
      <point x="401" y="694"/>
    </contour>
    <contour>
      <point x="377" y="508" type="curve" smooth="yes"/>
      <point x="367" y="514"/>
      <point x="364" y="514"/>
      <point x="351" y="506" type="curve" smooth="yes"/>
      <point x="318" y="484"/>
      <point x="274" y="366"/>
      <point x="269" y="271" type="curve" smooth="yes"/>
      <point x="266.544" y="222.488"/>
      <point x="270.875" y="168.697"/>
      <point x="294.498" y="157.791" type="curve" smooth="yes"/>
      <point x="309.344" y="150.937"/>
      <point x="331.81" y="161.022"/>
      <point x="365" y="200" type="curve"/>
      <point x="391.514" y="165.462"/>
      <point x="411.699" y="152.223"/>
      <point x="426.702" y="153.532" type="curve" smooth="yes"/>
      <point x="454.703" y="155.975"/>
      <point x="464.651" y="209.096"/>
      <point x="464" y="269" type="curve" smooth="yes"/>
      <point x="463" y="375"/>
      <point x="401" y="493"/>
    </contour>
  </outline>
</glyph>
<glyph name="uni06F5" format="2">
  <advance width="725"/>
  <unicode hex="06F5"/>
  <outline>
    <contour>
      <point x="466.0" y="654.0" type="curve" smooth="yes"/>
      <point x="576.0" y="586.0"/>
      <point x="635.0" y="417.0"/>
      <point x="636.0" y="271.0" type="curve" smooth="yes"/>
      <point x="636.807476" y="161.183264"/>
      <point x="590.0192424755942" y="-6.042527778615803"/>
      <point x="467.2002199019573" y="-5.472443734669412" type="curve" smooth="yes"/>
      <point x="423.91462852639717" y="-5.2715267719798895"/>
      <point x="402.312276" y="5.089644000000013"/>
      <point x="366.0" y="28.0" type="curve"/>
      <point x="325.947386" y="2.3015019999999993"/>
      <point x="296.8521944975769" y="-6.045064960669427"/>
      <point x="257.87851396891256" y="-6.161016662414106" type="curve" smooth="yes"/>
      <point x="151.89542882274816" y="-6.476329943381033"/>
      <point x="92.30544599999999" y="135.589578"/>
      <point x="90.0" y="267.0" type="curve" smooth="yes"/>
      <point x="87.0" y="422.0"/>
      <point x="162.0" y="588.0"/>
      <point x="256.0" y="650.0" type="curve" smooth="yes"/>
      <point x="319.0" y="692.0"/>
      <point x="401.0" y="694.0"/>
    </contour>
    <contour>
      <point x="377.0" y="508.0" type="curve" smooth="yes"/>
      <point x="367.0" y="514.0"/>
      <point x="364.0" y="514.0"/>
      <point x="351.0" y="506.0" type="curve" smooth="yes"/>
      <point x="318.0" y="484.0"/>
      <point x="274.0" y="366.0"/>
      <point x="269.0" y="271.0" type="curve" smooth="yes"/>
      <point x="266.5437" y="222.488075"/>
      <point x="270.87498590125" y="168.69691652125002"/>
      <point x="294.4981181406803" y="157.79108328377774" type="curve" smooth="yes"/>
      <point x="309.344443605" y="150.93714249125003"/>
      <point x="331.81045" y="161.02157500000004"/>
      <point x="365.0" y="200.0" type="curve"/>
      <point x="391.513968" y="165.462068"/>
      <point x="411.69907416595197" y="152.2231902492"/>
      <point x="426.70174751706094" y="153.53217363450415" type="curve" smooth="yes"/>
      <point x="454.7029419644" y="155.975278102784"/>
      <point x="464.651132" y="209.095856"/>
      <point x="464.0" y="269.0" type="curve" smooth="yes"/>
      <point x="463.0" y="375.0"/>
      <point x="401.0" y="493.0"/>
    </contour>
  </outline>
</glyph>
<glyph name="six-persian" format="2">
  <advance width="578"/>
  <unicode hex="06F6"/>
  <outline>
    <contour>
      <point x="550.087" y="315.88" type="line"/>
      <point x="201.533" y="-2.165" type="line"/>
      <point x="150.339" y="11.552"/>
      <point x="102.616" y="72.997"/>
      <point x="118.922" y="133.851" type="curve" smooth="yes"/>
      <point x="134.968" y="193.738"/>
      <point x="176.251" y="217.343"/>
      <point x="194.343" y="233.734" type="curve" smooth="yes"/>
      <point x="423.527" y="443.559" type="line"/>
    </contour>
    <contour>
      <point x="479.632" y="624.016" type="curve"/>
      <point x="413.632" y="464.016" type="line"/>
      <point x="397.632" y="471.016"/>
      <point x="385.632" y="475.016"/>
      <point x="375.632" y="478.016" type="curve" smooth="yes"/>
      <point x="351.632" y="485.016"/>
      <point x="334.632" y="486.016"/>
      <point x="323.632" y="485.016" type="curve"/>
      <point x="328.632" y="468.016"/>
      <point x="345.632" y="438.016"/>
      <point x="380.632" y="400.016" type="curve"/>
      <point x="254.632" y="284.016" type="line"/>
      <point x="166.632" y="380.016"/>
      <point x="102.632" y="507.016"/>
      <point x="189.632" y="602.016" type="curve" smooth="yes"/>
      <point x="247.632" y="665.016"/>
      <point x="340.632" y="667.016"/>
      <point x="421.632" y="644.016" type="curve" smooth="yes"/>
      <point x="441.632" y="639.016"/>
      <point x="461.632" y="632.016"/>
    </contour>
  </outline>
</glyph>
<glyph name="uni06F6" format="2">
  <advance width="578"/>
  <unicode hex="06F6"/>
  <outline>
    <contour>
      <point x="550.0872173673943" y="315.8800824107935" type="line"/>
      <point x="201.53289814286427" y="-2.16541769958193" type="line"/>
      <point x="150.33882934954363" y="11.551991690851672"/>
      <point x="102.6159232394399" y="72.99728632279417"/>
      <point x="118.9215230808987" y="133.8506133790055" type="curve" smooth="yes"/>
      <point x="134.96830387725498" y="193.7380146089277"/>
      <point x="176.25062952981202" y="217.3425269237319"/>
      <point x="194.3430461483773" y="233.73351410871896" type="curve" smooth="yes"/>
      <point x="423.5267597047837" y="443.55885220780624" type="line"/>
    </contour>
    <contour>
      <point x="479.6315854296581" y="624.0157350695124" type="curve"/>
      <point x="413.6315854296581" y="464.0157350695124" type="line"/>
      <point x="397.6315854296581" y="471.0157350695124"/>
      <point x="385.6315854296581" y="475.0157350695124"/>
      <point x="375.6315854296581" y="478.0157350695124" type="curve" smooth="yes"/>
      <point x="351.6315854296581" y="485.0157350695124"/>
      <point x="334.6315854296581" y="486.0157350695124"/>
      <point x="323.6315854296581" y="485.0157350695124" type="curve"/>
      <point x="328.6315854296581" y="468.0157350695124"/>
      <point x="345.6315854296581" y="438.0157350695124"/>
      <point x="380.6315854296581" y="400.0157350695124" type="curve"/>
      <point x="254.63158542965812" y="284.0157350695124" type="line"/>
      <point x="166.63158542965812" y="380.0157350695124"/>
      <point x="102.63158542965812" y="507.0157350695124"/>
      <point x="189.63158542965812" y="602.0157350695124" type="curve" smooth="yes"/>
      <point x="247.63158542965812" y="665.0157350695124"/>
      <point x="340.6315854296581" y="667.0157350695124"/>
      <point x="421.6315854296581" y="644.0157350695124" type="curve" smooth="yes"/>
      <point x="441.6315854296581" y="639.0157350695124"/>
      <point x="461.6315854296581" y="632.0157350695124"/>
    </contour>
  </outline>
</glyph>
<glyph name="_sad-ar.head" format="2">
  <anchor x="0" y="507" name="dotAbove"/>
  <anchor x="0" y="-200" name="dotBelow"/>
  <anchor x="0" y="555" name="markAbove"/>
  <anchor x="0" y="-235" name="markBelow"/>
  <outline>
    <contour>
      <point x="-256" y="172" type="line"/>
      <point x="-173" y="288"/>
      <point x="-46" y="506"/>
      <point x="152" y="433" type="curve" smooth="yes"/>
      <point x="245" y="394"/>
      <point x="281" y="304"/>
      <point x="283" y="207" type="curve" smooth="yes"/>
      <point x="285" y="141" type="line" smooth="yes"/>
      <point x="288" y="63"/>
      <point x="223" y="0"/>
      <point x="146" y="0" type="curve" smooth="yes"/>
      <point x="-286" y="0" type="line"/>
      <point x="-286" y="172" type="line"/>
      <point x="132" y="172" type="line"/>
      <point x="125" y="165"/>
      <point x="119" y="159"/>
      <point x="112" y="152" type="curve"/>
      <point x="113" y="203" type="line"/>
      <point x="111" y="268"/>
      <point x="97" y="269"/>
      <point x="89" y="273" type="curve" smooth="yes"/>
      <point x="46" y="287"/>
      <point x="-48" y="174"/>
      <point x="-122" y="62" type="curve"/>
    </contour>
  </outline>
</glyph>
<glyph name="ain-ar.init" format="2">
  <advance width="548"/>
  <anchor x="237" y="617" name="dotAbove"/>
  <anchor x="274" y="-150" name="dotBelow"/>
  <anchor x="237" y="661" name="markAbove"/>
  <anchor x="274" y="-185" name="markBelow"/>
  <outline>
    <contour>
      <point x="0" y="0" type="line"/>
      <point x="0" y="172" type="line"/>
      <point x="488" y="172" type="line"/>
      <point x="488" y="0" type="line"/>
      <point x="375.863" y="0" type="line"/>
      <point x="328.578" y="0"/>
      <point x="321.424" y="16.232"/>
      <point x="284.49" y="16" type="curve" smooth="yes"/>
      <point x="247.181" y="15.766"/>
      <point x="239" y="0"/>
      <point x="192.05" y="0" type="curve"/>
    </contour>
    <contour>
      <point x="463" y="462" type="curve"/>
      <point x="413" y="298" type="line"/>
      <point x="318" y="327"/>
      <point x="258" y="319"/>
      <point x="242" y="312" type="curve"/>
      <point x="244" y="296"/>
      <point x="273" y="237"/>
      <point x="344" y="172" type="curve"/>
      <point x="223" y="54" type="line"/>
      <point x="104" y="164"/>
      <point x="6" y="313"/>
      <point x="113" y="428" type="curve" smooth="yes"/>
      <point x="193" y="514"/>
      <point x="327" y="503"/>
    </contour>
  </outline>
</glyph>
<glyph name="alef-ar.fina.1" format="2">
  <advance width="270"/>
  <anchor x="120" y="738" name="dotAbove"/>
  <anchor x="100" y="-99" name="dotBelow"/>
  <anchor x="120" y="738" name="hamzaAbove"/>
  <anchor x="100" y="-99" name="hamzaBelow"/>
  <anchor x="120" y="738" name="kafAbove"/>
  <anchor x="120" y="786" name="markAbove"/>
  <anchor x="100" y="-134" name="markBelow"/>
  <outline>
    <contour>
      <point x="83" y="640" type="line"/>
      <point x="199.075" y="241.022" type="line"/>
      <point x="185.677" y="176.236"/>
      <point x="139.909" y="151.132"/>
      <point x="84" y="124" type="curve"/>
      <point x="194" y="124" type="line"/>
      <point x="280.529" y="147.26"/>
      <point x="343.685" y="189.566"/>
      <point x="360.914" y="270.247" type="curve" smooth="yes"/>
      <point x="362.203" y="276.281"/>
      <point x="364" y="295"/>
      <point x="358.322" y="308.529" type="curve"/>
      <point x="248" y="688" type="line"/>
    </contour>
  </outline>
</glyph>
<glyph name="alef-ar.fina.1.short" format="2">
  <advance width="270.2394"/>
  <anchor x="206" y="412" name="hamzaAbove"/>
  <anchor x="100" y="-134" name="markBelow"/>
  <outline>
    <contour>
      <point x="148" y="416" type="line"/>
      <point x="311" y="470" type="line"/>
      <point x="358" y="309" type="line"/>
      <point x="364" y="295"/>
      <point x="362" y="276"/>
      <point x="361" y="270" type="curve" smooth="yes"/>
      <point x="344" y="190"/>
      <point x="281" y="147"/>
      <point x="194" y="124" type="curve"/>
      <point x="84" y="124" type="line"/>
      <point x="140" y="151"/>
      <point x="186" y="176"/>
      <point x="199" y="241" type="curve"/>
    </contour>
  </outline>
</glyph>
<glyph name="alef-ar.fina.short" format="2">
  <advance width="360"/>
  <anchor x="136" y="412" name="hamzaAbove"/>
  <anchor x="186" y="-74" name="markBelow"/>
  <outline>
    <contour>
      <point x="232" y="412" type="line"/>
      <point x="232" y="152.185" type="line"/>
      <point x="225" y="159.12"/>
      <point x="219" y="165.065"/>
      <point x="212" y="172" type="curve"/>
      <point x="380" y="172" type="line"/>
      <point x="380" y="0" type="line"/>
      <point x="199" y="0" type="line" smooth="yes"/>
      <point x="123" y="0"/>
      <point x="60" y="62"/>
      <point x="60" y="138" type="curve" smooth="yes"/>
      <point x="60" y="412" type="line"/>
    </contour>
  </outline>
</glyph>
<glyph name="alef-ar.isol" format="2">
  <advance width="292"/>
  <anchor x="136" y="684" name="dotAbove"/>
  <anchor x="136" y="-49" name="dotBelow"/>
  <anchor x="136" y="684" name="hamzaAbove"/>
  <anchor x="136" y="-49" name="hamzaBelow"/>
  <anchor x="136" y="684" name="kafAbove"/>
  <anchor x="136" y="732" name="markAbove"/>
  <anchor x="136" y="-74" name="markBelow"/>
  <outline>
    <contour>
      <point x="60" y="624" type="line"/>
      <point x="232" y="624" type="line"/>
      <point x="232" y="193" type="line" smooth="yes"/>
      <point x="232" y="96"/>
      <point x="185" y="1"/>
      <point x="60" y="1" type="curve"/>
    </contour>
  </outline>
</glyph>
<glyph name="alef-ar.short" format="2">
  <advance width="292"/>
  <anchor x="136" y="412" name="hamzaAbove"/>
  <anchor x="136" y="-74" name="markBelow"/>
  <outline>
    <contour>
      <point x="60" y="413" type="line"/>
      <point x="232" y="413" type="line"/>
      <point x="232" y="193" type="line" smooth="yes"/>
      <point x="232" y="96"/>
      <point x="185" y="1"/>
      <point x="60" y="1" type="curve"/>
    </contour>
  </outline>
</glyph>
<glyph name="ar1Dot.above" format="2">
  <outline>
    <contour>
      <point x="-86.0" y="0.0" type="curve" smooth="yes"/>
      <point x="-86.0" y="47.0"/>
      <point x="-47.0" y="86.0"/>
      <point x="0.0" y="86.0" type="curve" smooth="yes"/>
      <point x="47.0" y="86.0"/>
      <point x="86.0" y="47.0"/>
      <point x="86.0" y="0.0" type="curve" smooth="yes"/>
      <point x="86.0" y="-47.0"/>
      <point x="47.0" y="-86.0"/>
      <point x="0.0" y="-86.0" type="curve" smooth="yes"/>
      <point x="-47.0" y="-86.0"/>
      <point x="-86.0" y="-47.0"/>
    </contour>
    <component base="uni0670" yOffset="170.0" identifier="mark_uni0670"/>
    <component base="uni0651" yOffset="214.0" identifier="mark_uni0651"/>
    <component base="uni064E" yOffset="195.0" identifier="mark_uni064E"/>
    <component base="uni064B" yOffset="215.0" identifier="mark_uni064B"/>
    <component base="uni064C" yOffset="211.0" identifier="mark_uni064C"/>
    <component base="uni064F" yOffset="213.0" identifier="mark_uni064F"/>
    <component base="uni0652" yOffset="218.0" identifier="mark_uni0652"/>
  </outline>
</glyph>
<glyph name="arAin.init" format="2">
  <advance width="548"/>
  <outline>
    <contour>
      <point x="0.0" y="0.0" type="line"/>
      <point x="0.0" y="172.0" type="line"/>
      <point x="488.0" y="172.0" type="line"/>
      <point x="488.0" y="0.0" type="line"/>
    </contour>
    <contour>
      <point x="463.0" y="462.0" type="curve"/>
      <point x="413.0" y="298.0" type="line"/>
      <point x="318.0" y="327.0"/>
      <point x="258.0" y="319.0"/>
      <point x="242.0" y="312.0" type="curve"/>
      <point x="244.0" y="296.0"/>
      <point x="268.0" y="245.0"/>
      <point x="339.0" y="180.0" type="curve"/>
      <point x="223.0" y="54.0" type="line"/>
      <point x="104.0" y="164.0"/>
      <point x="6.0" y="313.0"/>
      <point x="113.0" y="428.0" type="curve" smooth="yes"/>
      <point x="193.0" y="514.0"/>
      <point x="327.0" y="503.0"/>
    </contour>
    <component base="ar3IDot.below" xOffset="274.0" yOffset="-150.0" identifier="mark_ar3IDot.below"/>
    <component base="ar2Dot.below" xOffset="274.0" yOffset="-150.0" identifier="mark_ar2Dot.below"/>
    <component base="uni0656" xOffset="274.0" yOffset="-150.0" identifier="mark_uni0656"/>
    <component base="uni064D" xOffset="274.0" yOffset="-185.0" identifier="mark_uni064D"/>
    <component base="ar3IDot.above" xOffset="237.0" yOffset="617.0" identifier="mark_ar3IDot.above"/>
    <component base="ar2Dot.above" xOffset="237.0" yOffset="617.0" identifier="mark_ar2Dot.above"/>
    <component base="uni0670" xOffset="237.0" yOffset="617.0" identifier="mark_uni0670"/>
    <component base="uni0651" xOffset="237.0" yOffset="661.0" identifier="mark_uni0651"/>
    <component base="uni064E" xOffset="237.0" yOffset="642.0" identifier="mark_uni064E"/>
    <component base="uni064B" xOffset="237.0" yOffset="662.0" identifier="mark_uni064B"/>
    <component base="uni064C" xOffset="237.0" yOffset="658.0" identifier="mark_uni064C"/>
    <component base="uni064F" xOffset="237.0" yOffset="660.0" identifier="mark_uni064F"/>
    <component base="uni0652" xOffset="237.0" yOffset="665.0" identifier="mark_uni0652"/>
    <component base="ar1Dot.above" xOffset="237.0" yOffset="617.0" identifier="mark_ar1Dot.above"/>
    <component base="ar3Dot.above" xOffset="237.0" yOffset="617.0" identifier="mark_ar3Dot.above"/>
    <component base="arTah.above" xOffset="237.0" yOffset="617.0" identifier="mark_arTah.above"/>
    <component base="uni0650" xOffset="274.0" yOffset="-175.0" identifier="mark_uni0650"/>
    <component base="ar1Dot.below" xOffset="274.0" yOffset="-150.0" identifier="mark_ar1Dot.below"/>
    <component base="ar3Dot.below" xOffset="274.0" yOffset="-150.0" identifier="mark_ar3Dot.below"/>
  </outline>
</glyph>
<glyph name="arAin.isol" format="2">
  <advance width="536"/>
  <outline>
    <contour>
      <point x="476.0" y="-100.0" type="line"/>
      <point x="476.0" y="-272.0" type="line"/>
      <point x="188.0" y="-272.0" type="line" smooth="yes"/>
      <point x="115.0" y="-272.0"/>
      <point x="60.0" y="-209.0"/>
      <point x="60.0" y="-139.0" type="curve" smooth="yes"/>
      <point x="60.0" y="40.0" type="line" smooth="yes"/>
      <point x="60.0" y="112.0"/>
      <point x="116.0" y="172.0"/>
      <point x="190.0" y="172.0" type="curve" smooth="yes"/>
      <point x="476.0" y="172.0" type="line"/>
      <point x="476.0" y="0.0" type="line"/>
      <point x="212.0" y="0.0" type="line"/>
      <point x="219.0" y="7.0"/>
      <point x="225.0" y="13.0"/>
      <point x="232.0" y="20.0" type="curve"/>
      <point x="232.0" y="-120.0" type="line"/>
      <point x="225.0" y="-113.0"/>
      <point x="219.0" y="-107.0"/>
      <point x="212.0" y="-100.0" type="curve"/>
    </contour>
    <contour>
      <point x="470.0" y="395.0" type="curve"/>
      <point x="404.0" y="235.0" type="line"/>
      <point x="388.0" y="242.0"/>
      <point x="376.0" y="246.0"/>
      <point x="366.0" y="249.0" type="curve" smooth="yes"/>
      <point x="342.0" y="256.0"/>
      <point x="325.0" y="257.0"/>
      <point x="314.0" y="256.0" type="curve"/>
      <point x="319.0" y="239.0"/>
      <point x="336.0" y="209.0"/>
      <point x="371.0" y="171.0" type="curve"/>
      <point x="245.0" y="55.0" type="line"/>
      <point x="157.0" y="151.0"/>
      <point x="93.0" y="278.0"/>
      <point x="180.0" y="373.0" type="curve" smooth="yes"/>
      <point x="238.0" y="436.0"/>
      <point x="331.0" y="438.0"/>
      <point x="412.0" y="415.0" type="curve" smooth="yes"/>
      <point x="432.0" y="410.0"/>
      <point x="452.0" y="403.0"/>
    </contour>
    <component base="ar3IDot.below" xOffset="338.0" yOffset="-95.0" identifier="mark_ar3IDot.below"/>
    <component base="ar2Dot.below" xOffset="338.0" yOffset="-95.0" identifier="mark_ar2Dot.below"/>
    <component base="uni0656" xOffset="338.0" yOffset="-95.0" identifier="mark_uni0656"/>
    <component base="uni064D" xOffset="338.0" yOffset="-130.0" identifier="mark_uni064D"/>
    <component base="ar3IDot.above" xOffset="273.0" yOffset="553.0" identifier="mark_ar3IDot.above"/>
    <component base="ar2Dot.above" xOffset="273.0" yOffset="553.0" identifier="mark_ar2Dot.above"/>
    <component base="uni0670" xOffset="273.0" yOffset="553.0" identifier="mark_uni0670"/>
    <component base="uni0651" xOffset="273.0" yOffset="597.0" identifier="mark_uni0651"/>
    <component base="uni064E" xOffset="273.0" yOffset="578.0" identifier="mark_uni064E"/>
    <component base="uni064B" xOffset="273.0" yOffset="598.0" identifier="mark_uni064B"/>
    <component base="uni064C" xOffset="273.0" yOffset="594.0" identifier="mark_uni064C"/>
    <component base="uni064F" xOffset="273.0" yOffset="596.0" identifier="mark_uni064F"/>
    <component base="uni0652" xOffset="273.0" yOffset="601.0" identifier="mark_uni0652"/>
    <component base="ar1Dot.above" xOffset="273.0" yOffset="553.0" identifier="mark_ar1Dot.above"/>
    <component base="ar3Dot.above" xOffset="273.0" yOffset="553.0" identifier="mark_ar3Dot.above"/>
    <component base="arTah.above" xOffset="273.0" yOffset="553.0" identifier="mark_arTah.above"/>
    <component base="uni0650" xOffset="338.0" yOffset="-120.0" identifier="mark_uni0650"/>
    <component base="ar1Dot.below" xOffset="338.0" yOffset="-95.0" identifier="mark_ar1Dot.below"/>
    <component base="ar3Dot.below" xOffset="338.0" yOffset="-95.0" identifier="mark_ar3Dot.below"/>
  </outline>
</glyph>
<glyph name="arAlef.fina.1" format="2">
  <outline>
    <contour>
      <point x="81.0" y="640.0" type="line"/>
      <point x="246.0" y="688.0" type="line"/>
      <point x="362.0" y="289.0" type="line"/>
      <point x="197.0" y="241.0" type="line"/>
    </contour>
    <contour>
      <point x="203.0" y="289.0" type="curve"/>
      <point x="363.0" y="289.0" type="line"/>
      <point x="352.0" y="196.0"/>
      <point x="286.0" y="149.0"/>
      <point x="193.0" y="124.0" type="curve"/>
      <point x="83.0" y="124.0" type="line"/>
      <point x="151.0" y="157.0"/>
      <point x="205.0" y="187.0"/>
    </contour>
    <component base="arTah.above" xOffset="120.0" yOffset="738.0" identifier="mark_arTah.above"/>
    <component base="ar3Dot.above" xOffset="120.0" yOffset="738.0" identifier="mark_ar3Dot.above"/>
    <component base="ar1Dot.above" xOffset="120.0" yOffset="738.0" identifier="mark_ar1Dot.above"/>
    <component base="uni0652" xOffset="120.0" yOffset="786.0" identifier="mark_uni0652"/>
    <component base="uni064F" xOffset="120.0" yOffset="781.0" identifier="mark_uni064F"/>
    <component base="uni064C" xOffset="120.0" yOffset="779.0" identifier="mark_uni064C"/>
    <component base="uni0654" xOffset="120.0" yOffset="738.0" identifier="mark_uni0654"/>
    <component base="arSad.above" xOffset="120.0" yOffset="738.0" identifier="mark_arSad.above"/>
    <component base="ar3IDot.below" xOffset="100.0" yOffset="-99.0" identifier="mark_ar3IDot.below"/>
    <component base="ar2Dot.below" xOffset="100.0" yOffset="-99.0" identifier="mark_ar2Dot.below"/>
    <component base="uni0656" xOffset="100.0" yOffset="-99.0" identifier="mark_uni0656"/>
    <component base="uni064D" xOffset="100.0" yOffset="-134.0" identifier="mark_uni064D"/>
    <component base="uni0655" xOffset="100.0" yOffset="-99.0" identifier="mark_uni0655"/>
    <component base="uni0650" xOffset="100.0" yOffset="-124.0" identifier="mark_uni0650"/>
    <component base="ar1Dot.below" xOffset="100.0" yOffset="-99.0" identifier="mark_ar1Dot.below"/>
    <component base="ar3Dot.below" xOffset="100.0" yOffset="-99.0" identifier="mark_ar3Dot.below"/>
    <component base="arKaf.above" xOffset="120.0" yOffset="738.0" identifier="mark_arKaf.above"/>
    <component base="uni0653" xOffset="120.0" yOffset="738.0" identifier="mark_uni0653"/>
    <component base="uni064B" xOffset="120.0" yOffset="783.0" identifier="mark_uni064B"/>
    <component base="uni064E" xOffset="120.0" yOffset="763.0" identifier="mark_uni064E"/>
    <component base="uni0651" xOffset="120.0" yOffset="782.0" identifier="mark_uni0651"/>
    <component base="uni0670" xOffset="120.0" yOffset="738.0" identifier="mark_uni0670"/>
    <component base="ar2Dot.above" xOffset="120.0" yOffset="738.0" identifier="mark_ar2Dot.above"/>
    <component base="ar3IDot.above" xOffset="120.0" yOffset="738.0" identifier="mark_ar3IDot.above"/>
  </outline>
</glyph>
<glyph name="arAlef.fina.1.short" format="2">
  <advance width="270.2394047398266"/>
  <anchor x="100.0" y="-134.0" name="markBelow"/>
  <anchor x="206.0" y="412.0" name="hamzaAbove"/>
  <outline>
    <contour>
      <point x="148.0" y="416.0" type="line"/>
      <point x="311.0" y="470.0" type="line"/>
      <point x="358.0" y="309.0" type="line"/>
      <point x="364.0" y="295.0"/>
      <point x="362.0" y="276.0"/>
      <point x="361.0" y="270.0" type="curve" smooth="yes"/>
      <point x="344.0" y="190.0"/>
      <point x="281.0" y="147.0"/>
      <point x="194.0" y="124.0" type="curve"/>
      <point x="84.0" y="124.0" type="line"/>
      <point x="140.0" y="151.0"/>
      <point x="186.0" y="176.0"/>
      <point x="199.0" y="241.0" type="curve"/>
    </contour>
  </outline>
</glyph>
<glyph name="arAlef.fina.short" format="2">
  <advance width="360.0"/>
  <anchor x="186.0" y="684.0" name="hamzaAbove"/>
  <anchor x="186.0" y="-74.0" name="markBelow"/>
  <outline>
    <contour>
      <point x="232.0" y="623.0" type="line"/>
      <point x="232.0" y="152.1849822044719" type="line"/>
      <point x="225.0" y="159.12023843290675"/>
      <point x="219.0" y="165.06474377156516"/>
      <point x="212.0" y="172.0" type="curve"/>
      <point x="380.0" y="172.0" type="line"/>
      <point x="380.0" y="0.0" type="line"/>
      <point x="199.0" y="0.0" type="line" smooth="yes"/>
      <point x="123.0" y="0.0"/>
      <point x="60.0" y="62.0"/>
      <point x="60.0" y="138.0" type="curve" smooth="yes"/>
      <point x="60.0" y="623.0" type="line"/>
    </contour>
  </outline>
</glyph>
<glyph name="arAlef.isol" format="2">
  <advance width="292"/>
  <anchor x="136.0" y="684.0" name="dotAbove"/>
  <anchor x="136.0" y="684.0" name="hamzaAbove"/>
  <anchor x="136.0" y="684.0" name="kafAbove"/>
  <anchor x="136.0" y="732.0" name="markAbove"/>
  <anchor x="136.0" y="-49.0" name="dotBelow"/>
  <anchor x="136.0" y="-49.0" name="hamzaBelow"/>
  <anchor x="136.0" y="-74.0" name="markBelow"/>
  <outline>
    <contour>
      <point x="60.0" y="624.0" type="line"/>
      <point x="232.0" y="624.0" type="line"/>
      <point x="232.0" y="193.0" type="line" smooth="yes"/>
      <point x="232.0" y="96.0"/>
      <point x="185.0" y="1.0"/>
      <point x="60.0" y="1.0" type="curve"/>
    </contour>
  </outline>
</glyph>
<glyph name="arAlef.isol.short" format="2">
  <advance width="292.0"/>
  <anchor x="136.0" y="-74.0" name="markBelow"/>
  <anchor x="136.0" y="684.0" name="hamzaAbove"/>
  <outline>
    <contour>
      <point x="60.0" y="624.0" type="line"/>
      <point x="232.0" y="624.0" type="line"/>
      <point x="232.0" y="193.0" type="line" smooth="yes"/>
      <point x="232.0" y="96.0"/>
      <point x="185.0" y="1.0"/>
      <point x="60.0" y="1.0" type="curve"/>
    </contour>
  </outline>
</glyph>
<glyph name="arBeh.init" format="2">
  <advance width="488"/>
  <outline>
    <contour>
      <point x="256.0" y="410.0" type="line"/>
      <point x="428.0" y="410.0" type="line"/>
      <point x="428.0" y="138.0" type="line" smooth="yes"/>
      <point x="428.0" y="62.0"/>
      <point x="365.0" y="0.0"/>
      <point x="289.0" y="0.0" type="curve" smooth="yes"/>
      <point x="0.0" y="0.0" type="line"/>
      <point x="0.0" y="172.0" type="line"/>
      <point x="276.0" y="172.0" type="line"/>
      <point x="269.0" y="165.0"/>
      <point x="263.0" y="159.0"/>
      <point x="256.0" y="152.0" type="curve"/>
    </contour>
  </outline>
</glyph>
<glyph name="arBeh.isol" format="2">
  <advance width="854"/>
  <outline>
    <contour>
      <point x="622.0" y="333.0" type="line"/>
      <point x="794.0" y="333.0" type="line"/>
      <point x="794.0" y="138.0" type="line" smooth="yes"/>
      <point x="794.0" y="61.0"/>
      <point x="733.0" y="0.0"/>
      <point x="656.0" y="0.0" type="curve" smooth="yes"/>
      <point x="264.0" y="0.0" type="line" smooth="yes"/>
      <point x="162.0" y="0.0"/>
      <point x="60.0" y="77.0"/>
      <point x="60.0" y="193.0" type="curve" smooth="yes"/>
      <point x="60.0" y="333.0" type="line"/>
      <point x="232.0" y="333.0" type="line"/>
      <point x="232.0" y="193.0" type="line" smooth="yes"/>
      <point x="232.0" y="189.0"/>
      <point x="240.0" y="172.0"/>
      <point x="264.0" y="172.0" type="curve" smooth="yes"/>
      <point x="642.0" y="172.0" type="line"/>
      <point x="635.0" y="165.0"/>
      <point x="629.0" y="159.0"/>
      <point x="622.0" y="152.0" type="curve"/>
    </contour>
    <component base="ar3IDot.below" xOffset="447.0" yOffset="-150.0" identifier="mark_ar3IDot.below"/>
    <component base="ar2Dot.below" xOffset="447.0" yOffset="-150.0" identifier="mark_ar2Dot.below"/>
    <component base="uni0656" xOffset="447.0" yOffset="-150.0" identifier="mark_uni0656"/>
    <component base="uni064D" xOffset="447.0" yOffset="-185.0" identifier="mark_uni064D"/>
    <component base="ar3IDot.above" xOffset="427.0" yOffset="453.0" identifier="mark_ar3IDot.above"/>
    <component base="ar2Dot.above" xOffset="427.0" yOffset="453.0" identifier="mark_ar2Dot.above"/>
    <component base="uni0670" xOffset="427.0" yOffset="453.0" identifier="mark_uni0670"/>
    <component base="uni0651" xOffset="427.0" yOffset="497.0" identifier="mark_uni0651"/>
    <component base="uni064E" xOffset="427.0" yOffset="478.0" identifier="mark_uni064E"/>
    <component base="uni064B" xOffset="427.0" yOffset="498.0" identifier="mark_uni064B"/>
    <component base="uni064C" xOffset="427.0" yOffset="494.0" identifier="mark_uni064C"/>
    <component base="uni064F" xOffset="427.0" yOffset="496.0" identifier="mark_uni064F"/>
    <component base="uni0652" xOffset="427.0" yOffset="501.0" identifier="mark_uni0652"/>
    <component base="ar1Dot.above" xOffset="427.0" yOffset="453.0" identifier="mark_ar1Dot.above"/>
    <component base="ar3Dot.above" xOffset="427.0" yOffset="453.0" identifier="mark_ar3Dot.above"/>
    <component base="arTah.above" xOffset="427.0" yOffset="453.0" identifier="mark_arTah.above"/>
    <component base="uni0650" xOffset="447.0" yOffset="-175.0" identifier="mark_uni0650"/>
    <component base="ar1Dot.below" xOffset="447.0" yOffset="-150.0" identifier="mark_ar1Dot.below"/>
    <component base="ar3Dot.below" xOffset="447.0" yOffset="-150.0" identifier="mark_ar3Dot.below"/>
  </outline>
</glyph>
<glyph name="arDal.isol" format="2">
  <advance width="522"/>
  <outline>
    <contour>
      <point x="152.0" y="287.0" type="curve"/>
      <point x="228.0" y="441.0" type="line"/>
      <point x="299.0" y="405.0"/>
      <point x="453.0" y="325.0"/>
      <point x="462.0" y="142.0" type="curve" smooth="yes"/>
      <point x="466.0" y="62.0"/>
      <point x="404.0" y="0.0"/>
      <point x="324.0" y="0.0" type="curve" smooth="yes"/>
      <point x="60.0" y="0.0" type="line"/>
      <point x="60.0" y="172.0" type="line"/>
      <point x="260.0" y="172.0" type="line" smooth="yes"/>
      <point x="283.0" y="172.0"/>
      <point x="275.0" y="190.0"/>
      <point x="268.0" y="200.0" type="curve" smooth="yes"/>
      <point x="243.0" y="236.0"/>
      <point x="199.0" y="264.0"/>
    </contour>
    <component base="ar3IDot.below" xOffset="204.0" yOffset="-142.0" identifier="mark_ar3IDot.below"/>
    <component base="ar2Dot.below" xOffset="204.0" yOffset="-142.0" identifier="mark_ar2Dot.below"/>
    <component base="uni0656" xOffset="204.0" yOffset="-142.0" identifier="mark_uni0656"/>
    <component base="uni064D" xOffset="204.0" yOffset="-177.0" identifier="mark_uni064D"/>
    <component base="ar3IDot.above" xOffset="198.0" yOffset="600.0" identifier="mark_ar3IDot.above"/>
    <component base="ar2Dot.above" xOffset="198.0" yOffset="600.0" identifier="mark_ar2Dot.above"/>
    <component base="uni0670" xOffset="198.0" yOffset="600.0" identifier="mark_uni0670"/>
    <component base="uni0651" xOffset="198.0" yOffset="644.0" identifier="mark_uni0651"/>
    <component base="uni064E" xOffset="198.0" yOffset="625.0" identifier="mark_uni064E"/>
    <component base="uni064B" xOffset="198.0" yOffset="645.0" identifier="mark_uni064B"/>
    <component base="uni064C" xOffset="198.0" yOffset="641.0" identifier="mark_uni064C"/>
    <component base="uni064F" xOffset="198.0" yOffset="643.0" identifier="mark_uni064F"/>
    <component base="uni0652" xOffset="198.0" yOffset="648.0" identifier="mark_uni0652"/>
    <component base="ar1Dot.above" xOffset="198.0" yOffset="600.0" identifier="mark_ar1Dot.above"/>
    <component base="ar3Dot.above" xOffset="198.0" yOffset="600.0" identifier="mark_ar3Dot.above"/>
    <component base="arTah.above" xOffset="198.0" yOffset="600.0" identifier="mark_arTah.above"/>
    <component base="uni0650" xOffset="204.0" yOffset="-167.0" identifier="mark_uni0650"/>
    <component base="ar1Dot.below" xOffset="204.0" yOffset="-142.0" identifier="mark_ar1Dot.below"/>
    <component base="ar3Dot.below" xOffset="204.0" yOffset="-142.0" identifier="mark_ar3Dot.below"/>
  </outline>
</glyph>
<glyph name="arDamma.above" format="2">
  <anchor x="0" y="0" name="_hamzaAbove"/>
  <anchor x="145" y="0" name="_dammaHamza"/>
  <outline>
    <contour>
      <point x="-36" y="-34" type="line"/>
      <point x="36" y="-8"/>
      <point x="70" y="41"/>
      <point x="70" y="100" type="curve" smooth="yes"/>
      <point x="70" y="157"/>
      <point x="46" y="188"/>
      <point x="-2" y="188" type="curve" smooth="yes"/>
      <point x="-34" y="188"/>
      <point x="-60" y="164"/>
      <point x="-60" y="126" type="curve" smooth="yes"/>
      <point x="-60" y="92"/>
      <point x="-34" y="70"/>
      <point x="-3" y="70" type="curve" smooth="yes"/>
      <point x="12" y="70"/>
      <point x="27" y="78"/>
      <point x="38" y="87" type="curve"/>
      <point x="4" y="135" type="line"/>
      <point x="6" y="82" type="line"/>
      <point x="6" y="50"/>
      <point x="-18" y="30"/>
      <point x="-60" y="16" type="curve"/>
    </contour>
  </outline>
</glyph>
<glyph name="arFeh.fina" format="2">
  <advance width="954"/>
  <anchor x="649.0" y="559.0" name="dotAbove"/>
  <anchor x="649.0" y="607.0" name="markAbove"/>
  <anchor x="499.0" y="-339.0" name="dotBelow"/>
  <anchor x="499.0" y="-374.0" name="markBelow"/>
  <outline>
    <contour>
      <point x="974.0" y="172.0" type="line"/>
      <point x="974.0" y="0.0" type="line"/>
      <point x="716.0" y="0.0" type="line" smooth="yes"/>
      <point x="625.0" y="0.0"/>
      <point x="524.0" y="0.0"/>
      <point x="460.0" y="106.0" type="curve" smooth="yes"/>
      <point x="390.0" y="221.0"/>
      <point x="449.0" y="349.0"/>
      <point x="531.0" y="403.0" type="curve" smooth="yes"/>
      <point x="621.0" y="461.0"/>
      <point x="773.0" y="457.0"/>
      <point x="846.0" y="341.0" type="curve" smooth="yes"/>
      <point x="867.0" y="308.0"/>
      <point x="878.0" y="267.0"/>
      <point x="878.0" y="224.0" type="curve" smooth="yes"/>
      <point x="878.0" y="-60.0" type="line" smooth="yes"/>
      <point x="878.0" y="-137.0"/>
      <point x="815.0" y="-200.0"/>
      <point x="737.0" y="-200.0" type="curve" smooth="yes"/>
      <point x="245.0" y="-200.0" type="line" smooth="yes"/>
      <point x="148.0" y="-200.0"/>
      <point x="60.0" y="-127.0"/>
      <point x="60.0" y="-20.0" type="curve" smooth="yes"/>
      <point x="60.0" y="132.0" type="line"/>
      <point x="232.0" y="132.0" type="line"/>
      <point x="232.0" y="-48.0" type="line"/>
      <point x="225.0" y="-41.0"/>
      <point x="219.0" y="-35.0"/>
      <point x="212.0" y="-28.0" type="curve"/>
      <point x="726.0" y="-28.0" type="line"/>
      <point x="719.0" y="-35.0"/>
      <point x="713.0" y="-41.0"/>
      <point x="706.0" y="-48.0" type="curve"/>
      <point x="706.0" y="214.0" type="line" smooth="yes"/>
      <point x="706.0" y="246.0"/>
      <point x="691.0" y="260.0"/>
      <point x="672.0" y="266.0" type="curve" smooth="yes"/>
      <point x="652.0" y="273.0"/>
      <point x="630.0" y="266.0"/>
      <point x="617.0" y="252.0" type="curve" smooth="yes"/>
      <point x="600.0" y="233.0"/>
      <point x="599.0" y="209.0"/>
      <point x="608.0" y="194.0" type="curve" smooth="yes"/>
      <point x="622.0" y="170.0"/>
      <point x="629.0" y="172.0"/>
      <point x="716.0" y="172.0" type="curve" smooth="yes"/>
    </contour>
  </outline>
</glyph>
<glyph name="arFeh.init" format="2">
  <advance width="553"/>
  <anchor x="273.0" y="-160.0" name="dotBelow"/>
  <anchor x="273.0" y="-195.0" name="markBelow"/>
  <anchor x="264.0" y="759.0" name="dotAbove"/>
  <anchor x="264.0" y="803.0" name="markAbove"/>
  <outline>
    <contour>
      <point x="0.0" y="172.0" type="line"/>
      <point x="341.0" y="172.0" type="line"/>
      <point x="334.0" y="165.0"/>
      <point x="328.0" y="159.0"/>
      <point x="321.0" y="152.0" type="curve"/>
      <point x="321.0" y="414.0" type="line" smooth="yes"/>
      <point x="321.0" y="446.0"/>
      <point x="306.0" y="460.0"/>
      <point x="287.0" y="466.0" type="curve" smooth="yes"/>
      <point x="267.0" y="473.0"/>
      <point x="245.0" y="466.0"/>
      <point x="232.0" y="452.0" type="curve" smooth="yes"/>
      <point x="215.0" y="433.0"/>
      <point x="214.0" y="409.0"/>
      <point x="223.0" y="394.0" type="curve" smooth="yes"/>
      <point x="237.0" y="370.0"/>
      <point x="254.0" y="346.0"/>
      <point x="361.0" y="357.0" type="curve"/>
      <point x="361.0" y="220.0" type="line"/>
      <point x="261.0" y="215.0"/>
      <point x="139.0" y="200.0"/>
      <point x="75.0" y="306.0" type="curve" smooth="yes"/>
      <point x="5.0" y="421.0"/>
      <point x="64.0" y="549.0"/>
      <point x="146.0" y="603.0" type="curve" smooth="yes"/>
      <point x="236.0" y="661.0"/>
      <point x="388.0" y="657.0"/>
      <point x="461.0" y="541.0" type="curve" smooth="yes"/>
      <point x="482.0" y="508.0"/>
      <point x="493.0" y="467.0"/>
      <point x="493.0" y="424.0" type="curve" smooth="yes"/>
      <point x="493.0" y="140.0" type="line" smooth="yes"/>
      <point x="493.0" y="63.0"/>
      <point x="430.0" y="0.0"/>
      <point x="352.0" y="0.0" type="curve" smooth="yes"/>
      <point x="0.0" y="0.0" type="line"/>
    </contour>
  </outline>
</glyph>
<glyph name="arFeh.isol" format="2">
  <advance width="938"/>
  <anchor x="649.0" y="559.0" name="dotAbove"/>
  <anchor x="649.0" y="607.0" name="markAbove"/>
  <anchor x="499.0" y="-339.0" name="dotBelow"/>
  <anchor x="499.0" y="-374.0" name="markBelow"/>
  <outline>
    <contour>
      <point x="746.0" y="21.0" type="line"/>
      <point x="646.0" y="16.0"/>
      <point x="524.0" y="1.0"/>
      <point x="460.0" y="107.0" type="curve" smooth="yes"/>
      <point x="390.0" y="222.0"/>
      <point x="449.0" y="350.0"/>
      <point x="531.0" y="404.0" type="curve" smooth="yes"/>
      <point x="621.0" y="462.0"/>
      <point x="773.0" y="458.0"/>
      <point x="846.0" y="342.0" type="curve" smooth="yes"/>
      <point x="867.0" y="309.0"/>
      <point x="878.0" y="268.0"/>
      <point x="878.0" y="225.0" type="curve" smooth="yes"/>
      <point x="878.0" y="-59.0" type="line" smooth="yes"/>
      <point x="878.0" y="-136.0"/>
      <point x="815.0" y="-199.0"/>
      <point x="737.0" y="-199.0" type="curve" smooth="yes"/>
      <point x="245.0" y="-199.0" type="line" smooth="yes"/>
      <point x="148.0" y="-199.0"/>
      <point x="60.0" y="-126.0"/>
      <point x="60.0" y="-19.0" type="curve" smooth="yes"/>
      <point x="60.0" y="133.0" type="line"/>
      <point x="232.0" y="133.0" type="line"/>
      <point x="232.0" y="-47.0" type="line"/>
      <point x="225.0" y="-40.0"/>
      <point x="219.0" y="-34.0"/>
      <point x="212.0" y="-27.0" type="curve"/>
      <point x="726.0" y="-27.0" type="line"/>
      <point x="719.0" y="-34.0"/>
      <point x="713.0" y="-40.0"/>
      <point x="706.0" y="-47.0" type="curve"/>
      <point x="706.0" y="215.0" type="line" smooth="yes"/>
      <point x="706.0" y="247.0"/>
      <point x="691.0" y="261.0"/>
      <point x="672.0" y="267.0" type="curve" smooth="yes"/>
      <point x="652.0" y="274.0"/>
      <point x="630.0" y="267.0"/>
      <point x="617.0" y="253.0" type="curve" smooth="yes"/>
      <point x="600.0" y="234.0"/>
      <point x="599.0" y="210.0"/>
      <point x="608.0" y="195.0" type="curve" smooth="yes"/>
      <point x="622.0" y="171.0"/>
      <point x="639.0" y="147.0"/>
      <point x="746.0" y="158.0" type="curve"/>
    </contour>
  </outline>
</glyph>
<glyph name="arGaf.above" format="2">
  <anchor x="0" y="0" name="_gafAbove"/>
  <outline>
    <contour>
      <point x="-133.0" y="-75.0" type="curve"/>
      <point x="-186.0" y="11.0" type="line"/>
      <point x="-73.0" y="81.0"/>
      <point x="131.0" y="126.0"/>
      <point x="183.0" y="127.0" type="curve"/>
      <point x="186.0" y="27.0" type="line"/>
      <point x="164.0" y="26.0"/>
      <point x="-48.0" y="-23.0"/>
    </contour>
  </outline>
</glyph>
<glyph name="arGaf.isol" format="2">
  <advance width="861"/>
  <outline>
    <contour>
      <point x="222.0" y="172.0" type="line"/>
      <point x="366.0" y="0.0" type="line"/>
      <point x="204.0" y="0.0" type="line"/>
      <point x="60.0" y="172.0" type="line"/>
    </contour>
    <component base="arKaf.medi" xOffset="204.0"/>
    <component base="arGaf.above" xOffset="575.0" yOffset="768.0" identifier="mark_arGaf.above"/>
    <component base="ar3Dot.below" xOffset="423.0" yOffset="-149.0" identifier="mark_ar3Dot.below"/>
    <component base="ar1Dot.below" xOffset="423.0" yOffset="-149.0" identifier="mark_ar1Dot.below"/>
    <component base="uni0650" xOffset="423.0" yOffset="-174.0" identifier="mark_uni0650"/>
    <component base="arTah.above" xOffset="293.0" yOffset="750.0" identifier="mark_arTah.above"/>
    <component base="ar3Dot.above" xOffset="293.0" yOffset="750.0" identifier="mark_ar3Dot.above"/>
    <component base="ar1Dot.above" xOffset="293.0" yOffset="750.0" identifier="mark_ar1Dot.above"/>
    <component base="uni0652" xOffset="293.0" yOffset="798.0" identifier="mark_uni0652"/>
    <component base="uni064F" xOffset="293.0" yOffset="793.0" identifier="mark_uni064F"/>
    <component base="uni064C" xOffset="293.0" yOffset="791.0" identifier="mark_uni064C"/>
    <component base="uni064B" xOffset="293.0" yOffset="795.0" identifier="mark_uni064B"/>
    <component base="uni064E" xOffset="293.0" yOffset="775.0" identifier="mark_uni064E"/>
    <component base="uni0651" xOffset="293.0" yOffset="794.0" identifier="mark_uni0651"/>
    <component base="uni0670" xOffset="293.0" yOffset="750.0" identifier="mark_uni0670"/>
    <component base="ar2Dot.above" xOffset="293.0" yOffset="750.0" identifier="mark_ar2Dot.above"/>
    <component base="ar3IDot.above" xOffset="293.0" yOffset="750.0" identifier="mark_ar3IDot.above"/>
    <component base="uni064D" xOffset="423.0" yOffset="-184.0" identifier="mark_uni064D"/>
    <component base="uni0656" xOffset="423.0" yOffset="-149.0" identifier="mark_uni0656"/>
    <component base="ar2Dot.below" xOffset="423.0" yOffset="-149.0" identifier="mark_ar2Dot.below"/>
    <component base="ar3IDot.below" xOffset="423.0" yOffset="-149.0" identifier="mark_ar3IDot.below"/>
  </outline>
</glyph>
<glyph name="arHah.init" format="2">
  <advance width="686"/>
  <outline>
    <contour>
      <point x="0.0" y="0.0" type="line"/>
      <point x="0.0" y="172.0" type="line"/>
      <point x="365.0" y="172.0" type="line"/>
      <point x="363.6" y="166.4"/>
      <point x="362.4" y="161.6"/>
      <point x="361.0" y="156.0" type="curve"/>
      <point x="351.0" y="166.0"/>
      <point x="339.0" y="177.0"/>
      <point x="328.0" y="188.0" type="curve" smooth="yes"/>
      <point x="296.0" y="219.0"/>
      <point x="262.0" y="253.0"/>
      <point x="238.0" y="270.0" type="curve" smooth="yes"/>
      <point x="198.0" y="298.0"/>
      <point x="158.0" y="308.0"/>
      <point x="117.0" y="318.0" type="curve"/>
      <point x="157.0" y="486.0" type="line"/>
      <point x="198.0" y="476.0"/>
      <point x="268.0" y="460.0"/>
      <point x="338.0" y="410.0" type="curve" smooth="yes"/>
      <point x="402.0" y="364.0"/>
      <point x="450.0" y="308.0"/>
      <point x="486.0" y="276.0" type="curve" smooth="yes"/>
      <point x="543.0" y="226.0"/>
      <point x="562.0" y="237.0"/>
      <point x="620.0" y="240.0" type="curve"/>
      <point x="626.0" y="160.0" type="line" smooth="yes"/>
      <point x="628.0" y="133.0"/>
      <point x="621.0" y="0.0"/>
      <point x="493.0" y="0.0" type="curve" smooth="yes"/>
    </contour>
    <component base="ar3IDot.below" xOffset="293.0" yOffset="-161.0" identifier="mark_ar3IDot.below"/>
    <component base="ar2Dot.below" xOffset="293.0" yOffset="-161.0" identifier="mark_ar2Dot.below"/>
    <component base="uni0656" xOffset="293.0" yOffset="-161.0" identifier="mark_uni0656"/>
    <component base="uni064D" xOffset="293.0" yOffset="-196.0" identifier="mark_uni064D"/>
    <component base="ar3IDot.above" xOffset="268.0" yOffset="626.0" identifier="mark_ar3IDot.above"/>
    <component base="ar2Dot.above" xOffset="268.0" yOffset="626.0" identifier="mark_ar2Dot.above"/>
    <component base="uni0670" xOffset="268.0" yOffset="626.0" identifier="mark_uni0670"/>
    <component base="uni0651" xOffset="268.0" yOffset="670.0" identifier="mark_uni0651"/>
    <component base="uni064E" xOffset="268.0" yOffset="651.0" identifier="mark_uni064E"/>
    <component base="uni064B" xOffset="268.0" yOffset="671.0" identifier="mark_uni064B"/>
    <component base="uni064C" xOffset="268.0" yOffset="667.0" identifier="mark_uni064C"/>
    <component base="uni064F" xOffset="268.0" yOffset="669.0" identifier="mark_uni064F"/>
    <component base="uni0652" xOffset="268.0" yOffset="674.0" identifier="mark_uni0652"/>
    <component base="ar1Dot.above" xOffset="268.0" yOffset="626.0" identifier="mark_ar1Dot.above"/>
    <component base="ar3Dot.above" xOffset="268.0" yOffset="626.0" identifier="mark_ar3Dot.above"/>
    <component base="arTah.above" xOffset="268.0" yOffset="626.0" identifier="mark_arTah.above"/>
    <component base="uni0650" xOffset="293.0" yOffset="-186.0" identifier="mark_uni0650"/>
    <component base="ar1Dot.below" xOffset="293.0" yOffset="-161.0" identifier="mark_ar1Dot.below"/>
    <component base="ar3Dot.below" xOffset="293.0" yOffset="-161.0" identifier="mark_ar3Dot.below"/>
  </outline>
</glyph>
<glyph name="arHah.isol" format="2">
  <advance width="656"/>
  <outline>
    <contour>
      <point x="471.0" y="-190.0" type="line"/>
      <point x="471.0" y="-362.0" type="line"/>
      <point x="231.0" y="-362.0" type="line" smooth="yes"/>
      <point x="137.0" y="-362.0"/>
      <point x="60.0" y="-288.0"/>
      <point x="60.0" y="-195.0" type="curve" smooth="yes"/>
      <point x="60.0" y="-10.0" type="line" smooth="yes"/>
      <point x="60.0" y="79.0"/>
      <point x="129.0" y="172.0"/>
      <point x="238.0" y="172.0" type="curve" smooth="yes"/>
      <point x="332.0" y="172.0" type="line"/>
      <point x="326.0" y="179.0"/>
      <point x="320.0" y="186.0"/>
      <point x="314.0" y="193.0" type="curve" smooth="yes"/>
      <point x="278.0" y="237.0"/>
      <point x="249.0" y="277.0"/>
      <point x="179.0" y="303.0" type="curve"/>
      <point x="239.0" y="463.0" type="line"/>
      <point x="376.0" y="411.0"/>
      <point x="440.0" y="309.0"/>
      <point x="467.0" y="279.0" type="curve" smooth="yes"/>
      <point x="511.0" y="231.0"/>
      <point x="558.0" y="242.0"/>
      <point x="596.0" y="242.0" type="curve"/>
      <point x="596.0" y="156.0" type="line"/>
      <point x="596.0" y="156.0"/>
      <point x="612.0" y="0.0"/>
      <point x="463.0" y="0.0" type="curve" smooth="yes"/>
      <point x="212.0" y="0.0" type="line"/>
      <point x="219.0" y="7.0"/>
      <point x="225.0" y="13.0"/>
      <point x="232.0" y="20.0" type="curve"/>
      <point x="232.0" y="-210.0" type="line"/>
      <point x="225.0" y="-203.0"/>
      <point x="219.0" y="-197.0"/>
      <point x="212.0" y="-190.0" type="curve"/>
    </contour>
    <component base="arTah.above" xOffset="348.0" yOffset="606.0" identifier="mark_arTah.above"/>
    <component base="ar3Dot.above" xOffset="348.0" yOffset="606.0" identifier="mark_ar3Dot.above"/>
    <component base="ar1Dot.above" xOffset="348.0" yOffset="606.0" identifier="mark_ar1Dot.above"/>
    <component base="uni0652" xOffset="348.0" yOffset="654.0" identifier="mark_uni0652"/>
    <component base="uni064F" xOffset="348.0" yOffset="649.0" identifier="mark_uni064F"/>
    <component base="uni064C" xOffset="348.0" yOffset="647.0" identifier="mark_uni064C"/>
    <component base="ar3IDot.below" xOffset="338.0" yOffset="-96.0" identifier="mark_ar3IDot.below"/>
    <component base="ar2Dot.below" xOffset="338.0" yOffset="-96.0" identifier="mark_ar2Dot.below"/>
    <component base="uni0656" xOffset="338.0" yOffset="-96.0" identifier="mark_uni0656"/>
    <component base="uni064D" xOffset="338.0" yOffset="-131.0" identifier="mark_uni064D"/>
    <component base="uni0650" xOffset="338.0" yOffset="-121.0" identifier="mark_uni0650"/>
    <component base="ar1Dot.below" xOffset="338.0" yOffset="-96.0" identifier="mark_ar1Dot.below"/>
    <component base="ar3Dot.below" xOffset="338.0" yOffset="-96.0" identifier="mark_ar3Dot.below"/>
    <component base="uni064B" xOffset="348.0" yOffset="651.0" identifier="mark_uni064B"/>
    <component base="uni064E" xOffset="348.0" yOffset="631.0" identifier="mark_uni064E"/>
    <component base="uni0651" xOffset="348.0" yOffset="650.0" identifier="mark_uni0651"/>
    <component base="uni0670" xOffset="348.0" yOffset="606.0" identifier="mark_uni0670"/>
    <component base="ar2Dot.above" xOffset="348.0" yOffset="606.0" identifier="mark_ar2Dot.above"/>
    <component base="ar3IDot.above" xOffset="348.0" yOffset="606.0" identifier="mark_ar3IDot.above"/>
  </outline>
</glyph>
<glyph name="arHah.isol2" format="2">
  <advance width="656"/>
  <anchor x="458.0" y="-135.0" name="dotBelow"/>
  <anchor x="348.0" y="606.0" name="dotAbove"/>
  <anchor x="348.0" y="654.0" name="markAbove"/>
  <anchor x="338.0" y="-131.0" name="markBelow"/>
  <outline>
    <contour>
      <point x="60.0" y="-195.0" type="curve" smooth="yes"/>
      <point x="60.0" y="-10.0" type="line" smooth="yes"/>
      <point x="60.0" y="79.0"/>
      <point x="129.0" y="172.0"/>
      <point x="238.0" y="172.0" type="curve" smooth="yes"/>
      <point x="332.0" y="172.0" type="line"/>
      <point x="326.0" y="179.0"/>
      <point x="320.0" y="186.0"/>
      <point x="314.0" y="193.0" type="curve" smooth="yes"/>
      <point x="278.0" y="237.0"/>
      <point x="249.0" y="277.0"/>
      <point x="179.0" y="303.0" type="curve"/>
      <point x="239.0" y="463.0" type="line"/>
      <point x="376.0" y="411.0"/>
      <point x="440.0" y="309.0"/>
      <point x="467.0" y="279.0" type="curve" smooth="yes"/>
      <point x="511.0" y="231.0"/>
      <point x="558.0" y="242.0"/>
      <point x="596.0" y="242.0" type="curve"/>
      <point x="596.0" y="156.0" type="line"/>
      <point x="596.0" y="156.0"/>
      <point x="612.0" y="0.0"/>
      <point x="463.0" y="0.0" type="curve" smooth="yes"/>
      <point x="212.0" y="0.0" type="line"/>
      <point x="219.0" y="7.0"/>
      <point x="225.0" y="13.0"/>
      <point x="232.0" y="20.0" type="curve"/>
      <point x="232.0" y="-362.0" type="line"/>
      <point x="137.0" y="-362.0"/>
      <point x="60.0" y="-289.0"/>
    </contour>
  </outline>
</glyph>
<glyph name="arHeh.fina2" format="2">
  <advance width="478"/>
  <outline>
    <contour>
      <point x="292.0" y="-108.0" type="line"/>
      <point x="120.0" y="-108.0" type="line"/>
      <point x="120.0" y="34.0" type="line" smooth="yes"/>
      <point x="120.0" y="110.0"/>
      <point x="183.0" y="172.0"/>
      <point x="259.0" y="172.0" type="curve" smooth="yes"/>
      <point x="498.0" y="172.0" type="line"/>
      <point x="498.0" y="0.0" type="line"/>
      <point x="272.0" y="0.0" type="line"/>
      <point x="279.0" y="7.0"/>
      <point x="285.0" y="13.0"/>
      <point x="292.0" y="20.0" type="curve"/>
    </contour>
    <component base="ar3IDot.below" xOffset="299.0" yOffset="-160.0" identifier="mark_ar3IDot.below"/>
    <component base="ar2Dot.below" xOffset="299.0" yOffset="-160.0" identifier="mark_ar2Dot.below"/>
    <component base="uni0656" xOffset="299.0" yOffset="-160.0" identifier="mark_uni0656"/>
    <component base="uni064D" xOffset="299.0" yOffset="-195.0" identifier="mark_uni064D"/>
    <component base="ar3IDot.above" xOffset="254.0" yOffset="382.0" identifier="mark_ar3IDot.above"/>
    <component base="ar2Dot.above" xOffset="254.0" yOffset="382.0" identifier="mark_ar2Dot.above"/>
    <component base="uni0654" xOffset="254.0" yOffset="382.0" identifier="mark_uni0654"/>
    <component base="arSad.above" xOffset="254.0" yOffset="382.0" identifier="mark_arSad.above"/>
    <component base="uni0670" xOffset="254.0" yOffset="382.0" identifier="mark_uni0670"/>
    <component base="uni0651" xOffset="254.0" yOffset="426.0" identifier="mark_uni0651"/>
    <component base="uni064E" xOffset="254.0" yOffset="407.0" identifier="mark_uni064E"/>
    <component base="uni064B" xOffset="254.0" yOffset="427.0" identifier="mark_uni064B"/>
    <component base="uni064C" xOffset="254.0" yOffset="423.0" identifier="mark_uni064C"/>
    <component base="uni064F" xOffset="254.0" yOffset="425.0" identifier="mark_uni064F"/>
    <component base="uni0652" xOffset="254.0" yOffset="430.0" identifier="mark_uni0652"/>
    <component base="arKaf.above" xOffset="254.0" yOffset="382.0" identifier="mark_arKaf.above"/>
    <component base="uni0653" xOffset="254.0" yOffset="382.0" identifier="mark_uni0653"/>
    <component base="ar1Dot.above" xOffset="254.0" yOffset="382.0" identifier="mark_ar1Dot.above"/>
    <component base="ar3Dot.above" xOffset="254.0" yOffset="382.0" identifier="mark_ar3Dot.above"/>
    <component base="arTah.above" xOffset="254.0" yOffset="382.0" identifier="mark_arTah.above"/>
    <component base="uni0650" xOffset="299.0" yOffset="-185.0" identifier="mark_uni0650"/>
    <component base="ar1Dot.below" xOffset="299.0" yOffset="-160.0" identifier="mark_ar1Dot.below"/>
    <component base="ar3Dot.below" xOffset="299.0" yOffset="-160.0" identifier="mark_ar3Dot.below"/>
  </outline>
</glyph>
<glyph name="arHeh.init" format="2">
  <advance width="782"/>
  <outline>
    <contour>
      <point x="269.0" y="450.0" type="curve"/>
      <point x="269.0" y="622.0" type="line"/>
      <point x="584.0" y="622.0"/>
      <point x="726.0" y="319.0"/>
      <point x="722.0" y="137.0" type="curve" smooth="yes"/>
      <point x="721.0" y="56.0"/>
      <point x="656.0" y="0.0"/>
      <point x="584.0" y="0.0" type="curve" smooth="yes"/>
      <point x="0.0" y="0.0" type="line"/>
      <point x="0.0" y="172.0" type="line"/>
      <point x="568.0" y="172.0" type="line"/>
      <point x="562.4" y="165.0"/>
      <point x="557.6" y="159.0"/>
      <point x="552.0" y="152.0" type="curve"/>
      <point x="541.0" y="294.0"/>
      <point x="436.0" y="450.0"/>
    </contour>
    <contour>
      <point x="258.0" y="136.0" type="line"/>
      <point x="86.0" y="136.0" type="line"/>
      <point x="86.0" y="233.0" type="line" smooth="yes"/>
      <point x="86.0" y="294.0"/>
      <point x="116.0" y="351.0"/>
      <point x="162.0" y="381.0" type="curve" smooth="yes"/>
      <point x="262.0" y="447.0"/>
      <point x="392.0" y="397.0"/>
      <point x="462.0" y="290.0" type="curve" smooth="yes"/>
      <point x="502.0" y="229.0"/>
      <point x="518.0" y="152.0"/>
      <point x="478.0" y="85.0" type="curve" smooth="yes"/>
      <point x="443.0" y="26.0"/>
      <point x="380.0" y="1.0"/>
      <point x="323.0" y="0.0" type="curve"/>
      <point x="321.0" y="172.0" type="line"/>
      <point x="324.0" y="172.0"/>
      <point x="327.0" y="173.0"/>
      <point x="326.0" y="176.0" type="curve" smooth="yes"/>
      <point x="320.0" y="192.0"/>
      <point x="312.0" y="205.0"/>
      <point x="304.0" y="214.0" type="curve" smooth="yes"/>
      <point x="288.0" y="231.0"/>
      <point x="274.0" y="236.0"/>
      <point x="265.0" y="237.0" type="curve"/>
      <point x="260.0" y="238.0"/>
      <point x="258.0" y="235.0"/>
      <point x="258.0" y="230.0" type="curve" smooth="yes"/>
    </contour>
    <component base="arTah.above" xOffset="336.0" yOffset="627.0" identifier="mark_arTah.above"/>
    <component base="ar3Dot.above" xOffset="336.0" yOffset="627.0" identifier="mark_ar3Dot.above"/>
    <component base="ar1Dot.above" xOffset="336.0" yOffset="627.0" identifier="mark_ar1Dot.above"/>
    <component base="uni0652" xOffset="336.0" yOffset="675.0" identifier="mark_uni0652"/>
    <component base="uni064F" xOffset="336.0" yOffset="670.0" identifier="mark_uni064F"/>
    <component base="uni064C" xOffset="336.0" yOffset="668.0" identifier="mark_uni064C"/>
    <component base="ar3IDot.below" xOffset="336.0" yOffset="-150.0" identifier="mark_ar3IDot.below"/>
    <component base="ar2Dot.below" xOffset="336.0" yOffset="-150.0" identifier="mark_ar2Dot.below"/>
    <component base="uni0656" xOffset="336.0" yOffset="-150.0" identifier="mark_uni0656"/>
    <component base="uni064D" xOffset="336.0" yOffset="-185.0" identifier="mark_uni064D"/>
    <component base="uni0650" xOffset="336.0" yOffset="-175.0" identifier="mark_uni0650"/>
    <component base="ar1Dot.below" xOffset="336.0" yOffset="-150.0" identifier="mark_ar1Dot.below"/>
    <component base="ar3Dot.below" xOffset="336.0" yOffset="-150.0" identifier="mark_ar3Dot.below"/>
    <component base="uni064B" xOffset="336.0" yOffset="672.0" identifier="mark_uni064B"/>
    <component base="uni064E" xOffset="336.0" yOffset="652.0" identifier="mark_uni064E"/>
    <component base="uni0651" xOffset="336.0" yOffset="671.0" identifier="mark_uni0651"/>
    <component base="uni0670" xOffset="336.0" yOffset="627.0" identifier="mark_uni0670"/>
    <component base="ar2Dot.above" xOffset="336.0" yOffset="627.0" identifier="mark_ar2Dot.above"/>
    <component base="ar3IDot.above" xOffset="336.0" yOffset="627.0" identifier="mark_ar3IDot.above"/>
  </outline>
</glyph>
<glyph name="arHeh.init2" format="2">
  <advance width="498"/>
  <anchor x="184.0" y="562.0" name="dotAbove"/>
  <anchor x="184.0" y="610.0" name="markAbove"/>
  <outline>
    <contour>
      <point x="206.0" y="310.0" type="line"/>
      <point x="378.0" y="310.0" type="line"/>
      <point x="378.0" y="138.0" type="line" smooth="yes"/>
      <point x="378.0" y="62.0"/>
      <point x="315.0" y="0.0"/>
      <point x="239.0" y="0.0" type="curve" smooth="yes"/>
      <point x="0.0" y="0.0" type="line"/>
      <point x="0.0" y="172.0" type="line"/>
      <point x="226.0" y="172.0" type="line"/>
      <point x="219.0" y="165.0"/>
      <point x="213.0" y="159.0"/>
      <point x="206.0" y="152.0" type="curve"/>
    </contour>
    <contour>
      <point x="302.0" y="-151.0" type="curve"/>
      <point x="374.0" y="-207.0" type="line"/>
      <point x="334.0" y="-269.0"/>
      <point x="232.0" y="-334.0"/>
      <point x="161.0" y="-279.0" type="curve" smooth="yes"/>
      <point x="131.0" y="-256.0"/>
      <point x="115.0" y="-215.0"/>
      <point x="125.0" y="-160.0" type="curve" smooth="yes"/>
      <point x="141.0" y="-73.0"/>
      <point x="198.0" y="25.0"/>
      <point x="265.0" y="97.0" type="curve"/>
      <point x="335.0" y="39.0" type="line"/>
      <point x="296.0" y="-3.0"/>
      <point x="257.0" y="-71.0"/>
      <point x="247.0" y="-122.0" type="curve" smooth="yes"/>
      <point x="237.0" y="-174.0"/>
      <point x="278.0" y="-177.0"/>
    </contour>
  </outline>
</glyph>
<glyph name="arHeh.isol" format="2">
  <advance width="569"/>
  <outline>
    <contour>
      <point x="224.0" y="154.0" type="curve"/>
      <point x="224.0" y="164.0" type="line"/>
      <point x="224.0" y="172.0" type="line"/>
      <point x="357.0" y="172.0" type="line"/>
      <point x="337.0" y="152.0" type="line"/>
      <point x="337.0" y="397.0" type="line"/>
      <point x="509.0" y="397.0" type="line"/>
      <point x="509.0" y="138.0" type="line" smooth="yes"/>
      <point x="509.0" y="62.0"/>
      <point x="447.0" y="0.0"/>
      <point x="371.0" y="0.0" type="curve" smooth="yes"/>
      <point x="231.0" y="0.0" type="line" smooth="yes"/>
      <point x="186.0" y="0.0"/>
      <point x="144.0" y="17.0"/>
      <point x="113.0" y="45.0" type="curve" smooth="yes"/>
      <point x="52.0" y="100.0"/>
      <point x="34.0" y="209.0"/>
      <point x="109.0" y="282.0" type="curve" smooth="yes"/>
      <point x="185.0" y="356.0"/>
      <point x="224.0" y="376.0"/>
      <point x="260.0" y="461.0" type="curve"/>
      <point x="420.0" y="397.0" type="line"/>
      <point x="374.0" y="284.0"/>
      <point x="329.0" y="250.0"/>
    </contour>
  </outline>
</glyph>
<glyph name="arHeh.medi2" format="2">
  <advance width="653"/>
  <outline>
    <contour>
      <point x="402.0" y="-213.0" type="curve"/>
      <point x="234.0" y="-245.0" type="line"/>
      <point x="218.0" y="-164.0"/>
      <point x="205.0" y="-194.0"/>
      <point x="149.0" y="-104.0" type="curve" smooth="yes"/>
      <point x="124.0" y="-63.0"/>
      <point x="123.0" y="0.0"/>
      <point x="98.0" y="0.0" type="curve" smooth="yes"/>
      <point x="0.0" y="0.0" type="line"/>
      <point x="0.0" y="172.0" type="line"/>
      <point x="142.0" y="172.0" type="line" smooth="yes"/>
      <point x="283.0" y="172.0"/>
      <point x="276.0" y="16.0"/>
      <point x="295.0" y="-14.0" type="curve" smooth="yes"/>
      <point x="329.0" y="-66.0"/>
      <point x="378.0" y="-86.0"/>
    </contour>
    <contour>
      <point x="547.0" y="-206.0" type="line"/>
      <point x="375.0" y="-206.0" type="line"/>
      <point x="375.0" y="34.0" type="line" smooth="yes"/>
      <point x="375.0" y="110.0"/>
      <point x="437.0" y="172.0"/>
      <point x="513.0" y="172.0" type="curve" smooth="yes"/>
      <point x="673.0" y="172.0" type="line"/>
      <point x="673.0" y="0.0" type="line"/>
      <point x="527.0" y="0.0" type="line"/>
      <point x="534.0" y="7.0"/>
      <point x="540.0" y="13.0"/>
      <point x="547.0" y="20.0" type="curve"/>
    </contour>
    <component base="ar3IDot.below" xOffset="351.0" yOffset="-402.0" identifier="mark_ar3IDot.below"/>
    <component base="ar2Dot.below" xOffset="351.0" yOffset="-402.0" identifier="mark_ar2Dot.below"/>
    <component base="uni0656" xOffset="351.0" yOffset="-402.0" identifier="mark_uni0656"/>
    <component base="uni064D" xOffset="351.0" yOffset="-437.0" identifier="mark_uni064D"/>
    <component base="ar3IDot.above" xOffset="293.0" yOffset="232.0" identifier="mark_ar3IDot.above"/>
    <component base="ar2Dot.above" xOffset="293.0" yOffset="232.0" identifier="mark_ar2Dot.above"/>
    <component base="uni0670" xOffset="293.0" yOffset="232.0" identifier="mark_uni0670"/>
    <component base="uni0651" xOffset="293.0" yOffset="276.0" identifier="mark_uni0651"/>
    <component base="uni064E" xOffset="293.0" yOffset="257.0" identifier="mark_uni064E"/>
    <component base="uni064B" xOffset="293.0" yOffset="277.0" identifier="mark_uni064B"/>
    <component base="uni064C" xOffset="293.0" yOffset="273.0" identifier="mark_uni064C"/>
    <component base="uni064F" xOffset="293.0" yOffset="275.0" identifier="mark_uni064F"/>
    <component base="uni0652" xOffset="293.0" yOffset="280.0" identifier="mark_uni0652"/>
    <component base="ar1Dot.above" xOffset="293.0" yOffset="232.0" identifier="mark_ar1Dot.above"/>
    <component base="ar3Dot.above" xOffset="293.0" yOffset="232.0" identifier="mark_ar3Dot.above"/>
    <component base="arTah.above" xOffset="293.0" yOffset="232.0" identifier="mark_arTah.above"/>
    <component base="uni0650" xOffset="351.0" yOffset="-427.0" identifier="mark_uni0650"/>
    <component base="ar1Dot.below" xOffset="351.0" yOffset="-402.0" identifier="mark_ar1Dot.below"/>
    <component base="ar3Dot.below" xOffset="351.0" yOffset="-402.0" identifier="mark_ar3Dot.below"/>
  </outline>
</glyph>
<glyph name="arKaf.above" format="2">
  <outline>
    <contour>
      <point x="96.0" y="212.0" type="line"/>
      <point x="96.0" y="112.0" type="line"/>
      <point x="56.0" y="112.0" type="line"/>
      <point x="67.0" y="88.0" type="line" smooth="yes"/>
      <point x="71.0" y="79.0"/>
      <point x="85.0" y="55.0"/>
      <point x="68.0" y="29.0" type="curve" smooth="yes"/>
      <point x="53.0" y="6.0"/>
      <point x="21.0" y="1.0"/>
      <point x="14.0" y="1.0" type="curve" smooth="yes"/>
      <point x="-96.0" y="1.0" type="line"/>
      <point x="-96.0" y="101.0" type="line"/>
      <point x="-49.0" y="101.0" type="line"/>
      <point x="-60.0" y="123.0" type="line"/>
      <point x="-60.0" y="123.0"/>
      <point x="-84.0" y="164.0"/>
      <point x="-57.0" y="192.0" type="curve" smooth="yes"/>
      <point x="-47.0" y="202.0"/>
      <point x="-28.0" y="212.0"/>
      <point x="-4.0" y="212.0" type="curve" smooth="yes"/>
    </contour>
    <component base="uni0670" yOffset="310.0" identifier="mark_uni0670"/>
    <component base="uni0651" yOffset="354.0" identifier="mark_uni0651"/>
    <component base="uni064E" yOffset="335.0" identifier="mark_uni064E"/>
    <component base="uni064B" yOffset="355.0" identifier="mark_uni064B"/>
    <component base="uni064C" yOffset="351.0" identifier="mark_uni064C"/>
    <component base="uni064F" yOffset="353.0" identifier="mark_uni064F"/>
    <component base="uni0652" yOffset="358.0" identifier="mark_uni0652"/>
  </outline>
</glyph>
<glyph name="arKaf.init" format="2">
  <advance width="657"/>
  <anchor x="371.0" y="767.0" name="gafAbove"/>
  <anchor x="249.0" y="-150.0" name="dotBelow"/>
  <anchor x="249.0" y="-175.0" name="markBelow"/>
  <anchor x="89.0" y="749.0" name="dotAbove"/>
  <anchor x="279.0" y="817.0" name="markAbove"/>
  <anchor x="441.0" y="538.0" name="ringBelow"/>
  <outline>
    <contour>
      <point x="0.0" y="0.0" type="line"/>
      <point x="0.0" y="172.0" type="line"/>
      <point x="393.0" y="172.0" type="line"/>
      <point x="390.2" y="167.8"/>
      <point x="387.8" y="164.2"/>
      <point x="385.0" y="160.0" type="curve"/>
      <point x="217.99333198417239" y="329.90273740338534" type="line" smooth="yes"/>
      <point x="213.3119982215313" y="334.6652503642178"/>
      <point x="208.14760134735621" y="335.9812167293961"/>
      <point x="201.4696259547882" y="335.9486566985711" type="curve" smooth="yes"/>
      <point x="187.8620713831068" y="335.8823098838155" type="line" smooth="yes"/>
      <point x="180.04959351562576" y="335.8442183208444"/>
      <point x="174.61566939773041" y="338.80488873496734"/>
      <point x="169.19019463386002" y="344.426319601182" type="curve" smooth="yes"/>
      <point x="123.06711941565558" y="392.2152578896801" type="line" smooth="yes"/>
      <point x="61.74734315596592" y="455.7497683201985"/>
      <point x="89.0" y="569.0"/>
      <point x="170.0" y="618.0" type="curve" smooth="yes"/>
      <point x="293.0" y="693.0"/>
      <point x="493.0" y="737.0"/>
      <point x="556.0" y="739.0" type="curve"/>
      <point x="560.0" y="567.0" type="line"/>
      <point x="541.0" y="565.0"/>
      <point x="368.0" y="527.0"/>
      <point x="279.0" y="482.0" type="curve"/>
      <point x="281.1" y="491.1"/>
      <point x="282.9" y="498.9"/>
      <point x="285.0" y="508.0" type="curve"/>
      <point x="558.0" y="228.0" type="line" smooth="yes"/>
      <point x="643.0" y="141.0"/>
      <point x="583.0" y="0.0"/>
      <point x="462.0" y="0.0" type="curve" smooth="yes"/>
    </contour>
  </outline>
</glyph>
<glyph name="arKaf.isol" format="2">
  <advance width="726"/>
  <anchor x="573.0" y="673.0" name="dotAbove"/>
  <anchor x="573.0" y="721.0" name="markAbove"/>
  <anchor x="362.0" y="-109.0" name="dotBelow"/>
  <anchor x="362.0" y="-144.0" name="markBelow"/>
  <anchor x="300.0" y="311.0" name="uni0653"/>
  <anchor x="300.0" y="311.0" name="arKaf.above"/>
  <anchor x="300.0" y="311.0" name="arSad.above"/>
  <anchor x="300.0" y="311.0" name="uni0654"/>
  <outline>
    <contour>
      <point x="222.0" y="172.0" type="line"/>
      <point x="366.0" y="0.0" type="line"/>
      <point x="204.0" y="0.0" type="line"/>
      <point x="60.0" y="172.0" type="line"/>
    </contour>
    <contour>
      <point x="494.0" y="624.0" type="line"/>
      <point x="666.0" y="624.0" type="line"/>
      <point x="666.0" y="138.0" type="line" smooth="yes"/>
      <point x="666.0" y="62.0"/>
      <point x="603.0" y="0.0"/>
      <point x="527.0" y="0.0" type="curve" smooth="yes"/>
      <point x="204.0" y="0.0" type="line"/>
      <point x="204.0" y="172.0" type="line"/>
      <point x="514.0" y="172.0" type="line"/>
      <point x="507.0" y="165.0"/>
      <point x="501.0" y="159.0"/>
      <point x="494.0" y="152.0" type="curve"/>
    </contour>
  </outline>
</glyph>
<glyph name="arLam.init.1" format="2">
  <advance width="592"/>
  <outline>
    <contour>
      <point x="360.0" y="624.0" type="line"/>
      <point x="532.0" y="624.0" type="line"/>
      <point x="532.0" y="138.0" type="line" smooth="yes"/>
      <point x="532.0" y="62.0"/>
      <point x="469.0" y="0.0"/>
      <point x="393.0" y="0.0" type="curve" smooth="yes"/>
      <point x="60.0" y="0.0" type="line"/>
      <point x="60.0" y="172.0" type="line"/>
      <point x="380.0" y="172.0" type="line"/>
      <point x="360.0" y="152.0" type="line"/>
    </contour>
  </outline>
</glyph>
<glyph name="arLam.init" format="2">
  <advance width="370"/>
  <outline>
    <contour>
      <point x="138.0" y="624.0" type="line"/>
      <point x="310.0" y="624.0" type="line"/>
      <point x="310.0" y="138.0" type="line" smooth="yes"/>
      <point x="310.0" y="62.0"/>
      <point x="247.0" y="0.0"/>
      <point x="171.0" y="0.0" type="curve" smooth="yes"/>
      <point x="0.0" y="0.0" type="line"/>
      <point x="0.0" y="172.0" type="line"/>
      <point x="158.0" y="172.0" type="line"/>
      <point x="151.0" y="165.0"/>
      <point x="145.0" y="159.0"/>
      <point x="138.0" y="152.0" type="curve"/>
    </contour>
    <component base="arTah.above" xOffset="225.0" yOffset="724.0" identifier="mark_arTah.above"/>
    <component base="ar3Dot.above" xOffset="225.0" yOffset="724.0" identifier="mark_ar3Dot.above"/>
    <component base="ar1Dot.above" xOffset="225.0" yOffset="724.0" identifier="mark_ar1Dot.above"/>
    <component base="uni0652" xOffset="225.0" yOffset="772.0" identifier="mark_uni0652"/>
    <component base="uni064F" xOffset="225.0" yOffset="767.0" identifier="mark_uni064F"/>
    <component base="uni064C" xOffset="225.0" yOffset="765.0" identifier="mark_uni064C"/>
    <component base="ar3IDot.below" xOffset="195.0" yOffset="-99.0" identifier="mark_ar3IDot.below"/>
    <component base="ar2Dot.below" xOffset="195.0" yOffset="-99.0" identifier="mark_ar2Dot.below"/>
    <component base="uni0656" xOffset="195.0" yOffset="-99.0" identifier="mark_uni0656"/>
    <component base="uni064D" xOffset="195.0" yOffset="-134.0" identifier="mark_uni064D"/>
    <component base="uni0650" xOffset="195.0" yOffset="-124.0" identifier="mark_uni0650"/>
    <component base="ar1Dot.below" xOffset="195.0" yOffset="-99.0" identifier="mark_ar1Dot.below"/>
    <component base="ar3Dot.below" xOffset="195.0" yOffset="-99.0" identifier="mark_ar3Dot.below"/>
    <component base="uni064B" xOffset="225.0" yOffset="769.0" identifier="mark_uni064B"/>
    <component base="uni064E" xOffset="225.0" yOffset="749.0" identifier="mark_uni064E"/>
    <component base="uni0651" xOffset="225.0" yOffset="768.0" identifier="mark_uni0651"/>
    <component base="uni0670" xOffset="225.0" yOffset="724.0" identifier="mark_uni0670"/>
    <component base="ar2Dot.above" xOffset="225.0" yOffset="724.0" identifier="mark_ar2Dot.above"/>
    <component base="ar3IDot.above" xOffset="225.0" yOffset="724.0" identifier="mark_ar3IDot.above"/>
  </outline>
</glyph>
<glyph name="arLam.isol" format="2">
  <advance width="660"/>
  <outline>
    <contour>
      <point x="428.0" y="624.0" type="line"/>
      <point x="600.0" y="624.0" type="line"/>
      <point x="600.0" y="-8.0" type="line" smooth="yes"/>
      <point x="600.0" y="-84.0"/>
      <point x="538.0" y="-148.0"/>
      <point x="460.0" y="-148.0" type="curve" smooth="yes"/>
      <point x="201.0" y="-148.0" type="line" smooth="yes"/>
      <point x="125.0" y="-148.0"/>
      <point x="60.0" y="-86.0"/>
      <point x="60.0" y="-9.0" type="curve" smooth="yes"/>
      <point x="60.0" y="180.0" type="line"/>
      <point x="232.0" y="180.0" type="line"/>
      <point x="232.0" y="4.0" type="line"/>
      <point x="225.0" y="11.0"/>
      <point x="219.0" y="17.0"/>
      <point x="212.0" y="24.0" type="curve"/>
      <point x="448.0" y="24.0" type="line"/>
      <point x="441.0" y="17.0"/>
      <point x="435.0" y="11.0"/>
      <point x="428.0" y="4.0" type="curve"/>
    </contour>
    <component base="arTah.above" xOffset="514.0" yOffset="674.0" identifier="mark_arTah.above"/>
    <component base="ar3Dot.above" xOffset="514.0" yOffset="674.0" identifier="mark_ar3Dot.above"/>
    <component base="ar1Dot.above" xOffset="514.0" yOffset="674.0" identifier="mark_ar1Dot.above"/>
    <component base="uni0652" xOffset="514.0" yOffset="722.0" identifier="mark_uni0652"/>
    <component base="uni064F" xOffset="514.0" yOffset="717.0" identifier="mark_uni064F"/>
    <component base="uni064C" xOffset="514.0" yOffset="715.0" identifier="mark_uni064C"/>
    <component base="ar3IDot.below" xOffset="327.0" yOffset="-258.0" identifier="mark_ar3IDot.below"/>
    <component base="ar2Dot.below" xOffset="327.0" yOffset="-258.0" identifier="mark_ar2Dot.below"/>
    <component base="uni0656" xOffset="327.0" yOffset="-258.0" identifier="mark_uni0656"/>
    <component base="uni064D" xOffset="327.0" yOffset="-293.0" identifier="mark_uni064D"/>
    <component base="uni0650" xOffset="327.0" yOffset="-283.0" identifier="mark_uni0650"/>
    <component base="ar1Dot.below" xOffset="327.0" yOffset="-258.0" identifier="mark_ar1Dot.below"/>
    <component base="ar3Dot.below" xOffset="327.0" yOffset="-258.0" identifier="mark_ar3Dot.below"/>
    <component base="uni064B" xOffset="514.0" yOffset="719.0" identifier="mark_uni064B"/>
    <component base="uni064E" xOffset="514.0" yOffset="699.0" identifier="mark_uni064E"/>
    <component base="uni0651" xOffset="514.0" yOffset="718.0" identifier="mark_uni0651"/>
    <component base="uni0670" xOffset="514.0" yOffset="674.0" identifier="mark_uni0670"/>
    <component base="ar2Dot.above" xOffset="514.0" yOffset="674.0" identifier="mark_ar2Dot.above"/>
    <component base="ar3IDot.above" xOffset="514.0" yOffset="674.0" identifier="mark_ar3IDot.above"/>
  </outline>
</glyph>
<glyph name="arMeem.fina" format="2">
  <advance width="638.0"/>
  <outline>
    <contour>
      <point x="658.0" y="172.0" type="line"/>
      <point x="658.0" y="0.0" type="line"/>
      <point x="632.0" y="0.0" type="line"/>
      <point x="632.0" y="172.0" type="line"/>
    </contour>
    <component base="arMeem.isol"/>
  </outline>
</glyph>
<glyph name="arMeem.init" format="2">
  <advance width="615"/>
  <outline>
    <contour>
      <point x="0.0" y="0.0" type="line"/>
      <point x="0.0" y="172.0" type="line"/>
      <point x="136.0" y="172.0" type="line"/>
      <point x="129.0" y="165.0"/>
      <point x="123.0" y="159.0"/>
      <point x="116.0" y="152.0" type="curve"/>
      <point x="116.0" y="271.0" type="line" smooth="yes"/>
      <point x="116.0" y="324.0"/>
      <point x="137.0" y="373.0"/>
      <point x="172.0" y="406.0" type="curve" smooth="yes"/>
      <point x="251.0" y="481.0"/>
      <point x="380.0" y="475.0"/>
      <point x="458.0" y="393.0" type="curve" smooth="yes"/>
      <point x="517.0" y="330.0"/>
      <point x="555.0" y="265.0"/>
      <point x="555.0" y="195.0" type="curve" smooth="yes"/>
      <point x="555.0" y="50.0"/>
      <point x="411.0" y="0.0"/>
      <point x="314.0" y="0.0" type="curve" smooth="yes"/>
      <point x="248.0" y="0.0" type="line"/>
      <point x="248.0" y="172.0" type="line"/>
      <point x="314.0" y="172.0" type="line" smooth="yes"/>
      <point x="381.0" y="172.0"/>
      <point x="383.0" y="194.0"/>
      <point x="383.0" y="194.0" type="curve"/>
      <point x="383.0" y="199.0"/>
      <point x="377.0" y="229.0"/>
      <point x="333.0" y="275.0" type="curve" smooth="yes"/>
      <point x="323.0" y="286.0"/>
      <point x="310.0" y="286.0"/>
      <point x="301.0" y="285.0" type="curve" smooth="yes"/>
      <point x="288.0" y="283.0"/>
      <point x="288.0" y="268.0"/>
      <point x="288.0" y="259.0" type="curve" smooth="yes"/>
      <point x="288.0" y="168.0" type="line" smooth="yes"/>
      <point x="288.0" y="83.0"/>
      <point x="261.0" y="0.0"/>
      <point x="145.0" y="0.0" type="curve" smooth="yes"/>
    </contour>
    <component base="ar3IDot.below" xOffset="309.0" yOffset="-150.0" identifier="mark_ar3IDot.below"/>
    <component base="ar2Dot.below" xOffset="309.0" yOffset="-150.0" identifier="mark_ar2Dot.below"/>
    <component base="uni0656" xOffset="309.0" yOffset="-150.0" identifier="mark_uni0656"/>
    <component base="uni064D" xOffset="309.0" yOffset="-185.0" identifier="mark_uni064D"/>
    <component base="ar3IDot.above" xOffset="307.0" yOffset="608.0" identifier="mark_ar3IDot.above"/>
    <component base="ar2Dot.above" xOffset="307.0" yOffset="608.0" identifier="mark_ar2Dot.above"/>
    <component base="uni0670" xOffset="307.0" yOffset="608.0" identifier="mark_uni0670"/>
    <component base="uni0651" xOffset="307.0" yOffset="652.0" identifier="mark_uni0651"/>
    <component base="uni064E" xOffset="307.0" yOffset="633.0" identifier="mark_uni064E"/>
    <component base="uni064B" xOffset="307.0" yOffset="653.0" identifier="mark_uni064B"/>
    <component base="uni064C" xOffset="307.0" yOffset="649.0" identifier="mark_uni064C"/>
    <component base="uni064F" xOffset="307.0" yOffset="651.0" identifier="mark_uni064F"/>
    <component base="uni0652" xOffset="307.0" yOffset="656.0" identifier="mark_uni0652"/>
    <component base="ar1Dot.above" xOffset="307.0" yOffset="608.0" identifier="mark_ar1Dot.above"/>
    <component base="ar3Dot.above" xOffset="307.0" yOffset="608.0" identifier="mark_ar3Dot.above"/>
    <component base="arTah.above" xOffset="307.0" yOffset="608.0" identifier="mark_arTah.above"/>
    <component base="uni0650" xOffset="309.0" yOffset="-175.0" identifier="mark_uni0650"/>
    <component base="ar1Dot.below" xOffset="309.0" yOffset="-150.0" identifier="mark_ar1Dot.below"/>
    <component base="ar3Dot.below" xOffset="309.0" yOffset="-150.0" identifier="mark_ar3Dot.below"/>
  </outline>
</glyph>
<glyph name="arMeem.isol" format="2">
  <advance width="837"/>
  <outline>
    <contour>
      <point x="222.0" y="172.0" type="line"/>
      <point x="366.0" y="0.0" type="line"/>
      <point x="204.0" y="0.0" type="line"/>
      <point x="60.0" y="172.0" type="line"/>
    </contour>
    <component base="arMeem.init" xOffset="222.0"/>
    <component base="ar3IDot.below" xOffset="531.0" yOffset="-150.0" identifier="mark_ar3IDot.below"/>
    <component base="ar2Dot.below" xOffset="531.0" yOffset="-150.0" identifier="mark_ar2Dot.below"/>
    <component base="uni0656" xOffset="531.0" yOffset="-150.0" identifier="mark_uni0656"/>
    <component base="uni064D" xOffset="531.0" yOffset="-185.0" identifier="mark_uni064D"/>
    <component base="ar3IDot.above" xOffset="529.0" yOffset="608.0" identifier="mark_ar3IDot.above"/>
    <component base="ar2Dot.above" xOffset="529.0" yOffset="608.0" identifier="mark_ar2Dot.above"/>
    <component base="uni0670" xOffset="529.0" yOffset="608.0" identifier="mark_uni0670"/>
    <component base="uni0651" xOffset="529.0" yOffset="652.0" identifier="mark_uni0651"/>
    <component base="uni064E" xOffset="529.0" yOffset="633.0" identifier="mark_uni064E"/>
    <component base="uni064B" xOffset="529.0" yOffset="653.0" identifier="mark_uni064B"/>
    <component base="uni064C" xOffset="529.0" yOffset="649.0" identifier="mark_uni064C"/>
    <component base="uni064F" xOffset="529.0" yOffset="651.0" identifier="mark_uni064F"/>
    <component base="uni0652" xOffset="529.0" yOffset="656.0" identifier="mark_uni0652"/>
    <component base="ar1Dot.above" xOffset="529.0" yOffset="608.0" identifier="mark_ar1Dot.above"/>
    <component base="ar3Dot.above" xOffset="529.0" yOffset="608.0" identifier="mark_ar3Dot.above"/>
    <component base="arTah.above" xOffset="529.0" yOffset="608.0" identifier="mark_arTah.above"/>
    <component base="uni0650" xOffset="531.0" yOffset="-175.0" identifier="mark_uni0650"/>
    <component base="ar1Dot.below" xOffset="531.0" yOffset="-150.0" identifier="mark_ar1Dot.below"/>
    <component base="ar3Dot.below" xOffset="531.0" yOffset="-150.0" identifier="mark_ar3Dot.below"/>
  </outline>
</glyph>
<glyph name="arMeem.medi" format="2">
  <advance width="555"/>
  <outline>
    <contour>
      <point x="575.0" y="172.0" type="line"/>
      <point x="575.0" y="0.0" type="line"/>
      <point x="549.0" y="0.0" type="line"/>
      <point x="549.0" y="172.0" type="line"/>
    </contour>
    <component base="arMeem.init"/>
  </outline>
</glyph>
<glyph name="arNoon.fina" format="2">
  <advance width="684"/>
  <outline>
    <contour>
      <point x="704.0" y="172.0" type="line"/>
      <point x="704.0" y="0.0" type="line"/>
      <point x="543.0" y="0.0" type="line"/>
      <point x="543.0" y="172.0" type="line"/>
    </contour>
    <component base="arNoon.isol"/>
  </outline>
</glyph>
<glyph name="arNoon.isol" format="2">
  <advance width="656"/>
  <outline>
    <contour>
      <point x="424.0" y="222.0" type="line"/>
      <point x="596.0" y="222.0" type="line"/>
      <point x="596.0" y="-49.0" type="line" smooth="yes"/>
      <point x="596.0" y="-125.0"/>
      <point x="536.0" y="-187.0"/>
      <point x="459.0" y="-187.0" type="curve" smooth="yes"/>
      <point x="320.0" y="-187.0" type="line" smooth="yes"/>
      <point x="192.0" y="-187.0"/>
      <point x="60.0" y="-114.0"/>
      <point x="60.0" y="31.0" type="curve" smooth="yes"/>
      <point x="60.0" y="221.0" type="line"/>
      <point x="232.0" y="221.0" type="line"/>
      <point x="232.0" y="32.0" type="line" smooth="yes"/>
      <point x="232.0" y="5.0"/>
      <point x="259.0" y="-15.0"/>
      <point x="320.0" y="-15.0" type="curve" smooth="yes"/>
      <point x="464.0" y="-15.0" type="line"/>
      <point x="450.0" y="-25.5"/>
      <point x="438.0" y="-34.5"/>
      <point x="424.0" y="-45.0" type="curve"/>
    </contour>
    <component base="ar3IDot.below" xOffset="389.0" yOffset="-297.0" identifier="mark_ar3IDot.below"/>
    <component base="ar2Dot.below" xOffset="389.0" yOffset="-297.0" identifier="mark_ar2Dot.below"/>
    <component base="uni0656" xOffset="389.0" yOffset="-297.0" identifier="mark_uni0656"/>
    <component base="uni064D" xOffset="389.0" yOffset="-332.0" identifier="mark_uni064D"/>
    <component base="ar3IDot.above" xOffset="328.0" yOffset="382.0" identifier="mark_ar3IDot.above"/>
    <component base="ar2Dot.above" xOffset="328.0" yOffset="382.0" identifier="mark_ar2Dot.above"/>
    <component base="uni0670" xOffset="328.0" yOffset="382.0" identifier="mark_uni0670"/>
    <component base="uni0651" xOffset="328.0" yOffset="426.0" identifier="mark_uni0651"/>
    <component base="uni064E" xOffset="328.0" yOffset="407.0" identifier="mark_uni064E"/>
    <component base="uni064B" xOffset="328.0" yOffset="427.0" identifier="mark_uni064B"/>
    <component base="uni064C" xOffset="328.0" yOffset="423.0" identifier="mark_uni064C"/>
    <component base="uni064F" xOffset="328.0" yOffset="425.0" identifier="mark_uni064F"/>
    <component base="uni0652" xOffset="328.0" yOffset="430.0" identifier="mark_uni0652"/>
    <component base="ar1Dot.above" xOffset="328.0" yOffset="382.0" identifier="mark_ar1Dot.above"/>
    <component base="ar3Dot.above" xOffset="328.0" yOffset="382.0" identifier="mark_ar3Dot.above"/>
    <component base="arTah.above" xOffset="328.0" yOffset="382.0" identifier="mark_arTah.above"/>
    <component base="uni0650" xOffset="389.0" yOffset="-322.0" identifier="mark_uni0650"/>
    <component base="ar1Dot.below" xOffset="389.0" yOffset="-297.0" identifier="mark_ar1Dot.below"/>
    <component base="ar3Dot.below" xOffset="389.0" yOffset="-297.0" identifier="mark_ar3Dot.below"/>
  </outline>
</glyph>
<glyph name="arQaf.fina" format="2">
  <advance width="884"/>
  <outline>
    <contour>
      <point x="904.0" y="172.0" type="line"/>
      <point x="904.0" y="0.0" type="line"/>
      <point x="646.0" y="0.0" type="line" smooth="yes"/>
      <point x="555.0" y="0.0"/>
      <point x="454.0" y="0.0"/>
      <point x="390.0" y="106.0" type="curve" smooth="yes"/>
      <point x="320.0" y="221.0"/>
      <point x="379.0" y="349.0"/>
      <point x="461.0" y="403.0" type="curve" smooth="yes"/>
      <point x="551.0" y="461.0"/>
      <point x="703.0" y="457.0"/>
      <point x="776.0" y="341.0" type="curve" smooth="yes"/>
      <point x="797.0" y="308.0"/>
      <point x="808.0" y="267.0"/>
      <point x="808.0" y="224.0" type="curve" smooth="yes"/>
      <point x="808.0" y="-60.0" type="line" smooth="yes"/>
      <point x="808.0" y="-137.0"/>
      <point x="745.0" y="-200.0"/>
      <point x="667.0" y="-200.0" type="curve" smooth="yes"/>
      <point x="245.0" y="-200.0" type="line" smooth="yes"/>
      <point x="148.0" y="-200.0"/>
      <point x="60.0" y="-127.0"/>
      <point x="60.0" y="-20.0" type="curve" smooth="yes"/>
      <point x="60.0" y="222.0" type="line"/>
      <point x="232.0" y="222.0" type="line"/>
      <point x="232.0" y="-48.0" type="line"/>
      <point x="225.0" y="-41.0"/>
      <point x="219.0" y="-35.0"/>
      <point x="212.0" y="-28.0" type="curve"/>
      <point x="656.0" y="-28.0" type="line"/>
      <point x="649.0" y="-35.0"/>
      <point x="643.0" y="-41.0"/>
      <point x="636.0" y="-48.0" type="curve"/>
      <point x="636.0" y="214.0" type="line" smooth="yes"/>
      <point x="636.0" y="246.0"/>
      <point x="621.0" y="260.0"/>
      <point x="602.0" y="266.0" type="curve" smooth="yes"/>
      <point x="582.0" y="273.0"/>
      <point x="560.0" y="266.0"/>
      <point x="547.0" y="252.0" type="curve" smooth="yes"/>
      <point x="530.0" y="233.0"/>
      <point x="529.0" y="209.0"/>
      <point x="538.0" y="194.0" type="curve" smooth="yes"/>
      <point x="552.0" y="170.0"/>
      <point x="559.0" y="172.0"/>
      <point x="646.0" y="172.0" type="curve" smooth="yes"/>
    </contour>
    <component base="arTah.above" xOffset="579.0" yOffset="560.0" identifier="mark_arTah.above"/>
    <component base="ar3Dot.above" xOffset="579.0" yOffset="560.0" identifier="mark_ar3Dot.above"/>
    <component base="ar1Dot.above" xOffset="579.0" yOffset="560.0" identifier="mark_ar1Dot.above"/>
    <component base="uni0652" xOffset="579.0" yOffset="608.0" identifier="mark_uni0652"/>
    <component base="uni064F" xOffset="579.0" yOffset="603.0" identifier="mark_uni064F"/>
    <component base="uni064C" xOffset="579.0" yOffset="601.0" identifier="mark_uni064C"/>
    <component base="ar3IDot.below" xOffset="429.0" yOffset="-338.0" identifier="mark_ar3IDot.below"/>
    <component base="ar2Dot.below" xOffset="429.0" yOffset="-338.0" identifier="mark_ar2Dot.below"/>
    <component base="uni0656" xOffset="429.0" yOffset="-338.0" identifier="mark_uni0656"/>
    <component base="uni064D" xOffset="429.0" yOffset="-373.0" identifier="mark_uni064D"/>
    <component base="uni0650" xOffset="429.0" yOffset="-363.0" identifier="mark_uni0650"/>
    <component base="ar1Dot.below" xOffset="429.0" yOffset="-338.0" identifier="mark_ar1Dot.below"/>
    <component base="ar3Dot.below" xOffset="429.0" yOffset="-338.0" identifier="mark_ar3Dot.below"/>
    <component base="uni064B" xOffset="579.0" yOffset="605.0" identifier="mark_uni064B"/>
    <component base="uni064E" xOffset="579.0" yOffset="585.0" identifier="mark_uni064E"/>
    <component base="uni0651" xOffset="579.0" yOffset="604.0" identifier="mark_uni0651"/>
    <component base="uni0670" xOffset="579.0" yOffset="560.0" identifier="mark_uni0670"/>
    <component base="ar2Dot.above" xOffset="579.0" yOffset="560.0" identifier="mark_ar2Dot.above"/>
    <component base="ar3IDot.above" xOffset="579.0" yOffset="560.0" identifier="mark_ar3IDot.above"/>
  </outline>
</glyph>
<glyph name="arQaf.isol" format="2">
  <advance width="868"/>
  <anchor x="579.0" y="560.0" name="dotAbove"/>
  <anchor x="579.0" y="608.0" name="markAbove"/>
  <anchor x="429.0" y="-338.0" name="dotBelow"/>
  <anchor x="429.0" y="-373.0" name="markBelow"/>
  <outline>
    <contour>
      <point x="676.0" y="21.0" type="line"/>
      <point x="576.0" y="16.0"/>
      <point x="454.0" y="1.0"/>
      <point x="390.0" y="107.0" type="curve" smooth="yes"/>
      <point x="320.0" y="222.0"/>
      <point x="379.0" y="350.0"/>
      <point x="461.0" y="404.0" type="curve" smooth="yes"/>
      <point x="551.0" y="462.0"/>
      <point x="703.0" y="458.0"/>
      <point x="776.0" y="342.0" type="curve" smooth="yes"/>
      <point x="797.0" y="309.0"/>
      <point x="808.0" y="268.0"/>
      <point x="808.0" y="225.0" type="curve" smooth="yes"/>
      <point x="808.0" y="-59.0" type="line" smooth="yes"/>
      <point x="808.0" y="-136.0"/>
      <point x="745.0" y="-199.0"/>
      <point x="667.0" y="-199.0" type="curve" smooth="yes"/>
      <point x="245.0" y="-199.0" type="line" smooth="yes"/>
      <point x="148.0" y="-199.0"/>
      <point x="60.0" y="-126.0"/>
      <point x="60.0" y="-19.0" type="curve" smooth="yes"/>
      <point x="60.0" y="223.0" type="line"/>
      <point x="232.0" y="223.0" type="line"/>
      <point x="232.0" y="-47.0" type="line"/>
      <point x="225.0" y="-40.0"/>
      <point x="219.0" y="-34.0"/>
      <point x="212.0" y="-27.0" type="curve"/>
      <point x="656.0" y="-27.0" type="line"/>
      <point x="649.0" y="-34.0"/>
      <point x="643.0" y="-40.0"/>
      <point x="636.0" y="-47.0" type="curve"/>
      <point x="636.0" y="215.0" type="line" smooth="yes"/>
      <point x="636.0" y="247.0"/>
      <point x="621.0" y="261.0"/>
      <point x="602.0" y="267.0" type="curve" smooth="yes"/>
      <point x="582.0" y="274.0"/>
      <point x="560.0" y="267.0"/>
      <point x="547.0" y="253.0" type="curve" smooth="yes"/>
      <point x="530.0" y="234.0"/>
      <point x="529.0" y="210.0"/>
      <point x="538.0" y="195.0" type="curve" smooth="yes"/>
      <point x="552.0" y="171.0"/>
      <point x="569.0" y="147.0"/>
      <point x="676.0" y="158.0" type="curve"/>
    </contour>
  </outline>
</glyph>
<glyph name="arReh.fina" format="2">
  <advance width="416"/>
  <anchor x="241.0" y="441.0" name="dotAbove"/>
  <anchor x="241.0" y="489.0" name="markAbove"/>
  <anchor x="123.0" y="-380.0" name="dotBelow"/>
  <anchor x="123.0" y="-415.0" name="markBelow"/>
  <outline>
    <contour>
      <point x="436.0" y="172.0" type="line"/>
      <point x="436.0" y="0.0" type="line"/>
      <point x="271.0" y="0.0" type="line"/>
      <point x="271.0" y="172.0" type="line"/>
    </contour>
    <component base="arReh.isol"/>
  </outline>
</glyph>
<glyph name="arReh.isol" format="2">
  <advance width="387"/>
  <outline>
    <contour>
      <point x="155.0" y="221.0" type="line"/>
      <point x="327.0" y="221.0" type="line"/>
      <point x="327.0" y="3.0" type="line" smooth="yes"/>
      <point x="327.0" y="-120.0"/>
      <point x="235.0" y="-230.0"/>
      <point x="102.0" y="-230.0" type="curve" smooth="yes"/>
      <point x="0.0" y="-230.0" type="line"/>
      <point x="0.0" y="-58.0" type="line"/>
      <point x="102.0" y="-58.0" type="line" smooth="yes"/>
      <point x="131.0" y="-58.0"/>
      <point x="155.0" y="-38.0"/>
      <point x="155.0" y="3.0" type="curve" smooth="yes"/>
    </contour>
    <component base="arTah.above" xOffset="241.0" yOffset="441.0" identifier="mark_arTah.above"/>
    <component base="ar3Dot.above" xOffset="241.0" yOffset="441.0" identifier="mark_ar3Dot.above"/>
    <component base="ar1Dot.above" xOffset="241.0" yOffset="441.0" identifier="mark_ar1Dot.above"/>
    <component base="uni0652" xOffset="241.0" yOffset="489.0" identifier="mark_uni0652"/>
    <component base="uni064F" xOffset="241.0" yOffset="484.0" identifier="mark_uni064F"/>
    <component base="uni064C" xOffset="241.0" yOffset="482.0" identifier="mark_uni064C"/>
    <component base="ar3IDot.below" xOffset="123.0" yOffset="-380.0" identifier="mark_ar3IDot.below"/>
    <component base="ar2Dot.below" xOffset="123.0" yOffset="-380.0" identifier="mark_ar2Dot.below"/>
    <component base="uni0656" xOffset="123.0" yOffset="-380.0" identifier="mark_uni0656"/>
    <component base="uni064D" xOffset="123.0" yOffset="-415.0" identifier="mark_uni064D"/>
    <component base="uni0650" xOffset="123.0" yOffset="-405.0" identifier="mark_uni0650"/>
    <component base="ar1Dot.below" xOffset="123.0" yOffset="-380.0" identifier="mark_ar1Dot.below"/>
    <component base="ar3Dot.below" xOffset="123.0" yOffset="-380.0" identifier="mark_ar3Dot.below"/>
    <component base="uni064B" xOffset="241.0" yOffset="486.0" identifier="mark_uni064B"/>
    <component base="uni064E" xOffset="241.0" yOffset="466.0" identifier="mark_uni064E"/>
    <component base="uni0651" xOffset="241.0" yOffset="485.0" identifier="mark_uni0651"/>
    <component base="uni0670" xOffset="241.0" yOffset="441.0" identifier="mark_uni0670"/>
    <component base="ar2Dot.above" xOffset="241.0" yOffset="441.0" identifier="mark_ar2Dot.above"/>
    <component base="ar3IDot.above" xOffset="241.0" yOffset="441.0" identifier="mark_ar3IDot.above"/>
  </outline>
</glyph>
<glyph name="arSad.above" format="2">
  <outline>
    <contour>
      <point x="-74.0" y="-0.0" type="line"/>
      <point x="-172.0" y="-0.0" type="line"/>
      <point x="-172.0" y="86.0" type="line"/>
      <point x="-74.0" y="86.0" type="line"/>
    </contour>
    <contour>
      <point x="-98.0" y="86.0" type="line"/>
      <point x="-56.0" y="144.0"/>
      <point x="7.0" y="252.0"/>
      <point x="106.0" y="216.0" type="curve" smooth="yes"/>
      <point x="152.0" y="196.0"/>
      <point x="171.0" y="152.0"/>
      <point x="172.0" y="104.0" type="curve" smooth="yes"/>
      <point x="172.0" y="70.0" type="line"/>
      <point x="174.0" y="31.0"/>
      <point x="141.0" y="0.0"/>
      <point x="103.0" y="0.0" type="curve" smooth="yes"/>
      <point x="-113.0" y="0.0" type="line"/>
      <point x="-113.0" y="86.0" type="line"/>
      <point x="96.0" y="86.0" type="line"/>
      <point x="92.5" y="82.5"/>
      <point x="89.5" y="79.5"/>
      <point x="86.0" y="76.0" type="curve"/>
      <point x="86.0" y="102.0" type="line" smooth="yes"/>
      <point x="85.0" y="134.0"/>
      <point x="78.0" y="134.0"/>
      <point x="74.0" y="136.0" type="curve" smooth="yes"/>
      <point x="52.0" y="143.0"/>
      <point x="6.0" y="87.0"/>
      <point x="-31.0" y="31.0" type="curve"/>
    </contour>
    <component base="uni0670" yOffset="240.0" identifier="mark_uni0670"/>
    <component base="uni0651" yOffset="284.0" identifier="mark_uni0651"/>
    <component base="uni064E" yOffset="265.0" identifier="mark_uni064E"/>
    <component base="uni064B" yOffset="285.0" identifier="mark_uni064B"/>
    <component base="uni064C" yOffset="281.0" identifier="mark_uni064C"/>
    <component base="uni064F" yOffset="283.0" identifier="mark_uni064F"/>
    <component base="uni0652" yOffset="288.0" identifier="mark_uni0652"/>
  </outline>
</glyph>
<glyph name="arSad.head" format="2">
  <outline>
    <contour>
      <point x="-256.0" y="172.0" type="line"/>
      <point x="-173.0" y="288.0"/>
      <point x="-46.0" y="506.0"/>
      <point x="152.0" y="433.0" type="curve" smooth="yes"/>
      <point x="245.0" y="394.0"/>
      <point x="281.0" y="304.0"/>
      <point x="283.0" y="207.0" type="curve" smooth="yes"/>
      <point x="285.0" y="141.0" type="line" smooth="yes"/>
      <point x="288.0" y="63.0"/>
      <point x="223.0" y="0.0"/>
      <point x="146.0" y="0.0" type="curve" smooth="yes"/>
      <point x="-286.0" y="0.0" type="line"/>
      <point x="-286.0" y="172.0" type="line"/>
      <point x="132.0" y="172.0" type="line"/>
      <point x="125.0" y="165.0"/>
      <point x="119.0" y="159.0"/>
      <point x="112.0" y="152.0" type="curve"/>
      <point x="113.0" y="203.0" type="line"/>
      <point x="111.0" y="268.0"/>
      <point x="97.0" y="269.0"/>
      <point x="89.0" y="273.0" type="curve" smooth="yes"/>
      <point x="46.0" y="287.0"/>
      <point x="-48.0" y="174.0"/>
      <point x="-122.0" y="62.0" type="curve"/>
    </contour>
    <component base="arTah.above" yOffset="507.0" identifier="mark_arTah.above"/>
    <component base="ar3Dot.above" yOffset="507.0" identifier="mark_ar3Dot.above"/>
    <component base="ar1Dot.above" yOffset="507.0" identifier="mark_ar1Dot.above"/>
    <component base="uni0652" yOffset="555.0" identifier="mark_uni0652"/>
    <component base="uni064F" yOffset="550.0" identifier="mark_uni064F"/>
    <component base="uni064C" yOffset="548.0" identifier="mark_uni064C"/>
    <component base="ar3IDot.below" yOffset="-200.0" identifier="mark_ar3IDot.below"/>
    <component base="ar2Dot.below" yOffset="-200.0" identifier="mark_ar2Dot.below"/>
    <component base="uni0656" yOffset="-200.0" identifier="mark_uni0656"/>
    <component base="uni064D" yOffset="-235.0" identifier="mark_uni064D"/>
    <component base="uni0650" yOffset="-225.0" identifier="mark_uni0650"/>
    <component base="ar1Dot.below" yOffset="-200.0" identifier="mark_ar1Dot.below"/>
    <component base="ar3Dot.below" yOffset="-200.0" identifier="mark_ar3Dot.below"/>
    <component base="uni064B" yOffset="552.0" identifier="mark_uni064B"/>
    <component base="uni064E" yOffset="532.0" identifier="mark_uni064E"/>
    <component base="uni0651" yOffset="551.0" identifier="mark_uni0651"/>
    <component base="uni0670" yOffset="507.0" identifier="mark_uni0670"/>
    <component base="ar2Dot.above" yOffset="507.0" identifier="mark_ar2Dot.above"/>
    <component base="ar3IDot.above" yOffset="507.0" identifier="mark_ar3IDot.above"/>
  </outline>
</glyph>
<glyph name="arSad.init" format="2">
  <advance width="719"/>
  <outline>
    <contour>
      <point x="246.0" y="0.0" type="line"/>
      <point x="0.0" y="0.0" type="line"/>
      <point x="0.0" y="172.0" type="line"/>
      <point x="246.0" y="172.0" type="line"/>
    </contour>
    <contour>
      <point x="102.0" y="311.0" type="line"/>
      <point x="274.0" y="311.0" type="line"/>
      <point x="274.0" y="92.0" type="line"/>
      <point x="102.0" y="92.0" type="line"/>
    </contour>
    <component base="arSad.head" xOffset="434.0"/>
  </outline>
</glyph>
<glyph name="arSad.isol" format="2">
  <advance width="1166"/>
  <outline>
    <contour>
      <point x="429.0" y="311.0" type="line"/>
      <point x="601.0" y="311.0" type="line"/>
      <point x="601.0" y="-93.0" type="line" smooth="yes"/>
      <point x="601.0" y="-170.0"/>
      <point x="538.0" y="-231.0"/>
      <point x="462.0" y="-231.0" type="curve" smooth="yes"/>
      <point x="195.0" y="-231.0" type="line" smooth="yes"/>
      <point x="116.0" y="-231.0"/>
      <point x="60.0" y="-163.0"/>
      <point x="60.0" y="-89.0" type="curve" smooth="yes"/>
      <point x="60.0" y="219.0" type="line"/>
      <point x="232.0" y="219.0" type="line"/>
      <point x="232.0" y="-79.0" type="line"/>
      <point x="225.0" y="-72.0"/>
      <point x="219.0" y="-66.0"/>
      <point x="212.0" y="-59.0" type="curve"/>
      <point x="449.0" y="-59.0" type="line"/>
      <point x="442.0" y="-66.0"/>
      <point x="436.0" y="-72.0"/>
      <point x="429.0" y="-79.0" type="curve"/>
    </contour>
    <component base="arSad.head" xOffset="821.0"/>
    <component base="arTah.above" xOffset="634.0" yOffset="562.0" identifier="mark_arTah.above"/>
    <component base="ar3Dot.above" xOffset="634.0" yOffset="562.0" identifier="mark_ar3Dot.above"/>
    <component base="ar1Dot.above" xOffset="634.0" yOffset="562.0" identifier="mark_ar1Dot.above"/>
    <component base="uni0652" xOffset="634.0" yOffset="610.0" identifier="mark_uni0652"/>
    <component base="uni064F" xOffset="634.0" yOffset="605.0" identifier="mark_uni064F"/>
    <component base="uni064C" xOffset="634.0" yOffset="603.0" identifier="mark_uni064C"/>
    <component base="ar3IDot.below" xOffset="339.0" yOffset="-361.0" identifier="mark_ar3IDot.below"/>
    <component base="ar2Dot.below" xOffset="339.0" yOffset="-361.0" identifier="mark_ar2Dot.below"/>
    <component base="uni0656" xOffset="339.0" yOffset="-361.0" identifier="mark_uni0656"/>
    <component base="uni064D" xOffset="339.0" yOffset="-396.0" identifier="mark_uni064D"/>
    <component base="uni0650" xOffset="339.0" yOffset="-386.0" identifier="mark_uni0650"/>
    <component base="ar1Dot.below" xOffset="339.0" yOffset="-361.0" identifier="mark_ar1Dot.below"/>
    <component base="ar3Dot.below" xOffset="339.0" yOffset="-361.0" identifier="mark_ar3Dot.below"/>
    <component base="uni064B" xOffset="634.0" yOffset="607.0" identifier="mark_uni064B"/>
    <component base="uni064E" xOffset="634.0" yOffset="587.0" identifier="mark_uni064E"/>
    <component base="uni0651" xOffset="634.0" yOffset="606.0" identifier="mark_uni0651"/>
    <component base="uni0670" xOffset="634.0" yOffset="562.0" identifier="mark_uni0670"/>
    <component base="ar2Dot.above" xOffset="634.0" yOffset="562.0" identifier="mark_ar2Dot.above"/>
    <component base="ar3IDot.above" xOffset="634.0" yOffset="562.0" identifier="mark_ar3IDot.above"/>
  </outline>
</glyph>
<glyph name="arSeen.init" format="2">
  <advance width="823"/>
  <outline>
    <contour>
      <point x="146.0" y="410.0" type="line"/>
      <point x="318.0" y="410.0" type="line"/>
      <point x="318.0" y="138.0" type="line" smooth="yes"/>
      <point x="318.0" y="62.0"/>
      <point x="255.0" y="0.0"/>
      <point x="179.0" y="0.0" type="curve" smooth="yes"/>
      <point x="0.0" y="0.0" type="line"/>
      <point x="0.0" y="172.0" type="line"/>
      <point x="166.0" y="172.0" type="line"/>
      <point x="159.0" y="165.0"/>
      <point x="153.0" y="159.0"/>
      <point x="146.0" y="152.0" type="curve"/>
    </contour>
    <contour>
      <point x="367.0" y="410.0" type="line"/>
      <point x="539.0" y="410.0" type="line"/>
      <point x="539.0" y="138.0" type="line" smooth="yes"/>
      <point x="539.0" y="62.0"/>
      <point x="476.0" y="0.0"/>
      <point x="400.0" y="0.0" type="curve" smooth="yes"/>
      <point x="279.0" y="0.0" type="line"/>
      <point x="279.0" y="172.0" type="line"/>
      <point x="387.0" y="172.0" type="line"/>
      <point x="380.0" y="165.0"/>
      <point x="374.0" y="159.0"/>
      <point x="367.0" y="152.0" type="curve"/>
    </contour>
    <contour>
      <point x="591.0" y="410.0" type="line"/>
      <point x="763.0" y="410.0" type="line"/>
      <point x="763.0" y="138.0" type="line" smooth="yes"/>
      <point x="763.0" y="61.0"/>
      <point x="699.0" y="0.0"/>
      <point x="623.0" y="0.0" type="curve" smooth="yes"/>
      <point x="521.0" y="0.0" type="line"/>
      <point x="521.0" y="172.0" type="line"/>
      <point x="611.0" y="172.0" type="line"/>
      <point x="604.0" y="165.0"/>
      <point x="598.0" y="159.0"/>
      <point x="591.0" y="152.0" type="curve"/>
    </contour>
    <component base="arTah.above" xOffset="450.0" yOffset="561.0" identifier="mark_arTah.above"/>
    <component base="ar3Dot.above" xOffset="450.0" yOffset="561.0" identifier="mark_ar3Dot.above"/>
    <component base="ar1Dot.above" xOffset="450.0" yOffset="561.0" identifier="mark_ar1Dot.above"/>
    <component base="uni0652" xOffset="450.0" yOffset="609.0" identifier="mark_uni0652"/>
    <component base="uni064F" xOffset="450.0" yOffset="604.0" identifier="mark_uni064F"/>
    <component base="uni064C" xOffset="450.0" yOffset="602.0" identifier="mark_uni064C"/>
    <component base="ar3IDot.below" xOffset="405.0" yOffset="-149.0" identifier="mark_ar3IDot.below"/>
    <component base="ar2Dot.below" xOffset="405.0" yOffset="-149.0" identifier="mark_ar2Dot.below"/>
    <component base="uni0656" xOffset="405.0" yOffset="-149.0" identifier="mark_uni0656"/>
    <component base="uni064D" xOffset="405.0" yOffset="-184.0" identifier="mark_uni064D"/>
    <component base="uni0650" xOffset="405.0" yOffset="-174.0" identifier="mark_uni0650"/>
    <component base="ar1Dot.below" xOffset="405.0" yOffset="-149.0" identifier="mark_ar1Dot.below"/>
    <component base="ar3Dot.below" xOffset="405.0" yOffset="-149.0" identifier="mark_ar3Dot.below"/>
    <component base="uni064B" xOffset="450.0" yOffset="606.0" identifier="mark_uni064B"/>
    <component base="uni064E" xOffset="450.0" yOffset="586.0" identifier="mark_uni064E"/>
    <component base="uni0651" xOffset="450.0" yOffset="605.0" identifier="mark_uni0651"/>
    <component base="uni0670" xOffset="450.0" yOffset="561.0" identifier="mark_uni0670"/>
    <component base="ar2Dot.above" xOffset="450.0" yOffset="561.0" identifier="mark_ar2Dot.above"/>
    <component base="ar3IDot.above" xOffset="450.0" yOffset="561.0" identifier="mark_ar3IDot.above"/>
  </outline>
</glyph>
<glyph name="arSeen.isol" format="2">
  <advance width="1108"/>
  <outline>
    <contour>
      <point x="429.0" y="412.0" type="line"/>
      <point x="601.0" y="412.0" type="line"/>
      <point x="601.0" y="-93.0" type="line" smooth="yes"/>
      <point x="601.0" y="-170.0"/>
      <point x="538.0" y="-231.0"/>
      <point x="462.0" y="-231.0" type="curve" smooth="yes"/>
      <point x="195.0" y="-231.0" type="line" smooth="yes"/>
      <point x="116.0" y="-231.0"/>
      <point x="60.0" y="-163.0"/>
      <point x="60.0" y="-89.0" type="curve" smooth="yes"/>
      <point x="60.0" y="219.0" type="line"/>
      <point x="232.0" y="219.0" type="line"/>
      <point x="232.0" y="-79.0" type="line"/>
      <point x="225.0" y="-72.0"/>
      <point x="219.0" y="-66.0"/>
      <point x="212.0" y="-59.0" type="curve"/>
      <point x="449.0" y="-59.0" type="line"/>
      <point x="442.0" y="-66.0"/>
      <point x="436.0" y="-72.0"/>
      <point x="429.0" y="-79.0" type="curve"/>
    </contour>
    <contour>
      <point x="652.0" y="410.0" type="line"/>
      <point x="824.0" y="410.0" type="line"/>
      <point x="824.0" y="138.0" type="line" smooth="yes"/>
      <point x="824.0" y="62.0"/>
      <point x="761.0" y="0.0"/>
      <point x="685.0" y="0.0" type="curve" smooth="yes"/>
      <point x="593.0" y="0.0" type="line"/>
      <point x="593.0" y="172.0" type="line"/>
      <point x="672.0" y="172.0" type="line"/>
      <point x="665.0" y="165.0"/>
      <point x="659.0" y="159.0"/>
      <point x="652.0" y="152.0" type="curve"/>
    </contour>
    <contour>
      <point x="876.0" y="410.0" type="line"/>
      <point x="1048.0" y="410.0" type="line"/>
      <point x="1048.0" y="138.0" type="line" smooth="yes"/>
      <point x="1048.0" y="61.0"/>
      <point x="984.0" y="0.0"/>
      <point x="908.0" y="0.0" type="curve" smooth="yes"/>
      <point x="806.0" y="0.0" type="line"/>
      <point x="806.0" y="172.0" type="line"/>
      <point x="896.0" y="172.0" type="line"/>
      <point x="889.0" y="165.0"/>
      <point x="883.0" y="159.0"/>
      <point x="876.0" y="152.0" type="curve"/>
    </contour>
    <component base="arTah.above" xOffset="734.0" yOffset="562.0" identifier="mark_arTah.above"/>
    <component base="ar3Dot.above" xOffset="734.0" yOffset="562.0" identifier="mark_ar3Dot.above"/>
    <component base="ar1Dot.above" xOffset="734.0" yOffset="562.0" identifier="mark_ar1Dot.above"/>
    <component base="uni0652" xOffset="734.0" yOffset="610.0" identifier="mark_uni0652"/>
    <component base="uni064F" xOffset="734.0" yOffset="605.0" identifier="mark_uni064F"/>
    <component base="uni064C" xOffset="734.0" yOffset="603.0" identifier="mark_uni064C"/>
    <component base="ar3IDot.below" xOffset="339.0" yOffset="-361.0" identifier="mark_ar3IDot.below"/>
    <component base="ar2Dot.below" xOffset="339.0" yOffset="-361.0" identifier="mark_ar2Dot.below"/>
    <component base="uni0656" xOffset="339.0" yOffset="-361.0" identifier="mark_uni0656"/>
    <component base="uni064D" xOffset="339.0" yOffset="-396.0" identifier="mark_uni064D"/>
    <component base="uni0650" xOffset="339.0" yOffset="-386.0" identifier="mark_uni0650"/>
    <component base="ar1Dot.below" xOffset="339.0" yOffset="-361.0" identifier="mark_ar1Dot.below"/>
    <component base="ar3Dot.below" xOffset="339.0" yOffset="-361.0" identifier="mark_ar3Dot.below"/>
    <component base="uni064B" xOffset="734.0" yOffset="607.0" identifier="mark_uni064B"/>
    <component base="uni064E" xOffset="734.0" yOffset="587.0" identifier="mark_uni064E"/>
    <component base="uni0651" xOffset="734.0" yOffset="606.0" identifier="mark_uni0651"/>
    <component base="uni0670" xOffset="734.0" yOffset="562.0" identifier="mark_uni0670"/>
    <component base="ar2Dot.above" xOffset="734.0" yOffset="562.0" identifier="mark_ar2Dot.above"/>
    <component base="ar3IDot.above" xOffset="734.0" yOffset="562.0" identifier="mark_ar3IDot.above"/>
  </outline>
</glyph>
<glyph name="arSwashKaf.init" format="2">
  <advance width="974.4337237255138"/>
  <anchor x="469.0" y="-175.0" name="markBelow"/>
  <anchor x="143.17457886676874" y="623.4318529862173" name="markAbove"/>
  <outline>
    <contour>
      <point x="0.0" y="-1.0" type="line"/>
      <point x="0.0" y="172.0" type="line"/>
      <point x="742.0" y="172.0" type="line"/>
      <point x="738.0" y="167.0"/>
      <point x="736.0" y="163.0"/>
      <point x="732.0" y="158.0" type="curve"/>
      <point x="709.0" y="209.0"/>
      <point x="677.0" y="239.0"/>
      <point x="634.0" y="239.0" type="curve" smooth="yes"/>
      <point x="195.0" y="239.0" type="line" smooth="yes"/>
      <point x="55.0" y="239.0"/>
      <point x="63.0" y="404.0"/>
      <point x="128.0" y="472.0" type="curve" smooth="yes"/>
      <point x="244.0" y="593.0"/>
      <point x="385.0" y="639.0"/>
      <point x="497.0" y="660.0" type="curve"/>
      <point x="529.0" y="492.0" type="line"/>
      <point x="473.0" y="481.0"/>
      <point x="359.0" y="441.0"/>
      <point x="312.0" y="402.0" type="curve"/>
      <point x="311.0" y="405.0"/>
      <point x="310.0" y="408.0"/>
      <point x="309.0" y="411.0" type="curve"/>
      <point x="634.0" y="411.0" type="line" smooth="yes"/>
      <point x="832.0" y="411.0"/>
      <point x="893.0" y="215.0"/>
      <point x="901.0" y="200.0" type="curve" smooth="yes"/>
      <point x="927.0" y="155.0"/>
      <point x="928.0" y="-1.0"/>
      <point x="780.0" y="-1.0" type="curve" smooth="yes"/>
    </contour>
  </outline>
</glyph>
<glyph name="arSwashKaf.isol" format="2">
  <advance width="1178.4337237255138"/>
  <outline>
    <contour>
      <point x="222.0" y="172.0" type="line"/>
      <point x="366.0" y="0.0" type="line"/>
      <point x="204.0" y="0.0" type="line"/>
      <point x="60.0" y="172.0" type="line"/>
    </contour>
    <component base="arSwashKaf.init" xOffset="204.0"/>
  </outline>
</glyph>
<glyph name="arTah.above" format="2">
  <outline>
    <contour>
      <point x="-73.0" y="0.0" type="line"/>
      <point x="-168.0" y="0.0" type="line"/>
      <point x="-168.0" y="86.0" type="line"/>
      <point x="-73.0" y="86.0" type="line"/>
    </contour>
    <contour>
      <point x="-120.0" y="312.0" type="line"/>
      <point x="-34.0" y="312.0" type="line"/>
      <point x="-34.0" y="61.0" type="line"/>
      <point x="-120.0" y="61.0" type="line"/>
    </contour>
    <contour>
      <point x="-77.0" y="86.0" type="line"/>
      <point x="-35.0" y="144.0"/>
      <point x="28.0" y="252.0"/>
      <point x="127.0" y="216.0" type="curve"/>
      <point x="173.0" y="196.0"/>
      <point x="191.0" y="152.0"/>
      <point x="192.0" y="104.0" type="curve" smooth="yes"/>
      <point x="194.0" y="70.0" type="line" smooth="yes"/>
      <point x="196.0" y="31.0"/>
      <point x="162.0" y="0.0"/>
      <point x="124.0" y="0.0" type="curve" smooth="yes"/>
      <point x="-92.0" y="0.0" type="line"/>
      <point x="-92.0" y="86.0" type="line"/>
      <point x="117.0" y="86.0" type="line"/>
      <point x="107.0" y="76.0" type="line"/>
      <point x="108.0" y="102.0" type="line"/>
      <point x="107.0" y="134.0"/>
      <point x="100.0" y="134.0"/>
      <point x="96.0" y="136.0" type="curve"/>
      <point x="74.0" y="143.0"/>
      <point x="27.0" y="87.0"/>
      <point x="-10.0" y="31.0" type="curve"/>
    </contour>
  </outline>
</glyph>
<glyph name="arTah.isol" format="2">
  <advance width="843"/>
  <outline>
    <contour>
      <point x="60.0" y="0.0" type="line"/>
      <point x="60.0" y="172.0" type="line"/>
      <point x="250.0" y="172.0" type="line"/>
      <point x="250.0" y="0.0" type="line"/>
    </contour>
    <contour>
      <point x="156.0" y="624.0" type="line"/>
      <point x="328.0" y="624.0" type="line"/>
      <point x="328.0" y="122.0" type="line"/>
      <point x="156.0" y="122.0" type="line"/>
    </contour>
    <component base="arSad.head" xOffset="498.0"/>
    <component base="arTah.above" xOffset="544.0" yOffset="562.0" identifier="mark_arTah.above"/>
    <component base="ar3Dot.above" xOffset="544.0" yOffset="562.0" identifier="mark_ar3Dot.above"/>
    <component base="ar1Dot.above" xOffset="544.0" yOffset="562.0" identifier="mark_ar1Dot.above"/>
    <component base="uni0652" xOffset="544.0" yOffset="610.0" identifier="mark_uni0652"/>
    <component base="uni064F" xOffset="544.0" yOffset="605.0" identifier="mark_uni064F"/>
    <component base="uni064C" xOffset="544.0" yOffset="603.0" identifier="mark_uni064C"/>
    <component base="ar3IDot.below" xOffset="399.0" yOffset="-110.0" identifier="mark_ar3IDot.below"/>
    <component base="ar2Dot.below" xOffset="399.0" yOffset="-110.0" identifier="mark_ar2Dot.below"/>
    <component base="uni0656" xOffset="399.0" yOffset="-110.0" identifier="mark_uni0656"/>
    <component base="uni064D" xOffset="399.0" yOffset="-145.0" identifier="mark_uni064D"/>
    <component base="uni0650" xOffset="399.0" yOffset="-135.0" identifier="mark_uni0650"/>
    <component base="ar1Dot.below" xOffset="399.0" yOffset="-110.0" identifier="mark_ar1Dot.below"/>
    <component base="ar3Dot.below" xOffset="399.0" yOffset="-110.0" identifier="mark_ar3Dot.below"/>
    <component base="uni064B" xOffset="544.0" yOffset="607.0" identifier="mark_uni064B"/>
    <component base="uni064E" xOffset="544.0" yOffset="587.0" identifier="mark_uni064E"/>
    <component base="uni0651" xOffset="544.0" yOffset="606.0" identifier="mark_uni0651"/>
    <component base="uni0670" xOffset="544.0" yOffset="562.0" identifier="mark_uni0670"/>
    <component base="ar2Dot.above" xOffset="544.0" yOffset="562.0" identifier="mark_ar2Dot.above"/>
    <component base="ar3IDot.above" xOffset="544.0" yOffset="562.0" identifier="mark_ar3IDot.above"/>
  </outline>
</glyph>
<glyph name="arTail.above" format="2">
  <anchor x="0.0" y="0.0" name="_tailAbove"/>
  <outline>
    <contour>
      <point x="-44.0" y="162.0" type="line"/>
      <point x="67.0" y="30.0" type="line"/>
      <point x="-104.0" y="-95.0" type="line"/>
      <point x="-176.0" y="-5.0" type="line"/>
    </contour>
  </outline>
</glyph>
<glyph name="arWavyHamza.above" format="2">
  <anchor x="0" y="0" name="_hamzaAbove"/>
  <anchor x="0" y="304.0" name="markAbove"/>
  <outline>
    <contour>
      <point x="-73.0" y="1.0" type="line"/>
      <point x="-92.0" y="1.0" type="line" smooth="yes"/>
      <point x="-120.18404999999998" y="1.0"/>
      <point x="-140.49411096751078" y="7.911756168021796"/>
      <point x="-154.16624154595783" y="20.823974779840018" type="curve" smooth="yes"/>
      <point x="-172.08575019810277" y="37.7474975479458"/>
      <point x="-171.31374674377992" y="51.83323376431226"/>
      <point x="-181.0" y="52.0" type="curve" smooth="yes"/>
      <point x="-194.39382910961598" y="52.230598808741725"/>
      <point x="-190.0" y="5.0"/>
      <point x="-190.0" y="2.0" type="curve"/>
      <point x="-288.0" y="2.0" type="line"/>
      <point x="-288.0" y="85.0"/>
      <point x="-257.9999999999978" y="160.0"/>
      <point x="-185.0" y="160.0" type="curve" smooth="yes"/>
      <point x="-152.0" y="160.0"/>
      <point x="-136.0" y="148.0"/>
      <point x="-122.9230769230769" y="134.38461538461536" type="curve" smooth="yes"/>
      <point x="-106.78492851255193" y="117.58195498071498"/>
      <point x="-99.0" y="101.0"/>
      <point x="-86.0" y="101.0" type="curve" smooth="yes"/>
      <point x="-73.0" y="101.0" type="line"/>
    </contour>
    <contour>
      <point x="96.0" y="212.0" type="line"/>
      <point x="96.0" y="112.0" type="line"/>
      <point x="56.0" y="112.0" type="line"/>
      <point x="67.0" y="88.0" type="line" smooth="yes"/>
      <point x="71.0" y="79.0"/>
      <point x="85.0" y="55.0"/>
      <point x="68.0" y="29.0" type="curve" smooth="yes"/>
      <point x="53.0" y="6.0"/>
      <point x="21.0" y="1.0"/>
      <point x="14.0" y="1.0" type="curve" smooth="yes"/>
      <point x="-83.0" y="1.0" type="line"/>
      <point x="-83.0" y="101.0" type="line"/>
      <point x="-49.0" y="101.0" type="line"/>
      <point x="-60.0" y="123.0" type="line"/>
      <point x="-60.0" y="123.0"/>
      <point x="-84.0" y="164.0"/>
      <point x="-57.0" y="192.0" type="curve" smooth="yes"/>
      <point x="-47.0" y="202.0"/>
      <point x="-28.0" y="212.0"/>
      <point x="-4.0" y="212.0" type="curve" smooth="yes"/>
    </contour>
  </outline>
</glyph>
<glyph name="arWaw.fina" format="2">
  <advance width="559"/>
  <outline>
    <contour>
      <point x="579.0" y="172.0" type="line"/>
      <point x="579.0" y="0.0" type="line"/>
      <point x="414.0" y="0.0" type="line"/>
      <point x="414.0" y="172.0" type="line"/>
    </contour>
    <component base="arWaw.isol"/>
  </outline>
</glyph>
<glyph name="arWaw.isol" format="2">
  <advance width="556"/>
  <anchor x="323.0" y="554.0" name="dotAbove"/>
  <anchor x="323.0" y="602.0" name="markAbove"/>
  <anchor x="323.0" y="554.0" name="uni0654"/>
  <anchor x="323.0" y="554.0" name="arSad.above"/>
  <anchor x="259.0" y="-359.0" name="dotBelow"/>
  <anchor x="259.0" y="-394.0" name="markBelow"/>
  <anchor x="323.0" y="554.0" name="arKaf.above"/>
  <anchor x="323.0" y="554.0" name="uni0653"/>
  <outline>
    <contour>
      <point x="378.0" y="0.0" type="line"/>
      <point x="250.0" y="0.0" type="line" smooth="yes"/>
      <point x="141.0" y="0.0"/>
      <point x="54.0" y="88.0"/>
      <point x="60.0" y="195.0" type="curve" smooth="yes"/>
      <point x="74.0" y="353.0"/>
      <point x="204.0" y="444.0"/>
      <point x="319.0" y="444.0" type="curve" smooth="yes"/>
      <point x="417.0" y="444.0"/>
      <point x="496.0" y="368.0"/>
      <point x="496.0" y="267.0" type="curve" smooth="yes"/>
      <point x="496.0" y="3.0" type="line" smooth="yes"/>
      <point x="496.0" y="-110.0"/>
      <point x="411.0" y="-229.0"/>
      <point x="272.0" y="-229.0" type="curve" smooth="yes"/>
      <point x="79.0" y="-229.0" type="line"/>
      <point x="79.0" y="-57.0" type="line"/>
      <point x="272.0" y="-57.0" type="line" smooth="yes"/>
      <point x="298.0" y="-57.0"/>
      <point x="324.0" y="-34.0"/>
      <point x="324.0" y="0.0" type="curve" smooth="yes"/>
      <point x="324.0" y="267.0" type="line" smooth="yes"/>
      <point x="324.0" y="274.0"/>
      <point x="321.0" y="273.0"/>
      <point x="315.0" y="272.0" type="curve"/>
      <point x="289.0" y="269.0"/>
      <point x="245.0" y="244.0"/>
      <point x="234.0" y="195.0" type="curve" smooth="yes"/>
      <point x="231.0" y="184.0"/>
      <point x="233.0" y="172.0"/>
      <point x="250.0" y="172.0" type="curve" smooth="yes"/>
      <point x="378.0" y="172.0" type="line"/>
    </contour>
  </outline>
</glyph>
